<?xml version="1.0" standalone="no"?>
<!DOCTYPE svg PUBLIC "-//W3C//DTD SVG 1.1//EN" "http://www.w3.org/Graphics/SVG/1.1/DTD/svg11.dtd" >
<svg xmlns="http://www.w3.org/2000/svg" xmlns:xlink="http://www.w3.org/1999/xlink" version="1.1">
<metadata>
Created by FontForge 20190801 at Wed Nov 10 00:13:37 2021
 By Unknown
Copyright (c) 2022 by www.fontiran.com (Moslem Ebrahimi). All rights reserved.
</metadata>
<defs>
<font id="DanaFaNum-ExtraBold" horiz-adv-x="0" >
  <font-face 
    font-family="DanaFaNum ExtraBold"
    font-weight="800"
    font-stretch="normal"
    units-per-em="1000"
    panose-1="0 0 0 0 0 0 0 0 0 0"
    ascent="800"
    descent="-200"
    x-height="527"
    cap-height="711"
    bbox="-153 -693 2364 1085"
    underline-thickness="36"
    underline-position="-271"
    unicode-range="U+000D-FEFF"
  />
<missing-glyph horiz-adv-x="300" 
d="M32 523h236v-546h-236v546zM232 23v454h-164v-454h164z" />
    <glyph glyph-name="uni06AA" unicode="&#x6a9;&#x621;&#x621;" horiz-adv-x="1033" 
d="M824 178.5q17 17.5 17 42.5t-17 42t-44 17h-374l-53 109l158 294l126 -75l-96 -168h213q68 0 120 -29t80.5 -79t28.5 -111t-28.5 -111.5t-81 -80t-119.5 -29.5h-257h-224q-113 0 -167.5 55.5t-54.5 143.5q0 39 11 83l26 102l138 -41l-27 -109q-3 -13 -3 -24
q0 -24 15.5 -37t43.5 -12h235h290q27 0 44 17.5z" />
    <glyph glyph-name="uni06BE" unicode="&#x647;&#x621;&#x621;" horiz-adv-x="767" 
d="M76 161h64h6q-37 52 -37 119q0 48 21 91q29 63 87 95l37 81l353 -186q51 -26 80.5 -77t29.5 -109q0 -46 -19 -85q-26 -54 -72.5 -84.5t-101.5 -30.5q-40 0 -81 18l-103 48q-88 -41 -200 -41h-90zM258 281q0 -13 8.5 -25t23.5 -19l49 -25q14 15 25 41q5 12 5 22
q0 15 -8 28.5t-22 20.5q-16 9 -31 9q-14 0 -25 -6.5t-17 -18.5q-8 -14 -8 -27zM501 130q12 -6 25 -6q15 0 27 7t18 21q5 10 5 21q0 14 -8 27t-24 21l-35 18q-5 -28 -16 -52q-14 -28 -23 -41z" />
    <glyph glyph-name="uni06C0" unicode="&#x647;&#x654;" horiz-adv-x="510" 
d="M152.5 26q-47.5 29 -75 78t-27.5 107q0 49 23 98.5t64 89.5l10 10l-24 22l99 117l136 -125q53 -50 77.5 -100t24.5 -112q0 -58 -27.5 -107t-74.5 -78t-102 -29q-56 0 -103.5 29zM202 656q94 4 94 8q0 2 -10.5 4.5t-24.5 4.5t-23 4q-50 8 -72 24.5t-22 46.5q0 25 13 58
q17 43 47 65.5t69 22.5q23 0 45 -7l38 -12l-21 -78l-38 12q-15 5 -27 5q-36 0 -49 -39q-4 -9 3 -12.5t31 -8.5q43 -9 65 -17.5t33 -25t11 -46.5q0 -38 -19 -56t-59 -25t-127 -13l-7 82zM208.5 170.5q18.5 -16.5 47.5 -16.5t47 16.5t18 40.5q0 21 -11.5 40.5t-47.5 51.5l-8 8
l-10 -10q-32 -32 -43 -51t-11 -39q0 -24 18.5 -40.5z" />
    <glyph glyph-name="uni06D2" unicode="&#x649;&#x621;&#x621;" horiz-adv-x="922" 
d="M318 305q-85 -48 -103 -61q-22 -17 -22 -39q0 -18 12.5 -31t31.5 -13h635v-161h-627q-57 0 -101.5 27.5t-69 74.5t-24.5 102q0 45 18.5 87t47.5 66q22 20 56.5 39.5t99.5 51.5q5 2 29 14l60 -133q-14 -8 -43 -24z" />
    <glyph glyph-name="uni06D3" unicode="&#x626;&#x621;&#x621;" horiz-adv-x="921" 
d="M318 305q-85 -48 -103 -61q-22 -17 -22 -39q0 -18 12.5 -31t31.5 -13h635v-161h-627q-57 0 -101.5 27.5t-69 74.5t-24.5 102q0 45 18.5 87t47.5 66q22 20 56.5 39.5t99.5 51.5q5 2 29 14l60 -133q-14 -8 -43 -24zM171 593q-8 13 -13 34q-4 20 -4 29q0 47 33 81t80 34
q24 0 88 -13l-14 -77q-67 12 -84 8q-15 -4 -24 -13.5t-9 -22.5q0 -14 13 -25t29 -11q6 0 9 1l110 26l17 -78l-281 -66l-17 77z" />
    <glyph glyph-name="uni06C0.fina" unicode="&#xfeea;&#x654;" horiz-adv-x="552" arabic-form="final" 
d="M244 73q-57 0 -110.5 41t-73.5 100q-10 30 -10 63q0 66 37.5 121.5t97.5 74.5l124 41v32h143v-309q0 -32 25 -54t61 -22h19l9 -81l-9 -80h-19q-54 0 -100.5 24t-78.5 65l-97 -15q-6 -1 -18 -1zM245 648q94 4 94 8t-58 13q-50 8 -72 24.5t-22 46.5q0 25 13 58
q17 43 47 65.5t69 22.5q23 0 45 -7l38 -12l-22 -78l-38 12q-15 5 -26 5q-36 0 -50 -38q-4 -9 3 -13t31 -9q43 -9 65.5 -17.5t33.5 -25t11 -46.5q0 -38 -19.5 -56t-59.5 -25t-127 -12l-7 81zM214 242q16 -12 35 -8l60 10v111l-79 -27q-18 -6 -27 -18.5t-9 -27.5q0 -7 1 -11
q3 -17 19 -29z" />
    <glyph glyph-name="uni06C1.fina" unicode="&#xfeea;&#x621;&#x621;" horiz-adv-x="545" arabic-form="final" 
d="M91 -23l-32 109q-11 38 -11 74q0 74 40.5 133t111.5 78l127 35l90 -63l18 -109q7 -41 26 -57t61 -16h28l13 -80l-13 -81h-28q-88 0 -140.5 47.5t-73.5 151.5l-7 39l-56 -19q-52 -18 -52 -66q0 -16 6 -36l30 -95z" />
    <glyph glyph-name="uni06C1.medi" unicode="&#xfeec;&#xfe8c;&#xfe8c;&#xfe8c;&#xfe8c;" horiz-adv-x="591" arabic-form="medial" 
d="M235.5 -142.5q-69.5 76.5 -82.5 180.5q-28 -17 -63 -27.5t-68 -10.5h-27v161h28q75 0 121 43t67 101l130 -44q-23 -65 -35 -109t-12 -76q0 -47 20.5 -91t56.5 -69v54q0 52 23 95.5t63 69.5t89 26h49l9 -81l-9 -80h-49q-16 0 -26.5 -9t-10.5 -21v-137l-114 -89
q-90 37 -159.5 113.5z" />
    <glyph glyph-name="uni06BE.fina" unicode="&#xfeea;&#x621;&#x621;&#x621;&#x621;" horiz-adv-x="603" arabic-form="final" 
d="M199.5 -166.5q-50.5 60.5 -64.5 160.5l-105 -11l23 142l82 10q18 65 52 165.5t41 121.5l9 25l88 44l71 -20q57 -16 88 -70t31 -122q0 -49 -14 -88q-9 -24 -12 -30h119l7 -81l-7 -80h-71q6 -23 6 -54q0 -35 -8 -61q-16 -57 -59.5 -94t-108.5 -37q-19 0 -47 5
q-70 14 -120.5 74.5zM292 -61.5q23 -28.5 57 -35.5q5 -1 14 -1q21 0 35.5 10t19.5 28q1 4 1 12q0 19 -12.5 35t-32.5 18l-109 13q4 -51 27 -79.5zM344.5 174.5q32.5 20.5 45.5 55.5q6 18 6 36q0 25 -10.5 44t-23.5 23l-23 6q-47 -131 -64 -187q37 2 69.5 22.5z" />
    <glyph glyph-name="uni06BE.medi" unicode="&#xfeec;&#xfe8c;&#xfe8c;&#xfe8c;" horiz-adv-x="691" arabic-form="medial" 
d="M-5 161h64h6q-37 52 -37 119q0 48 21 91q29 63 87 95l37 81l353 -186q54 -28 84 -83.5t26 -116.5h61l9 -81l-9 -80q-99 0 -150 7q-47 -32 -104 -32q-40 0 -81 18l-103 48q-91 -41 -200 -41h-64v161zM178 281q0 -13 8 -25t23 -19l48 -25q14 15 26 41q5 12 5 23q0 15 -8 29
t-22 21q-13 8 -29 8q-15 0 -26.5 -7t-17.5 -19q-7 -13 -7 -27zM420 130q12 -6 26 -6t26.5 7t18.5 21q5 10 5 20q0 14 -8.5 27t-24.5 22l-35 18q-5 -28 -16 -52q-9 -20 -23 -41z" />
    <glyph glyph-name="uni06D3.fina" unicode="&#xfe8a;&#x621;&#x621;" horiz-adv-x="358" arabic-form="final" 
d="M155 -258q-49 31 -77 82.5t-28 109.5q0 59 28.5 111t77.5 84t109 32h98v-161h-106q-27 0 -46 -18.5t-19 -46.5q0 -26 19 -44.5t46 -18.5h365v-161h-358q-60 0 -109 31zM106 291q-8 13 -13 34q-4 20 -4 29q0 47 33 80.5t79 33.5q25 0 89 -12l-14 -77q-46 8 -71 8
q-20 0 -33 -10.5t-13 -26.5q0 -14 12.5 -24.5t28.5 -10.5q7 0 10 1l110 26l17 -78l-111 -27l-14 -2l-156 -37l-17 77z" />
    <glyph glyph-name="uniFDF2" unicode="&#x627;&#xfedf;&#xfee0;&#xfeea;" horiz-adv-x="1440" arabic-form="isolated" 
d="M1200 696l143 8l27 -702l-143 -7zM50 277q0 66 37.5 121.5t97.5 74.5l124 41v32h143v-309q0 -32 25 -54t61 -22h32q34 0 45.5 10t10.5 30l-19 357l143 7l18 -331l1 -18q2 -33 15 -44t41 -11h33q34 0 46 10t11 30l-19 495l143 8l19 -496q3 -58 -20.5 -105.5t-70 -75
t-109.5 -27.5h-33q-82 0 -126 41q-52 -41 -129 -41h-32q-54 0 -100.5 24t-78.5 65l-97 -15q-6 -1 -18 -1q-57 0 -110.5 41t-73.5 100q-10 30 -10 63zM214 242q16 -12 35 -8l60 10v111l-79 -27q-18 -6 -27 -18.5t-9 -27.5q0 -7 1 -11q3 -17 19 -29zM543 799l61 -17l-11 -51
q-6 -26 25 -26q12 0 18 4.5t6 7.5l2 68h59l3 -68q0 -4 6 -8t18 -4q32 0 26 22l-17 72l62 18l22 -75q4 -12 4 -28q0 -38 -27.5 -64t-69.5 -26q-16 0 -31.5 5.5t-24.5 14.5q-10 -9 -25 -14.5t-31 -5.5q-40 0 -66.5 25.5t-26.5 63.5q0 15 4 28zM642 987h68v-162h-68v162z" />
    <glyph glyph-name="uni06440622" unicode="&#xfedf;&#xfe82;" horiz-adv-x="606" arabic-form="isolated" 
d="M105 161h251q34 0 45.5 10t10.5 30l-19 495l144 8l19 -496q3 -59 -21 -106t-70 -74.5t-109 -27.5h-251v161zM28 718q0 45 26.5 72.5t68.5 27.5q16 0 24 -2l101 -19q4 -1 12 -1q23 0 23 19v4l72 5v-25q0 -45 -26.5 -72t-68.5 -27q-16 0 -24 2l-101 19q-4 1 -12 1
q-23 0 -23 -20v-3l-72 -6v25zM190 663l84 -430l-140 -29l-84 431z" />
    <glyph glyph-name="uni06440622.fina" unicode="&#xfee0;&#xfe82;" horiz-adv-x="627" arabic-form="final" 
d="M486 41q-54 -41 -130 -41h-251v161h251q34 0 45.5 10t10.5 30l-19 495l144 8l19 -496v-1q4 -27 17 -36.5t39 -9.5h20l9 -81l-9 -80h-20q-84 0 -126 41zM29 715q0 45 27 72.5t70 27.5q7 0 23 -2l101 -19q5 -1 13 -1q21 0 21 19v4l72 5v-25q0 -45 -26.5 -72t-68.5 -27
q-16 0 -24 2l-101 19q-4 1 -11 1q-24 0 -24 -20v-3l-72 -6v25zM190 663l84 -430l-140 -29l-84 431z" />
    <glyph glyph-name="uni06440623" unicode="&#xfedf;&#xfe84;" horiz-adv-x="606" arabic-form="isolated" 
d="M105 161h251q34 0 45.5 10t10.5 30l-19 495l144 8l19 -496q3 -59 -21 -106t-70 -74.5t-109 -27.5h-251v161zM62 773q-9 18 -13 34q-4 20 -4 29q0 48 33.5 81.5t81.5 33.5q26 0 86 -13l-13 -77q-68 12 -84 8q-15 -4 -24 -13t-9 -22q0 -7 1 -10q2 -11 14 -19t26 -8q6 0 9 1
l110 26l17 -78l-110 -27q-10 -2 -14 -2l-156 -37l-17 77zM190 663l84 -430l-140 -29l-84 431z" />
    <glyph glyph-name="uni06440623.fina" unicode="&#xfee0;&#xfe84;" horiz-adv-x="627" arabic-form="final" 
d="M486 41q-54 -41 -130 -41h-251v161h251q34 0 45.5 10t10.5 30l-19 495l144 8l19 -496v-1q4 -27 17 -36.5t39 -9.5h20l9 -81l-9 -80h-20q-84 0 -126 41zM62 766q-8 13 -13 34q-4 20 -4 29q0 47 33 80.5t80 33.5q25 0 88 -12l-13 -78q-50 9 -74 9q-19 0 -31 -10t-12 -25
q0 -7 1 -10q2 -12 14 -19.5t25 -7.5q7 0 10 1l110 26l17 -78l-110 -27q-10 -2 -15 -2l-155 -37l-17 77zM190 663l84 -430l-140 -29l-84 431z" />
    <glyph glyph-name="uni06440625" unicode="&#xfedf;&#xfe88;" horiz-adv-x="606" arabic-form="isolated" 
d="M105 161h251q34 0 45.5 10t10.5 30l-19 495l144 8l19 -496q3 -59 -21 -106t-70 -74.5t-109 -27.5h-251v161zM113 -203q-8 14 -13 33q-4 20 -4 30q0 47 32.5 80.5t79.5 33.5q25 0 89 -13l-14 -77q-49 9 -74 9q-19 0 -31 -10.5t-12 -25.5q0 -16 13.5 -27t31.5 -10l116 28
l17 -79l-281 -66l-17 78zM190 663l84 -430l-140 -29l-84 431z" />
    <glyph glyph-name="uni06440625.fina" unicode="&#xfee0;&#xfe88;" horiz-adv-x="627" arabic-form="final" 
d="M486 41q-54 -41 -130 -41h-251v161h251q34 0 45.5 10t10.5 30l-19 495l144 8l19 -496v-1q4 -27 17 -36.5t39 -9.5h20l9 -81l-9 -80h-20q-84 0 -126 41zM115 -203q-8 14 -13 33q-4 20 -4 29q0 47 33 81t80 34q24 0 88 -13l-14 -77q-49 9 -74 9q-19 0 -31 -10.5t-12 -25.5
q0 -16 13.5 -27t31.5 -10l116 28l17 -79l-281 -66l-17 78zM190 663l84 -430l-140 -29l-84 431z" />
    <glyph glyph-name="uni06440627" unicode="&#xfedf;&#xfe8e;" horiz-adv-x="606" arabic-form="isolated" 
d="M105 161h251q34 0 45.5 10t10.5 30l-19 495l144 8l19 -496q3 -59 -21 -106t-70 -74.5t-109 -27.5h-251v161zM190 663l84 -430l-140 -29l-84 431z" />
    <glyph glyph-name="uni06440627.fina" unicode="&#xfee0;&#xfe8e;" horiz-adv-x="627" arabic-form="final" 
d="M486 41q-54 -41 -130 -41h-251v161h251q34 0 45.5 10t10.5 30l-19 495l144 8l19 -496v-1q4 -27 17 -36.5t39 -9.5h20l9 -81l-9 -80h-20q-84 0 -126 41zM190 663l84 -430l-140 -29l-84 431z" />
    <glyph glyph-name="uni062C.fina.alt" unicode="&#xfe9e;&#x621;&#x621;" horiz-adv-x="742" 
d="M347 -355q-101 0 -179.5 59.5t-106.5 159.5q-11 38 -11 83q0 104 68 186t190 115l190 48l-145 71q-22 11 -44 11q-23 0 -43.5 -12t-33.5 -33l-17 -31l-125 79l20 35q36 59 87.5 91t109.5 32q59 0 115 -31l257 -144l-20 -185h-2q21 -18 53 -18h37l9 -81l-9 -80h-37
q-68 0 -119 38t-75 102l-171 -47q-76 -20 -113.5 -58.5t-37.5 -88.5q0 -19 4 -35q12 -47 54 -76t96 -29q24 0 48 6l253 70l37 -155l-258 -72q-39 -10 -81 -10zM352 36h142v-142h-142v142z" />
    <glyph glyph-name="uni062C.alt" unicode="&#x62c;&#x621;&#x621;" horiz-adv-x="738" 
d="M347 -355q-101 0 -179.5 59.5t-106.5 159.5q-11 38 -11 83q0 104 68 186t190 115l190 48l-145 71q-22 11 -44 11q-23 0 -43.5 -12t-33.5 -33l-17 -31l-125 79l20 35q36 59 87.5 91t109.5 32q59 0 115 -31l257 -144l-20 -185l-314 -86q-76 -20 -113.5 -58.5t-37.5 -88.5
q0 -19 4 -35q12 -47 54 -76t96 -29q24 0 48 6l253 70l37 -155l-258 -72q-39 -10 -81 -10zM352 40h142v-142h-142v142z" />
    <glyph glyph-name="uni0686.alt" unicode="&#x686;&#x621;&#x621;" horiz-adv-x="738" 
d="M347 -355q-101 0 -179.5 59.5t-106.5 159.5q-11 38 -11 83q0 104 68 186t190 115l190 48l-145 71q-22 11 -44 11q-23 0 -43.5 -12t-33.5 -33l-17 -31l-125 79l20 35q36 59 87.5 91t109.5 32q59 0 115 -31l257 -144l-20 -185l-314 -86q-76 -20 -113.5 -58.5t-37.5 -88.5
q0 -19 4 -35q12 -47 54 -76t96 -29q24 0 48 6l253 70l37 -155l-258 -72q-39 -10 -81 -10zM407 62v0l121 35l32 -111l-66 -19l23 -78l-98 -28l-22 77l-67 -19l-32 112z" />
    <glyph glyph-name="uni0686.fina.alt" unicode="&#xfb7b;&#x621;&#x621;" horiz-adv-x="742" 
d="M368 -75l-66 -20l-34 111q43 13 76 23t43 13l109 34l34 -111l-65 -20l24 -77l-98 -30zM50 -53q0 104 68 186t190 115l190 48l-145 71q-22 11 -44 11q-23 0 -43.5 -12t-33.5 -33l-17 -31l-125 79l20 35q36 59 87.5 91t109.5 32q59 0 115 -31l257 -144l-20 -185h-2
q21 -18 53 -18h37l9 -81l-9 -80h-37q-68 0 -119 38t-75 102l-171 -47q-76 -20 -113.5 -58.5t-37.5 -88.5q0 -19 4 -35q12 -47 54 -76t96 -29q24 0 48 6l253 70l37 -155l-258 -72q-39 -10 -81 -10q-101 0 -179.5 59.5t-106.5 159.5q-11 38 -11 83z" />
    <glyph glyph-name="uni062D.alt" unicode="&#x62d;&#x621;&#x621;" horiz-adv-x="738" 
d="M347 -355q-101 0 -179.5 59.5t-106.5 159.5q-11 38 -11 83q0 104 68 186t190 115l190 48l-145 71q-22 11 -44 11q-23 0 -43.5 -12t-33.5 -33l-17 -31l-125 79l20 35q36 59 87.5 91t109.5 32q59 0 115 -31l257 -144l-20 -185l-314 -86q-76 -20 -113.5 -58.5t-37.5 -88.5
q0 -19 4 -35q12 -47 54 -76t96 -29q24 0 48 6l253 70l37 -155l-258 -72q-39 -10 -81 -10z" />
    <glyph glyph-name="uni062D.fina.alt" unicode="&#xfea2;&#x621;&#x621;" horiz-adv-x="742" 
d="M347 -355q-101 0 -179.5 59.5t-106.5 159.5q-11 38 -11 83q0 104 68 186t190 115l190 48l-145 71q-22 11 -44 11q-23 0 -43.5 -12t-33.5 -33l-17 -31l-125 79l20 35q36 59 87.5 91t109.5 32q59 0 115 -31l257 -144l-20 -185h-2q21 -18 53 -18h37l9 -81l-9 -80h-37
q-68 0 -119 38t-75 102l-171 -47q-76 -20 -113.5 -58.5t-37.5 -88.5q0 -19 4 -35q12 -47 54 -76t96 -29q24 0 48 6l253 70l37 -155l-258 -72q-39 -10 -81 -10z" />
    <glyph glyph-name="uni062E.alt" unicode="&#x62e;&#x621;&#x621;" horiz-adv-x="738" 
d="M347 -355q-101 0 -179.5 59.5t-106.5 159.5q-11 38 -11 83q0 104 68 186t190 115l190 48l-145 71q-22 11 -44 11q-23 0 -43.5 -12t-33.5 -33l-17 -31l-125 79l20 35q36 59 87.5 91t109.5 32q59 0 115 -31l257 -144l-20 -185l-314 -86q-76 -20 -113.5 -58.5t-37.5 -88.5
q0 -19 4 -35q12 -47 54 -76t96 -29q24 0 48 6l253 70l37 -155l-258 -72q-39 -10 -81 -10zM241 747h142v-142h-142v142z" />
    <glyph glyph-name="uni062E.fina.alt" unicode="&#xfea6;&#x621;&#x621;" horiz-adv-x="742" 
d="M347 -355q-101 0 -179.5 59.5t-106.5 159.5q-11 38 -11 83q0 104 68 186t190 115l190 48l-145 71q-22 11 -44 11q-23 0 -43.5 -12t-33.5 -33l-17 -31l-125 79l20 35q36 59 87.5 91t109.5 32q59 0 115 -31l257 -144l-20 -185h-2q21 -18 53 -18h37l9 -81l-9 -80h-37
q-68 0 -119 38t-75 102l-171 -47q-76 -20 -113.5 -58.5t-37.5 -88.5q0 -19 4 -35q12 -47 54 -76t96 -29q24 0 48 6l253 70l37 -155l-258 -72q-39 -10 -81 -10zM241 747h142v-142h-142v142z" />
    <glyph glyph-name="uni06AA.001" unicode="&#x6af;&#x621;&#x621;" horiz-adv-x="1033" 
d="M824 178.5q17 17.5 17 42.5t-17 42t-44 17h-302l-52 109l158 294l126 -75l-96 -168h140q68 0 120 -29t80.5 -79t28.5 -111t-28.5 -111.5t-81 -80t-119.5 -29.5h-257h-224q-113 0 -167.5 55.5t-54.5 143.5q0 39 11 83l26 102l138 -41l-27 -109q-3 -13 -3 -24
q0 -24 15.5 -37t43.5 -12h235h290q27 0 44 17.5zM411 698l92 -49l-121 -223l-92 50z" />
    <glyph glyph-name="uni06AA.fina" unicode="&#xfb8f;&#x621;&#x621;" horiz-adv-x="1039" 
d="M274 0q-114 0 -169.5 56t-55.5 144q0 38 11 82l27 102l138 -41l-28 -109q-3 -13 -3 -25q0 -24 15 -36.5t44 -11.5h235h293q59 0 59 51v17q0 25 -16 38t-45 13h-375l-53 109l158 294l126 -75l-96 -168h213q68 0 120 -29t80.5 -79t28.5 -111v-10q0 -30 10.5 -40t42.5 -10
h10l9 -81l-9 -80h-10q-71 0 -119 48q-58 -48 -142 -48h-285h-214z" />
    <glyph glyph-name="uni06AA.fina.001" unicode="&#xfb93;&#x621;&#x621;" horiz-adv-x="1042" 
d="M104.5 56q-55.5 56 -55.5 144q0 38 11 82l27 102l137 -41l-27 -109q-3 -13 -3 -25q0 -48 59 -48h534q32 0 43.5 12.5t11.5 35.5v12q0 25 -17 42t-44 17h-300l-52 109l157 294l127 -75l-97 -168h139q68 0 120 -29t80.5 -79t28.5 -111v-10q0 -30 10.5 -40t42.5 -10h9l9 -81
l-9 -80h-9q-70 0 -120 48q-56 -48 -142 -48h-502q-113 0 -168.5 56zM414 698l91 -49l-120 -223l-92 50z" />
    <glyph glyph-name="uni06AA.medi" unicode="&#xfb91;&#xfe8c;&#xfe8c;" horiz-adv-x="757" 
d="M-5 161h507q32 0 43.5 12.5t11.5 35.5v12q0 25 -17 42t-43 17h-375l-53 109l158 294l126 -75l-96 -168h213q68 0 120 -29t80.5 -79t28.5 -111v-10q0 -30 10.5 -40t42.5 -10h9l9 -81l-9 -80h-9q-70 0 -120 48q-56 -48 -142 -48h-495v161z" />
    <glyph glyph-name="uni06AA.medi.001" unicode="&#xfb95;&#xfe8c;&#xfe8c;" horiz-adv-x="757" 
d="M540 263q-17 17 -43 17h-262l-52 109l158 294l126 -75l-96 -168h99q68 0 120 -29t80.5 -79t28.5 -111v-10q0 -30 10.5 -40t42.5 -10h9l9 -81l-9 -80h-9q-70 0 -120 48q-56 -48 -142 -48h-495v161h507q32 0 43.5 12.5t11.5 35.5v12q0 25 -17 42zM171 703l92 -49l-121 -223
l-91 49z" />
    <glyph glyph-name="uni06AA.init" unicode="&#xfb90;&#xfe8c;&#xfe8c;" horiz-adv-x="749" 
d="M353 608l-96 -168h213q68 0 120 -29t80.5 -79t28.5 -111q0 -62 -28.5 -112t-80.5 -79.5t-120 -29.5h-475v161l502 1q26 0 43 17t17 42t-17 42t-43 17h-375l-53 109l158 294z" />
    <glyph glyph-name="uni06AA.init.001" unicode="&#xfb94;&#xfe8c;&#xfe8c;" horiz-adv-x="749" 
d="M460 608l-96 -168h106q68 0 120 -29t80.5 -79t28.5 -111q0 -62 -28.5 -112t-80.5 -79.5t-120 -29.5h-475v161l502 1q26 0 43 17t17 42t-17 42t-43 17h-269l-52 109l157 294zM160 698l92 -49l-121 -223l-92 50z" />
    <glyph glyph-name="uni0645.alt" unicode="&#x645;&#x621;&#x621;" horiz-adv-x="607" 
d="M81.5 190q31.5 39 80.5 47l53 103q24 46 65.5 72t89.5 26q43 0 83 -21q49 -26 76 -78.5t27 -117.5q0 -77 -37 -147q-20 -37 -53.5 -58.5t-71.5 -21.5q-33 0 -64 16l-136 69l19 -374l-143 -5l-17 395q-3 56 28.5 95zM412 151q20 34 20 69q0 41 -30 58q-12 6 -24 6
q-17 0 -32.5 -13t-28.5 -38l-17 -32z" />
    <glyph glyph-name="uni0645.fina.alt" unicode="&#xfee2;&#x621;&#x621;" horiz-adv-x="617" 
d="M499 45q-21 -24 -48 -37.5t-57 -13.5q-33 0 -64 16l-136 69l19 -374l-143 -5l-17 395q-3 56 28.5 95t80.5 47l53 103q24 46 65.5 72t89.5 26q43 0 83 -21q49 -26 76 -78.5t27 -117.5q0 -21 -3 -42q26 -18 69 -18l9 -81l-9 -80q-76 0 -123 45zM412 151q20 34 20 69
q0 41 -30 58q-12 6 -24 6q-17 0 -32.5 -13t-28.5 -38l-17 -32z" />
    <glyph glyph-name="uni0647.fina.alt" unicode="&#xfeea;&#x621;&#x621;&#x621;" horiz-adv-x="685" 
d="M241 -25q-54 0 -100.5 30.5t-72.5 84.5q-19 39 -19 86q0 58 29.5 108.5t79.5 76.5l353 186l37 -80q59 -33 88 -96q21 -43 21 -91q0 -67 -37 -119h5h65v-161h-65q-112 0 -199 41l-103 -48q-40 -18 -82 -18zM212.5 131q12.5 -7 26.5 -7t26 6l31 16q-14 21 -23 41
q-11 24 -16 52l-35 -18q-16 -8 -24.5 -21t-8.5 -27q0 -11 5 -21q6 -14 18.5 -21zM426 212l49 25q32 15 32 45q0 13 -7 26q-6 12 -17 18.5t-25 6.5t-31 -9q-14 -7 -22 -20t-8 -28q0 -13 5 -23q13 -28 24 -41z" />
    <glyph glyph-name="uni0647.medi.alt" unicode="&#xfeec;&#xfe8c;&#xfe8c;" horiz-adv-x="535" 
d="M132 -164q-51 63 -65 164h-72v161h80q25 94 94 286l87 44l71 -20q57 -16 88.5 -70.5t31.5 -122.5q0 -43 -14 -87q-9 -24 -12 -30h119l7 -81l-7 -80h-71q6 -23 6 -54q0 -35 -8 -61q-16 -57 -59.5 -94t-108.5 -37q-19 0 -47 5q-69 14 -120 77zM223.5 -61.5
q22.5 -28.5 56.5 -35.5q5 -1 15 -1q25 0 40.5 13.5t15.5 37.5q0 19 -13 34.5t-33 17.5l-108 13q4 -51 26.5 -79.5zM276.5 174.5q32.5 20.5 45.5 55.5q6 18 6 35q0 25 -10.5 44.5t-24.5 23.5l-22 6q-47 -131 -64 -187q37 2 69.5 22.5z" />
    <glyph glyph-name="uni0647.init.alt" unicode="&#xfeeb;&#xfe8c;&#xfe8c;" horiz-adv-x="530" 
d="M180 -211.5q-50 29.5 -81.5 84t-31.5 127.5h-72v161h80q25 94 94 286l87 44l71 -20q57 -16 88.5 -70.5t31.5 -122.5q0 -43 -14 -87t-43 -78q40 -27 62.5 -69t22.5 -92q0 -52 -25.5 -96.5t-70 -70.5t-96.5 -26q-53 0 -103 29.5zM235 -69q27 -28 63 -28q22 0 36.5 13.5
t14.5 37.5q0 22 -15 37t-36 15l-97 -1q7 -46 34 -74zM276.5 174.5q32.5 20.5 45.5 55.5q6 18 6 35q0 25 -10.5 44.5t-24.5 23.5l-22 6q-47 -131 -64 -187q37 2 69.5 22.5z" />
    <glyph glyph-name="uni06440671" unicode="&#xfedf;&#xfb51;" horiz-adv-x="606" 
d="M105 161h251q34 0 45.5 10t10.5 30l-19 495l144 8l19 -496q3 -59 -21 -106t-70 -74.5t-109 -27.5h-251v161zM33.5 767q19.5 16 42.5 20l32 44q24 32 39 49.5t37.5 31t49.5 13.5q44 0 74 -32.5t30 -80.5q0 -42 -31 -73.5t-73 -31.5h-138q-12 0 -19.5 -6t-25.5 -30l-61 46
q24 34 43.5 50zM190 663l84 -430l-140 -29l-84 431zM234 788q14 0 24.5 7.5t10.5 21.5q0 13 -10 21.5t-25 8.5t-28.5 -10.5t-33.5 -37.5l-8 -11h70z" />
    <glyph glyph-name="uni06440671.fina" unicode="&#xfee0;&#xfb51;" horiz-adv-x="627" 
d="M486 41q-54 -41 -130 -41h-251v161h251q34 0 45.5 10t10.5 30l-19 495l144 8l19 -496v-1q4 -27 17 -36.5t39 -9.5h20l9 -81l-9 -80h-20q-84 0 -126 41zM33.5 767q19.5 16 42.5 20l32 44q24 32 39 49.5t37.5 31t49.5 13.5q44 0 74 -32.5t30 -80.5q0 -42 -31 -73.5
t-73 -31.5h-138q-12 0 -19.5 -6t-25.5 -30l-61 46q24 34 43.5 50zM190 663l84 -430l-140 -29l-84 431zM234 788q14 0 24.5 7.5t10.5 21.5q0 13 -10 21.5t-25 8.5t-28.5 -10.5t-33.5 -37.5l-8 -11h70z" />
    <glyph glyph-name="uni064406440647" unicode="&#xfedf;&#xfee0;&#x651;&#x670;&#xfeea;" horiz-adv-x="1128" 
d="M699 41q-52 -41 -129 -41h-32q-54 0 -100.5 24t-78.5 65l-97 -15q-6 -1 -18 -1q-57 0 -110.5 41t-73.5 100q-10 30 -10 63q0 66 37.5 121.5t97.5 74.5l124 41v32h143v-309q0 -32 25 -54t61 -22h32q34 0 45.5 10t10.5 30l-19 357l143 7l18 -331l1 -18q2 -33 15 -44t41 -11
h33q34 0 46 10t11 30l-19 495l143 8l19 -496q3 -58 -20.5 -105.5t-70 -75t-109.5 -27.5h-33q-82 0 -126 41zM214 242q16 -12 35 -8l60 10v111l-79 -27q-18 -6 -27 -18.5t-9 -27.5q0 -7 1 -11q3 -17 19 -29zM543 799l61 -17l-11 -51q-6 -26 25 -26q12 0 18 4.5t6 7.5l2 68h59
l3 -68q0 -4 6 -8t18 -4q32 0 26 22l-17 72l62 18l22 -75q4 -12 4 -28q0 -38 -27.5 -64t-69.5 -26q-16 0 -31.5 5.5t-24.5 14.5q-10 -9 -25 -14.5t-31 -5.5q-40 0 -66.5 25.5t-26.5 63.5q0 15 4 28zM642 987h68v-162h-68v162z" />
    <glyph glyph-name="tomaan" unicode="&#xfe97;&#xfeee;&#xfee3;&#xfe8e;&#x646;&#x621;" horiz-adv-x="2414" 
d="M327 -90q-85 0 -147.5 38.5t-95.5 108.5t-33 163q0 103 39 214l136 -54q-33 -94 -33 -164q0 -71 34.5 -108.5t98.5 -37.5q26 0 63 8q67 15 98.5 25.5t45.5 26t14 43.5q0 8 -2 26l-44 296l85 174l186 59q27 9 50 9q40 0 63.5 -25.5t25.5 -70.5l15 -405q1 -36 5.5 -50.5
t17 -19.5t43.5 -5q23 0 41 9t26 25l75 143q24 48 66 74.5t90 26.5q43 0 83 -22q49 -27 76 -79.5t27 -116.5q0 -77 -37 -147q-20 -37 -54 -58t-72 -21q-34 0 -66 16l-107 55q-61 -66 -148 -66q-74 0 -118 23.5t-65.5 74.5t-25.5 138l-17 346l-129 -40l49 -321q5 -35 5 -58
q0 -101 -65.5 -155.5t-203.5 -86.5q-45 -11 -95 -11zM399 608l1 -140l-140 -2l-3 140zM1320 146h1q3 0 9 7t9 14q12 30 12 56q0 39 -29 55q-12 6 -24 6q-17 0 -32.5 -13t-28.5 -38l-19 -36zM1557 214q0 62 27 115.5t75 86t106 32.5t105 -30.5t76 -85t36 -124.5l5 -47h157
q40 0 57.5 9.5t17.5 34.5q0 14 -6 35l-39 149l138 41l42 -157q10 -36 10 -72q0 -59 -27.5 -105t-77.5 -71t-115 -25h-143l1 -7q1 -69 -33.5 -114t-111.5 -76.5t-213 -58.5l-29 157q100 21 145 33t68 25.5t26 33.5l1 7h-96q-86 0 -139.5 52t-61.5 141q-1 7 -1 21zM1713.5 173
q12.5 -12 45.5 -12h83l-3 30q-4 48 -24 72t-51 24q-29 0 -46 -21t-17 -53q0 -28 12.5 -40zM1908 675h354v-130l-354 1v129z" />
    <glyph glyph-name="tomaan.001" unicode="&#xfe97;&#xfeee;&#xfee3;&#xfe8e;&#x646;&#x621;&#x621;" horiz-adv-x="1944" 
d="M1291 -65.5q45 11.5 68 25t26 33.5v7h-64q-101 0 -179 65q-59 -65 -150 -65q-74 0 -118 23.5t-65.5 74.5t-25.5 138l-17 346l-129 -40l49 -321q5 -35 5 -58q0 -101 -65.5 -155.5t-203.5 -86.5q-45 -11 -95 -11q-85 0 -147.5 38.5t-95.5 108.5t-33 163q0 103 39 214
l136 -54q-33 -94 -33 -164q0 -71 34.5 -108.5t98.5 -37.5q26 0 63 8q67 15 98.5 25.5t45.5 26t14 43.5q0 8 -2 26l-44 296l85 174l186 59q27 9 50 9q40 0 63.5 -25.5t25.5 -70.5l15 -405q1 -36 5.5 -50.5t17 -19.5t43.5 -5q65 0 85 41l67 133q32 62 72.5 87.5t94.5 25.5
q51 0 94.5 -30.5t72 -85t35.5 -124.5l5 -47h157q40 0 57 10t17 35q0 12 -5 34l-39 149l138 41l41 -157q10 -36 10 -73q0 -59 -27.5 -104.5t-77.5 -70.5t-114 -25h-143v-9q1 -69 -33.5 -113.5t-111.5 -75.5t-213 -58l-28 157q100 22 145 33.5zM399 608l1 -140l-140 -2l-3 140
zM1342 161h39l-3 30q-4 48 -23 72t-50 24q-26 0 -41.5 -16t-27.5 -41l-16 -35q46 -34 122 -34zM1438 675h355v-130l-355 1v129z" />
    <glyph glyph-name="tomaan.002" unicode="&#xfe97;&#xfeee;&#xfee3;&#xfe8e;&#x646;&#x621;&#x621;&#x621;" horiz-adv-x="1946" 
d="M1296.5 -9.5q43.5 11.5 66.5 24.5t26 34l1 5h-65q-101 0 -179 65q-28 -32 -66 -48.5t-83 -16.5q-74 0 -117.5 23.5t-65 74.5t-27.5 139l-17 257l-128 -44l44 -255q6 -33 6 -61q0 -98 -66.5 -152.5t-203.5 -86.5q-45 -11 -95 -11q-85 0 -147.5 38.5t-95.5 109t-33 163.5
q0 103 39 214l136 -54q-33 -96 -33 -164q0 -71 34.5 -109t98.5 -38q26 0 63 8q67 15 98.5 25.5t46 25.5t14.5 42q0 13 -3 28l-39 231l85 174l185 62q27 9 50 9q40 0 63.5 -25.5t25.5 -70.5l15 -316q2 -37 6.5 -51.5t17 -19.5t43.5 -5q65 0 85 41l67 133q32 63 72 88t95 25
q51 0 94.5 -30.5t71.5 -85t35 -123.5l5 -48h155q39 0 56.5 10t17.5 35q0 12 -5 34l-39 149l138 41l41 -157q10 -36 10 -73q0 -59 -27.5 -104.5t-77.5 -70.5t-114 -25h-141l1 -7q1 -69 -33.5 -113.5t-111.5 -75.5t-213 -58l-29 157q103 22 146.5 33.5zM417 644l1 -140
l-140 -2l-3 140zM1346 215h40l-3 31q-5 48 -24 71.5t-50 23.5q-26 0 -41.5 -16t-27.5 -41l-16 -35q49 -34 122 -34zM1440 724h355v-129h-355v129z" />
    <glyph glyph-name="tomaan.003" unicode="&#xfe97;&#xfeee;&#xfee3;&#xfee6;&#x621;" horiz-adv-x="1657" 
d="M1006 11q45 12 68 25.5t26 34.5v5h-64q-101 0 -179 65q-57 -64 -149 -66h-26q-21 -66 -85 -106t-175 -65q-45 -11 -95 -11q-85 0 -147.5 38.5t-95.5 108.5t-33 163q0 103 39 214l136 -53q-33 -96 -33 -164q0 -71 34.5 -109t98.5 -38q26 0 63 8q67 15 98.5 25.5t46 25.5
t14.5 42q0 13 -3 28l-38 225l136 46l37 -216h28q65 0 84 40l68 134q32 62 72 87.5t94 25.5q51 0 94.5 -30.5t72 -85t35.5 -124.5l5 -47h154q40 0 57.5 9.5t17.5 35.5q0 12 -5 34l-39 149l137 41l42 -157q10 -36 10 -72q0 -59 -27.5 -105t-77.5 -71t-115 -25h-140v-8
q1 -69 -33.5 -113.5t-111.5 -75.5t-213 -58l-28 157q100 21 145 33zM431 642l1 -140l-140 -2l-3 140zM1057 237h40l-3 30q-5 48 -24 72t-50 24q-26 0 -41.5 -16t-27.5 -42l-16 -34q46 -34 122 -34zM1153 725h354v-129h-354v129z" />
    <glyph glyph-name="uni0621" unicode="&#x621;" horiz-adv-x="488" arabic-form="isolated" 
d="M296 15l-223 -42l-23 142l59 11q-8 20 -11 38t-3 36q0 66 40 117t104 64q4 1 16 1q44 0 131 -19l-34 -138q-64 15 -88 15q-21 0 -32.5 -12t-11.5 -29t13 -29.5t34 -12.5q5 0 15 2l133 25l23 -142l-137 -26z" />
    <glyph glyph-name="uni0622" unicode="&#x622;" horiz-adv-x="325" arabic-form="isolated" 
d="M86 597l143 7l22 -602l-143 -7zM0 656q0 45 27 72.5t69 27.5q7 0 23 -2l101 -19q5 -1 13 -1q22 0 22 19v4l72 5v-25q0 -45 -26.5 -72t-68.5 -27q-16 0 -24 2l-101 19q-4 1 -11 1q-24 0 -24 -20v-3l-72 -6v25z" />
    <glyph glyph-name="uni0623" unicode="&#x623;" horiz-adv-x="325" arabic-form="isolated" 
d="M86 597l143 7l22 -602l-143 -7zM68 744q-8 13 -13 34q-4 20 -4 29q0 47 33 80.5t80 33.5q23 0 88 -12l-13 -77q-68 12 -85 8q-15 -4 -23.5 -13t-8.5 -22q0 -7 1 -10q2 -11 14 -19t26 -8q6 0 9 1l110 26l17 -78l-111 -27l-14 -2l-156 -37l-17 77z" />
    <glyph glyph-name="uni0624" unicode="&#x624;" horiz-adv-x="548" arabic-form="isolated" 
d="M268 -64q47 13 65.5 28.5t19.5 42.5q-49 -7 -99 -7q-58 0 -103.5 27.5t-71.5 76.5t-26 111t27 115.5t74.5 85.5t106.5 32q58 0 104.5 -30t76 -84.5t36.5 -124.5l17 -162q3 -25 3 -47q0 -77 -36 -124t-111 -76t-211 -56l-29 157q110 22 157 35zM191 578q-8 13 -13 34
q-4 20 -4 29q0 47 32.5 80.5t79.5 33.5q25 0 89 -12l-14 -78q-49 9 -74 9q-19 0 -31 -10.5t-12 -25.5q0 -16 13.5 -27t31.5 -10l116 28l17 -79l-281 -66l-17 78zM254 161q39 0 85 6l-2 23q-5 47 -25.5 72t-51.5 25q-29 0 -46 -21t-17 -53q0 -52 57 -52z" />
    <glyph glyph-name="uni0625" unicode="&#x625;" horiz-adv-x="312" arabic-form="isolated" 
d="M72 696l143 8l27 -702l-143 -7zM82 -224q-8 13 -13 34q-4 20 -4 29q0 47 33 80.5t79 33.5q25 0 89 -12l-14 -78q-49 9 -74 9q-19 0 -31 -10.5t-12 -25.5q0 -16 13.5 -27t31.5 -10l116 28l17 -79l-281 -66l-17 78z" />
    <glyph glyph-name="uni0626" unicode="&#x626;" horiz-adv-x="749" arabic-form="isolated" 
d="M328 -247q-85 0 -147.5 38.5t-96 109t-33.5 164.5q0 102 39 213l136 -54q-33 -94 -33 -164q0 -71 34.5 -109t98.5 -38q26 0 63 8q161 37 161 45q0 2 -14 6l-21 6q-44 11 -76 22q-70 26 -105 62t-35 95q0 40 14 85q28 91 92.5 149t148.5 58q31 0 62 -9l65 -18l-37 -155
l-65 18q-13 4 -28 4q-43 0 -67.5 -31t-33.5 -59q-3 -9 -3 -16q0 -12 12 -19.5t48 -19.5l28 -9q57 -18 85.5 -30t46.5 -34t26 -61q3 -17 3 -31q0 -76 -72.5 -131t-201.5 -84q-45 -11 -94 -11zM172 472q-8 13 -13 34q-4 20 -4 29q0 47 33 80.5t80 33.5q23 0 88 -12l-13 -78
q-50 9 -74 9q-19 0 -31 -10t-12 -25q0 -7 1 -10q3 -12 15.5 -20t27.5 -8l116 28l17 -79l-110 -26l-3 -1l-167 -39l-18 78z" />
    <glyph glyph-name="uni0627" unicode="&#x627;" horiz-adv-x="312" arabic-form="isolated" 
d="M72 696l143 8l27 -702l-143 -7z" />
    <glyph glyph-name="uni0628" unicode="&#x628;" horiz-adv-x="985" arabic-form="isolated" 
d="M267 5.5q-59 5.5 -103 24.5q-55 25 -84.5 72.5t-29.5 108.5q0 29 10 71l38 147l138 -41l-39 -154q-4 -13 -4 -24q0 -12 6.5 -19t21.5 -14q20 -10 69.5 -13t202.5 -3h1q148 0 198 4t72 13q15 6 21.5 13.5t6.5 23.5q0 13 -6 35l-38 139l138 41l38 -139q11 -38 11 -79
q0 -62 -29 -110t-84 -72q-44 -20 -105 -25t-223 -5h-1v0v0v0v0h-10q-157 0 -216 5.5zM422 -78h141v-142h-141v142z" />
    <glyph glyph-name="uni0629" unicode="&#x629;" horiz-adv-x="510" arabic-form="isolated" 
d="M152.5 26q-47.5 29 -75 78t-27.5 107q0 49 23 98.5t64 89.5l10 10l-24 22l99 117l136 -125q53 -50 77.5 -100t24.5 -112q0 -58 -27.5 -107t-74.5 -78t-102 -29q-56 0 -103.5 29zM111 697h260v-126h-260v126zM208.5 170.5q18.5 -16.5 47.5 -16.5t47 16.5t18 40.5
q0 21 -11.5 40.5t-47.5 51.5l-8 8l-10 -10q-32 -32 -43 -51t-11 -39q0 -24 18.5 -40.5z" />
    <glyph glyph-name="uni062A" unicode="&#x62a;" horiz-adv-x="985" arabic-form="isolated" 
d="M267 5.5q-59 5.5 -103 24.5q-55 25 -84.5 72.5t-29.5 108.5q0 29 10 71l38 147l138 -41l-39 -154q-4 -13 -4 -24q0 -12 6.5 -19t21.5 -14q20 -10 69.5 -13t202.5 -3h1q148 0 198 4t72 13q15 6 21.5 13.5t6.5 23.5q0 13 -6 35l-38 139l138 41l38 -139q11 -38 11 -79
q0 -62 -29 -110t-84 -72q-44 -20 -105 -25t-223 -5h-1v0v0v0v0h-10q-157 0 -216 5.5zM363 507h259v-126h-259v126z" />
    <glyph glyph-name="uni062B" unicode="&#x62b;" horiz-adv-x="985" arabic-form="isolated" 
d="M267 5.5q-59 5.5 -103 24.5q-55 25 -84.5 72.5t-29.5 108.5q0 29 10 71l38 147l138 -41l-39 -154q-4 -13 -4 -24q0 -12 6.5 -19t21.5 -14q20 -10 69.5 -13t202.5 -3h1q148 0 198 4t72 13q15 6 21.5 13.5t6.5 23.5q0 13 -6 35l-38 139l138 41l38 -139q11 -38 11 -79
q0 -62 -29 -110t-84 -72q-44 -20 -105 -25t-223 -5h-1v0v0v0v0h-10q-157 0 -216 5.5zM352 520h81v95h120v-95h79l1 -137h-127h-29h-126z" />
    <glyph glyph-name="uni062C" unicode="&#x62c;" horiz-adv-x="738" arabic-form="isolated" 
d="M344 -357q-66 0 -123.5 27.5t-99.5 77.5t-60 116q-11 38 -11 83q0 104 68 186t190 115l190 48l-145 71q-22 11 -45 11q-24 0 -44 -11.5t-32 -33.5l-17 -31l-125 79l20 35q33 60 84.5 92t110.5 32q62 0 117 -32l257 -144l-20 -185l-314 -86q-76 -21 -113.5 -59t-37.5 -88
q0 -19 4 -35q12 -47 53.5 -76.5t95.5 -29.5q25 0 49 7l253 70l37 -155l-258 -72q-43 -12 -84 -12zM351 36h142v-142h-142v142z" />
    <glyph glyph-name="uni062D" unicode="&#x62d;" horiz-adv-x="738" arabic-form="isolated" 
d="M347 -355q-101 0 -179.5 59.5t-106.5 159.5q-11 38 -11 83q0 104 68 186t190 115l190 48l-145 71q-22 11 -44 11q-23 0 -43.5 -12t-33.5 -33l-17 -31l-125 79l20 35q36 59 87.5 91t109.5 32q59 0 115 -31l257 -144l-20 -185l-314 -86q-76 -20 -113.5 -58.5t-37.5 -88.5
q0 -19 4 -35q12 -47 54 -76t96 -29q24 0 48 6l253 70l37 -155l-258 -72q-39 -10 -81 -10z" />
    <glyph glyph-name="uni062E" unicode="&#x62e;" horiz-adv-x="738" arabic-form="isolated" 
d="M347 -355q-101 0 -179.5 59.5t-106.5 159.5q-11 38 -11 83q0 104 68 186t190 115l190 48l-145 71q-22 11 -44 11q-23 0 -43.5 -12t-33.5 -33l-17 -31l-125 79l20 35q36 59 87.5 91t109.5 32q59 0 115 -31l257 -144l-20 -185l-314 -86q-76 -20 -113.5 -58.5t-37.5 -88.5
q0 -19 4 -35q12 -47 54 -76t96 -29q24 0 48 6l253 70l37 -155l-258 -72q-39 -10 -81 -10zM240 747h142v-142h-142v142z" />
    <glyph glyph-name="uni062F" unicode="&#x62f;" horiz-adv-x="574" arabic-form="isolated" 
d="M142.5 20.5q-41.5 20.5 -65 55t-23.5 74.5q-1 13 -1 64h132l1 -37q1 -9 6.5 -12.5t18.5 -3.5h130q40 0 40 24q0 11 -4 20q-18 48 -60.5 120t-91.5 143l116 95q60 -82 109.5 -169.5t65.5 -151.5q7 -28 7 -59q0 -52 -24.5 -93.5t-70 -65.5t-107.5 -24h-85q-52 0 -93.5 20.5
z" />
    <glyph glyph-name="uni0630" unicode="&#x630;" horiz-adv-x="574" arabic-form="isolated" 
d="M142.5 20.5q-41.5 20.5 -65 55t-23.5 74.5q-1 13 -1 64h132l1 -37q1 -9 6.5 -12.5t18.5 -3.5h130q40 0 40 24q0 11 -4 20q-18 48 -60.5 120t-91.5 143l116 95q60 -82 109.5 -169.5t65.5 -151.5q7 -28 7 -59q0 -52 -24.5 -93.5t-70 -65.5t-107.5 -24h-85q-52 0 -93.5 20.5
zM217 752h142v-142h-142v142z" />
    <glyph glyph-name="uni0631" unicode="&#x631;" horiz-adv-x="377" arabic-form="isolated" 
d="M0 -100l69 19q66 19 90.5 37t24.5 53q0 6 -2 22l-40 287l141 21l29 -208l11 -82q4 -25 4 -53q0 -93 -53 -146.5t-167 -85.5l-69 -19z" />
    <glyph glyph-name="uni0632" unicode="&#x632;" horiz-adv-x="377" arabic-form="isolated" 
d="M0 -100l69 19q66 19 90.5 37t24.5 53q0 6 -2 22l-40 287l141 21l29 -208l11 -82q4 -25 4 -53q0 -93 -53 -146.5t-167 -85.5l-69 -19zM134 579h142v-141h-142v141z" />
    <glyph glyph-name="uni0633" unicode="&#x633;" horiz-adv-x="1240" arabic-form="isolated" 
d="M870 44q-49 -44 -122 -44q-31 0 -58 9q0 -102 -65.5 -158t-202.5 -87q-45 -11 -95 -11q-85 0 -147.5 38.5t-95.5 109t-33 163.5q0 103 39 214l136 -54q-33 -96 -33 -164q0 -71 34.5 -109t98.5 -38q26 0 63 8q67 15 98.5 25.5t45.5 26.5t14 44q0 7 -2 25l-41 275l141 23
l17 -114q10 -38 28 -51.5t58 -13.5q34 0 45 10t11 32v124h134v-124q0 -23 11.5 -32.5t40.5 -9.5q30 0 43.5 9t13.5 32q0 16 -6 38l-40 149l138 41l40 -149q11 -38 11 -79q0 -59 -25 -104.5t-70.5 -71.5t-104.5 -26q-71 0 -120 44z" />
    <glyph glyph-name="uni0634" unicode="&#x634;" horiz-adv-x="1240" arabic-form="isolated" 
d="M870 44q-49 -44 -122 -44q-31 0 -58 9q0 -102 -65.5 -158t-202.5 -87q-45 -11 -95 -11q-85 0 -147.5 38.5t-95.5 109t-33 163.5q0 103 39 214l136 -54q-33 -96 -33 -164q0 -71 34.5 -109t98.5 -38q26 0 63 8q67 15 98.5 25.5t45.5 26.5t14 44q0 7 -2 25l-41 275l141 23
l17 -114q10 -38 28 -51.5t58 -13.5q34 0 45 10t11 32v124h134v-124q0 -23 11.5 -32.5t40.5 -9.5q30 0 43.5 9t13.5 32q0 16 -6 38l-40 149l138 41l40 -149q11 -38 11 -79q0 -59 -25 -104.5t-70.5 -71.5t-104.5 -26q-71 0 -120 44zM722 586h80v96h121v-96h79l1 -136h-127h-29
h-126z" />
    <glyph glyph-name="uni0635" unicode="&#x635;" horiz-adv-x="1300" arabic-form="isolated" 
d="M690 3q-2 -99 -67.5 -153t-200.5 -86q-45 -11 -95 -11q-85 0 -147.5 38.5t-95.5 109t-33 163.5q0 103 39 214l136 -54q-33 -96 -33 -164q0 -71 34.5 -109t98.5 -38q26 0 63 8q67 15 98.5 25.5t45.5 26.5t14 44q0 7 -2 25l-41 275l141 23l16 -110l5 -29q4 -23 12 -31.5
t28 -8.5h8l60 82q58 79 94 120t76 63t91 22q60 0 109 -31t77.5 -84t28.5 -117q0 -57 -29.5 -107t-79 -79.5t-106.5 -29.5h-322q-12 0 -23 3zM1035 161q31 0 51 18t20 45q0 26 -18.5 44.5t-48.5 18.5q-21 0 -39 -10.5t-41 -36.5t-61 -79h137z" />
    <glyph glyph-name="uni0636" unicode="&#x636;" horiz-adv-x="1300" arabic-form="isolated" 
d="M690 3q-2 -99 -67.5 -153t-200.5 -86q-45 -11 -95 -11q-85 0 -147.5 38.5t-95.5 109t-33 163.5q0 103 39 214l136 -54q-33 -96 -33 -164q0 -71 34.5 -109t98.5 -38q26 0 63 8q67 15 98.5 25.5t45.5 26.5t14 44q0 7 -2 25l-41 275l141 23l16 -110l5 -29q4 -23 12 -31.5
t28 -8.5h8l60 82q58 79 94 120t76 63t91 22q60 0 109 -31t77.5 -84t28.5 -117q0 -57 -29.5 -107t-79 -79.5t-106.5 -29.5h-322q-12 0 -23 3zM1035 161q31 0 51 18t20 45q0 26 -18.5 44.5t-48.5 18.5q-21 0 -39 -10.5t-41 -36.5t-61 -79h137zM976 688h142v-141h-142v141z" />
    <glyph glyph-name="uni0637" unicode="&#x637;" horiz-adv-x="727" arabic-form="isolated" 
d="M50 161h92l28 38l-20 497l143 8l13 -331q34 38 72 56.5t85 18.5q60 0 109 -31t77 -84t28 -117q0 -57 -29.5 -107t-78.5 -79.5t-106 -29.5h-413v161zM467 161q30 0 48 18t18 45q0 26 -18 44.5t-48 18.5q-21 0 -41 -13.5t-57 -52.5l-60 -60h158z" />
    <glyph glyph-name="uni0638" unicode="&#x638;" horiz-adv-x="727" arabic-form="isolated" 
d="M50 161h92l28 38l-20 497l143 8l13 -331q34 38 72 56.5t85 18.5q60 0 109 -31t77 -84t28 -117q0 -57 -29.5 -107t-78.5 -79.5t-106 -29.5h-413v161zM467 161q30 0 48 18t18 45q0 26 -18 44.5t-48 18.5q-21 0 -41 -13.5t-57 -52.5l-60 -60h158zM412 690h142v-142h-142v142
z" />
    <glyph glyph-name="uni0639" unicode="&#x639;" horiz-adv-x="654" arabic-form="isolated" 
d="M310 -275q-70 0 -129.5 35t-95 96.5t-35.5 135.5q0 71 34.5 131.5t94.5 96.5q-20 33 -27 73q-4 20 -4 43q0 53 22.5 99.5t62.5 77.5t91 40q9 2 30 2q59 0 149 -23l-37 -156q-89 24 -117 18q-27 -4 -43 -20t-16 -38q0 -26 21 -44t50 -18q9 0 13 1l170 31l25 -159l-267 -49
q-50 -8 -79.5 -37.5t-29.5 -68.5q0 -31 17.5 -56.5t47 -39t62.5 -10.5l269 28l15 -161l-269 -27q-9 -1 -25 -1z" />
    <glyph glyph-name="uni063A" unicode="&#x63a;" horiz-adv-x="654" arabic-form="isolated" 
d="M310 -275q-70 0 -129.5 35t-95 96.5t-35.5 135.5q0 71 34.5 131.5t94.5 96.5q-20 33 -27 73q-4 20 -4 43q0 53 22.5 99.5t62.5 77.5t91 40q9 2 30 2q59 0 149 -23l-37 -156q-89 24 -117 18q-27 -4 -43 -20t-16 -38q0 -26 21 -44t50 -18q9 0 13 1l170 31l25 -159l-267 -49
q-50 -8 -79.5 -37.5t-29.5 -68.5q0 -31 17.5 -56.5t47 -39t62.5 -10.5l269 28l15 -161l-269 -27q-9 -1 -25 -1zM273 770h142v-141h-142v141z" />
    <glyph glyph-name="uni0641" unicode="&#x641;" horiz-adv-x="993" arabic-form="isolated" 
d="M320.5 2q-56.5 2 -91 8.5t-65.5 19.5q-55 25 -84.5 72.5t-29.5 108.5q0 29 10 71l38 147l138 -41l-39 -154q-4 -13 -4 -24q0 -12 6.5 -19t21.5 -14q20 -10 69.5 -13t202.5 -3h182q62 0 88 3t34.5 12t6.5 30q-46 -2 -92 -2q-84 0 -135 48t-52 132q0 98 47 163.5t136 72.5
q60 4 108.5 -23t78.5 -79.5t34 -121.5l13 -186q1 -8 1 -24q0 -95 -61.5 -140.5t-208.5 -45.5h-180v0v0h-5q-111 0 -167.5 2zM653 847h142v-141h-142v141zM712 352q50 0 80 3l-2 29q-4 45 -23 68.5t-50 23.5q-29 0 -45.5 -20.5t-16.5 -52.5q0 -51 57 -51z" />
    <glyph glyph-name="uni0642" unicode="&#x642;" horiz-adv-x="774" arabic-form="isolated" 
d="M327 -247q-85 0 -147.5 38.5t-95.5 109t-33 163.5q0 103 39 214l136 -54q-33 -96 -33 -164q0 -71 34.5 -109t98.5 -38q26 0 63 8q101 21 145.5 38.5t43.5 43.5l-1 13q-58 -7 -97 -7q-58 0 -103.5 27.5t-71.5 77t-26 111.5q0 61 27 114.5t74.5 85.5t106.5 32q87 0 146 -66
t71 -172l17 -162q3 -24 3 -47q0 -72 -30.5 -117t-94.5 -74.5t-177 -54.5q-45 -11 -95 -11zM347 651h260v-126h-260v126zM480 170q36 0 85 7l-2 22q-5 47 -25 72t-51 25q-30 0 -47 -21t-17 -53q0 -52 57 -52z" />
    <glyph glyph-name="uni0643" unicode="&#x643;" horiz-adv-x="921" arabic-form="isolated" 
d="M322.5 2q-57.5 2 -92.5 8.5t-66 19.5q-55 25 -84.5 72.5t-29.5 108.5q0 29 10 71l38 147l138 -41l-39 -154q-4 -13 -4 -24q0 -12 6.5 -19t21.5 -14q20 -10 69.5 -13t202.5 -3h178q34 0 46 10t11 30l-19 495l143 8l19 -496q3 -59 -21 -106t-70 -74.5t-109 -27.5h-178
q-113 0 -170.5 2zM401 374h52q7 0 7 3q0 2 -5 7l-46 45l13 53l98 33l20 -60l-50 -17l35 -36q16 -15 16 -38q0 -22 -14 -38t-37 -16h-89v64z" />
    <glyph glyph-name="uni0644" unicode="&#x644;" horiz-adv-x="736" arabic-form="isolated" 
d="M324 -249q-84 0 -146 39t-95 109.5t-33 163.5q0 103 39 213l136 -53q-33 -94 -33 -163q0 -72 34 -111t97 -39q30 0 64 9q76 20 105.5 31.5t41 33t9.5 66.5l-25 646l143 8l25 -646q3 -89 -23.5 -145.5t-84.5 -90.5t-157 -58q-55 -13 -97 -13z" />
    <glyph glyph-name="uni0645" unicode="&#x645;" horiz-adv-x="607" arabic-form="isolated" 
d="M50 210l98 65l27 -14l40 79q24 46 65.5 72t89.5 26q43 0 83 -21q49 -26 76 -78.5t27 -117.5q0 -77 -37 -147q-20 -37 -53.5 -58.5t-71.5 -21.5q-33 0 -64 16l-137 70l20 -375l-143 -5zM406 142q25 52 25 83q0 36 -29 53q-12 6 -24 6q-17 0 -32.5 -13t-28.5 -38l-18 -35z
" />
    <glyph glyph-name="uni0646" unicode="&#x646;" horiz-adv-x="740" arabic-form="isolated" 
d="M327 -247q-85 0 -147.5 38.5t-95.5 109t-33 163.5q0 103 39 214l136 -54q-33 -96 -33 -164q0 -71 34.5 -109t98.5 -38q26 0 63 8q67 15 98.5 25.5t45.5 26.5t14 44q0 7 -2 25l-41 275l141 23l41 -276q4 -25 4 -54q0 -103 -65 -159t-203 -87q-45 -11 -95 -11zM284 420h142
v-142h-142v142z" />
    <glyph glyph-name="uni0647" unicode="&#x647;" horiz-adv-x="510" arabic-form="isolated" 
d="M152.5 26q-47.5 29 -75 78t-27.5 107q0 49 23 98.5t64 89.5l10 10l-24 22l99 117l136 -125q53 -50 77.5 -100t24.5 -112q0 -58 -27.5 -107t-74.5 -78t-102 -29q-56 0 -103.5 29zM208.5 170.5q18.5 -16.5 47.5 -16.5t47 16.5t18 40.5q0 21 -11.5 40.5t-47.5 51.5l-8 8
l-10 -10q-32 -32 -43 -51t-11 -39q0 -24 18.5 -40.5z" />
    <glyph glyph-name="uni0648" unicode="&#x648;" horiz-adv-x="548" arabic-form="isolated" 
d="M268 -64q47 13 65.5 28.5t19.5 42.5q-49 -7 -99 -7q-58 0 -103.5 27.5t-71.5 76.5t-26 111t27 115.5t74.5 85.5t106.5 32q58 0 104.5 -30t76 -84.5t36.5 -124.5l17 -162q3 -25 3 -47q0 -77 -36 -124t-111 -76t-211 -56l-29 157q110 22 157 35zM254 161q39 0 85 6l-2 23
q-5 47 -25.5 72t-51.5 25q-29 0 -46 -21t-17 -53q0 -52 57 -52z" />
    <glyph glyph-name="uni0649" unicode="&#x649;" horiz-adv-x="749" arabic-form="isolated" 
d="M328 -247q-85 0 -147.5 38.5t-96 109t-33.5 164.5q0 102 39 213l136 -54q-33 -94 -33 -164q0 -71 34.5 -109t98.5 -38q26 0 63 8q161 37 161 45q0 2 -14 6l-21 6q-44 11 -76 22q-70 26 -105 62t-35 95q0 40 14 85q28 91 92.5 149t148.5 58q31 0 62 -9l65 -18l-37 -155
l-65 18q-13 4 -28 4q-43 0 -67.5 -31t-33.5 -59q-3 -9 -3 -16q0 -12 12 -19.5t48 -19.5l28 -9q57 -18 85.5 -30t46.5 -34t26 -61q3 -17 3 -31q0 -76 -72.5 -131t-201.5 -84q-45 -11 -94 -11z" />
    <glyph glyph-name="uni064A" unicode="&#x64a;" horiz-adv-x="749" arabic-form="isolated" 
d="M328 -247q-85 0 -147.5 38.5t-96 109t-33.5 164.5q0 102 39 213l136 -54q-33 -94 -33 -164q0 -71 34.5 -109t98.5 -38q26 0 63 8q161 37 161 45q0 2 -14 6l-21 6q-44 11 -76 22q-70 26 -105 62t-35 95q0 40 14 85q28 91 92.5 149t148.5 58q31 0 62 -9l65 -18l-37 -155
l-65 18q-13 4 -28 4q-43 0 -67.5 -31t-33.5 -59q-3 -9 -3 -16q0 -12 12 -19.5t48 -19.5l28 -9q57 -18 85.5 -30t46.5 -34t26 -61q3 -17 3 -31q0 -76 -72.5 -131t-201.5 -84q-45 -11 -94 -11zM245 -300h259v-126h-259v126z" />
    <glyph glyph-name="uni066E.init" unicode="&#x66e;" horiz-adv-x="343" 
d="M-5 161h79q40 0 58 9.5t18 34.5q0 14 -6 35l-40 149l138 41l40 -149q11 -44 11 -78q0 -60 -27 -106t-77 -71.5t-115 -25.5h-79v161z" />
    <glyph glyph-name="uni066E.medi" unicode="&#x66e;" horiz-adv-x="309" 
d="M-5 161h63q34 0 46 7t10 24v4l-11 123l144 15l11 -123v-5q3 -29 13 -37t43 -8l9 -81l-9 -80q-77 0 -127 38q-52 -38 -129 -38h-63v161z" />
    <glyph glyph-name="uni066E.fina" unicode="&#x66e;" horiz-adv-x="990" 
d="M320.5 2q-56.5 2 -91 8.5t-65.5 19.5q-55 25 -84.5 72.5t-29.5 108.5q0 29 10 71l38 147l138 -41l-39 -154q-4 -13 -4 -24q0 -12 6.5 -19t21.5 -14q20 -10 69.5 -13t202.5 -3h236q36 0 47.5 7.5t9.5 27.5l-11 123l143 15l11 -123v-5q3 -29 13 -37t43 -8h11l9 -81l-9 -80
h-11q-78 0 -127 38q-52 -38 -129 -38h-236v0v0h-5q-111 0 -167.5 2z" />
    <glyph glyph-name="uni066F.fina" unicode="&#x66f;" horiz-adv-x="759" 
d="M327 -247q-85 0 -147.5 38.5t-95.5 109t-33 163.5q0 103 39 214l136 -54q-33 -96 -33 -164q0 -71 34.5 -109t98.5 -38q26 0 63 8q88 19 138 35.5t49 36.5v7h-97q-60 0 -105.5 26.5t-70.5 75.5t-25 114q0 61 27 114.5t74.5 85.5t106.5 32q58 0 105 -30.5t76 -85t36 -124.5
l5 -47h56l9 -81l-9 -80h-42v-16q-3 -62 -36 -102.5t-95.5 -67t-168.5 -50.5q-45 -11 -95 -11zM434 172.5q12 -11.5 45 -11.5h84l-3 30q-5 48 -24.5 72t-50.5 24q-29 0 -46 -21t-17 -53q0 -29 12 -40.5z" />
    <glyph glyph-name="uni0671" unicode="&#x671;" horiz-adv-x="325" arabic-form="isolated" 
d="M86 597l143 7l22 -602l-143 -7zM26 697.5q19 15.5 42 19.5l32 44q34 46 61 70t66 24q44 0 74 -32.5t30 -80.5q0 -42 -31.5 -73.5t-72.5 -31.5h-139q-12 0 -19 -6t-25 -29l-61 46q24 34 43 49.5zM227 718q13 0 23.5 7.5t10.5 21.5q0 13 -9.5 21.5t-24.5 8.5q-16 0 -29 -10
t-34 -38l-8 -11h71z" />
    <glyph glyph-name="uni0679" unicode="&#x679;" horiz-adv-x="985" arabic-form="isolated" 
d="M267 5.5q-59 5.5 -103 24.5q-55 25 -84.5 72.5t-29.5 108.5q0 29 10 71l38 147l138 -41l-39 -154q-4 -13 -4 -24q0 -12 6.5 -19t21.5 -14q20 -10 69.5 -13t202.5 -3h1q148 0 198 4t72 13q15 6 21.5 13.5t6.5 23.5q0 13 -6 35l-38 139l138 41l38 -139q11 -38 11 -79
q0 -62 -29 -110t-84 -72q-44 -20 -105 -25t-223 -5h-1v0v0v0v0h-10q-157 0 -216 5.5zM361 427h42l13 18l-9 199l68 3l6 -119q33 33 73 33q43 0 71 -31t28 -77q0 -41 -29.5 -71t-69.5 -30h-193v75zM554 427q12 0 22 8.5t10 17.5q0 14 -8.5 23t-23.5 9q-14 0 -25.5 -11
t-37.5 -47h63z" />
    <glyph glyph-name="uni067E" unicode="&#x67e;" horiz-adv-x="985" arabic-form="isolated" 
d="M267 5.5q-59 5.5 -103 24.5q-55 25 -84.5 72.5t-29.5 108.5q0 29 10 71l38 147l138 -41l-39 -154q-4 -13 -4 -24q0 -12 6.5 -19t21.5 -14q20 -10 69.5 -13t202.5 -3h1q148 0 198 4t72 13q15 6 21.5 13.5t6.5 23.5q0 13 -6 35l-38 139l138 41l38 -139q11 -38 11 -79
q0 -62 -29 -110t-84 -72q-44 -20 -105 -25t-223 -5h-1v0v0v0v0h-10q-157 0 -216 5.5zM485 -78h29h127l-1 -136h-79v-96h-120v96h-81l-1 136h126z" />
    <glyph glyph-name="uni0686" unicode="&#x686;" horiz-adv-x="738" arabic-form="isolated" 
d="M344 -357q-66 0 -123.5 27.5t-99.5 77.5t-60 116q-11 38 -11 83q0 104 68 186t190 115l190 48l-145 71q-22 11 -45 11q-24 0 -44 -11.5t-32 -33.5l-17 -31l-125 79l20 35q33 60 84.5 92t110.5 32q62 0 117 -32l257 -144l-20 -185l-314 -86q-76 -20 -113.5 -58.5
t-37.5 -88.5q0 -19 4 -35q12 -47 53.5 -76.5t95.5 -29.5q25 0 49 7l253 70l37 -155l-258 -72q-43 -12 -84 -12zM406 62v0l121 35l32 -112l-64 -18l22 -78l-99 -29l-22 78l-66 -19l-33 112z" />
    <glyph glyph-name="uni0695.fina" unicode="&#x695;" horiz-adv-x="349" 
d="M327 1q1 -95 -52 -150t-168 -87l-69 -19l-38 155l69 19q66 19 90.5 37t24.5 53q0 6 -2 22l-40 287l141 21l5 -33q10 -60 18 -102q5 -27 13.5 -35t24.5 -8h5l9 -81l-9 -80h-5zM118 -317l28 -127l28 127h80l-72 -208h-72l-72 208h80z" />
    <glyph glyph-name="uni0698" unicode="&#x698;" horiz-adv-x="392" arabic-form="isolated" 
d="M0 -100l69 19q66 19 90.5 37t24.5 53q0 6 -2 22l-40 287l141 21l29 -208l11 -82q4 -25 4 -53q0 -93 -53 -146.5t-167 -85.5l-69 -19zM59 566h81v95h121v-95h78l1 -137h-126h-30h-126z" />
    <glyph glyph-name="uni06A1.init" unicode="&#x6a1;" horiz-adv-x="500" 
d="M-5 161h186q63 0 89 3t34.5 12t6.5 31q-36 -3 -93 -3q-85 0 -135.5 48.5t-50.5 134.5q0 97 47 161.5t136 71.5q60 4 108.5 -23t78 -79.5t34.5 -121.5l12 -186q1 -9 1 -26q0 -94 -61.5 -139t-208.5 -45h-184v161zM176 365.5q14 -13.5 42 -13.5q51 0 81 3l-2 29
q-5 45 -24 68.5t-49 23.5q-29 0 -45.5 -20.5t-16.5 -52.5q0 -24 14 -37.5z" />
    <glyph glyph-name="uni06A1.medi" unicode="&#x6a1;" horiz-adv-x="521" 
d="M-5 161h65h19q-26 39 -22 74l6 59q5 54 33.5 97t73.5 67t97 24q59 0 106.5 -32.5t73 -85t22.5 -111.5l-3 -47q-1 -22 -15 -45h75l9 -81l-9 -80h-76q-88 0 -188 36q-103 -36 -202 -36h-65v161zM258 189q53 15 65 34l5 32q3 25 -15.5 46t-46.5 21q-24 0 -42.5 -15
t-20.5 -39l-3 -39q21 -25 58 -40z" />
    <glyph glyph-name="uni06A1.fina" unicode="&#x6a1;" horiz-adv-x="1014" 
d="M320.5 2q-56.5 2 -91 8.5t-65.5 19.5q-55 25 -84.5 72.5t-29.5 108.5q0 29 10 71l38 147l138 -41l-39 -154q-4 -13 -4 -24q0 -12 6.5 -19t21.5 -14q20 -10 69.5 -13t202.5 -3h61h18q-26 39 -22 74l6 59q5 54 33.5 97t74 67t97.5 24q59 0 106.5 -32.5t72.5 -85t22 -111.5
l-3 -47q-1 -21 -14 -45h74l9 -81l-9 -80h-75q-88 0 -188 36q-49 -17 -102 -26.5t-100 -9.5h-61v0v0h-5q-111 0 -167.5 2zM752 189q52 15 64 34l5 32q3 25 -15.5 46t-45.5 21q-25 0 -43.5 -15t-20.5 -39l-3 -39q21 -25 59 -40z" />
    <glyph glyph-name="uni06A4" unicode="&#x6a4;" horiz-adv-x="993" arabic-form="isolated" 
d="M320.5 2q-56.5 2 -91 8.5t-65.5 19.5q-55 25 -84.5 72.5t-29.5 108.5q0 29 10 71l38 147l138 -41l-39 -154q-4 -13 -4 -24q0 -12 6.5 -19t21.5 -14q20 -10 69.5 -13t202.5 -3h182q62 0 88 3t34.5 12t6.5 30q-46 -2 -92 -2q-84 0 -135 48t-52 132q0 98 47 163.5t136 72.5
q60 4 108.5 -23t78.5 -79.5t34 -121.5l13 -186q1 -8 1 -24q0 -95 -61.5 -140.5t-208.5 -45.5h-180v0v0h-5q-111 0 -167.5 2zM587 824h81v96h120v-96h79l1 -136h-127h-29h-126zM712 352q50 0 80 3l-2 29q-4 45 -23 68.5t-50 23.5q-29 0 -45.5 -20.5t-16.5 -52.5q0 -51 57 -51
z" />
    <glyph glyph-name="uni06A9" unicode="&#x6a9;" horiz-adv-x="986" arabic-form="isolated" 
d="M320.5 2q-56.5 2 -91 8.5t-65.5 19.5q-55 25 -84.5 72.5t-29.5 108.5q0 29 10 71l38 147l138 -41l-39 -154q-4 -13 -4 -24q0 -12 6.5 -19t21.5 -14q20 -10 69.5 -13t202.5 -3h218q18 0 24 6q8 7 8 17q0 11 -7 21l-220 311l33 122l361 133l51 -151l-266 -97l149 -221
q47 -70 47 -140q0 -56 -31 -96q-22 -31 -60.5 -48.5t-89.5 -17.5h-217v0v0h-5q-111 0 -167.5 2z" />
    <glyph glyph-name="uni06AF" unicode="&#x6af;" horiz-adv-x="986" arabic-form="isolated" 
d="M320.5 2q-56.5 2 -91 8.5t-65.5 19.5q-55 25 -84.5 72.5t-29.5 108.5q0 29 10 71l38 147l138 -41l-39 -154q-4 -13 -4 -24q0 -12 6.5 -19t21.5 -14q20 -10 69.5 -13t202.5 -3h218q18 0 24 6q8 7 8 17q0 11 -7 21l-220 311l33 122l361 133l51 -151l-266 -97l149 -221
q47 -70 47 -140q0 -56 -31 -96q-22 -31 -60.5 -48.5t-89.5 -17.5h-217v0v0h-5q-111 0 -167.5 2zM780 912l35 -97l-244 -88l-35 97z" />
    <glyph glyph-name="uni06B5.init" unicode="&#x6b5;" horiz-adv-x="270" 
d="M-5 161h23q34 0 46 10t10 30l-19 495l144 8l19 -496q3 -59 -21 -106t-70 -74.5t-109 -27.5h-23v161zM94 963l27 -127l29 127h80l-73 -208h-72l-71 208h80z" />
    <glyph glyph-name="uni06B5.medi" unicode="&#x6b5;" horiz-adv-x="289" 
d="M148 42q-51 -42 -130 -42h-23v161h23q34 0 46 10t10 30l-19 495l144 8l19 -496v-1q4 -27 17 -36.5t39 -9.5h20l9 -81l-9 -80h-20q-83 0 -126 42zM97 969l27 -127l28 127h81l-73 -208h-72l-72 208h81z" />
    <glyph glyph-name="uni06B5.fina" unicode="&#x6b5;" horiz-adv-x="748" 
d="M685 5q-5 -70 -35.5 -115.5t-85.5 -75t-143 -50.5q-55 -13 -97 -13q-84 0 -146 39t-95 109.5t-33 163.5q0 103 39 213l136 -53q-33 -94 -33 -163q0 -72 34 -111t97 -39q30 0 64 9q76 20 105.5 31.5t41 33t9.5 66.5l-25 646l143 8l19 -485v-3q2 -33 15 -44t42 -11h20
l9 -81l-9 -80h-20q-32 0 -52 5zM554 981l27 -127l29 127h80l-73 -208h-72l-71 208h80z" />
    <glyph glyph-name="uni06C2.fina" unicode="&#x6c2;" horiz-adv-x="545" 
d="M91 -23l-32 109q-11 38 -11 74q0 74 40.5 133t111.5 78l127 35l90 -63l18 -109q7 -41 26 -57t61 -16h28l13 -80l-13 -81h-28q-88 0 -140.5 47.5t-73.5 151.5l-7 39l-56 -19q-52 -18 -52 -66q0 -16 6 -36l30 -95zM176 535q-9 16 -14 34q-4 20 -4 29q0 47 33 81t80 34
q25 0 89 -13l-14 -77q-68 12 -84 8q-15 -4 -24 -13.5t-9 -22.5q0 -14 13 -25t29 -11q6 0 9 1l109 26l17 -78l-110 -26l-5 -1l-165 -39l-17 77z" />
    <glyph glyph-name="uni06C3.fina" unicode="&#x6c3;" horiz-adv-x="545" 
d="M91 -23l-32 109q-11 38 -11 74q0 74 40.5 133t111.5 78l127 35l90 -63l18 -109q7 -41 26 -57t61 -16h28l13 -80l-13 -81h-28q-88 0 -140.5 47.5t-73.5 151.5l-7 39l-56 -19q-52 -18 -52 -66q0 -16 6 -36l30 -95zM153 639h259v-126h-259v126z" />
    <glyph glyph-name="uni06C6" unicode="&#x6c6;" horiz-adv-x="548" arabic-form="isolated" 
d="M268 -64q47 13 65.5 28.5t19.5 42.5q-49 -7 -99 -7q-58 0 -103.5 27.5t-71.5 76.5t-26 111t27 115.5t74.5 85.5t106.5 32q58 0 104.5 -30t76 -84.5t36.5 -124.5l17 -162q3 -25 3 -47q0 -77 -36 -124t-111 -76t-211 -56l-29 157q110 22 157 35zM222 716l27 -127l29 127h80
l-73 -209h-72l-71 209h80zM254 161q39 0 85 6l-2 23q-5 47 -25.5 72t-51.5 25q-29 0 -46 -21t-17 -53q0 -52 57 -52z" />
    <glyph glyph-name="uni06C7" unicode="&#x6c7;" horiz-adv-x="548" arabic-form="isolated" 
d="M268 -64q47 13 65.5 28.5t19.5 42.5q-49 -7 -99 -7q-58 0 -103.5 27.5t-71.5 76.5t-26 111t27 115.5t74.5 85.5t106.5 32q58 0 104.5 -30t76 -84.5t36.5 -124.5l17 -162q3 -25 3 -47q0 -77 -36 -124t-111 -76t-211 -56l-29 157q110 22 157 35zM194 585l-13 51
q-3 14 -3 27q0 36 23 63t63 37q20 4 31 4q43 0 76.5 -26t40.5 -67q2 -16 2 -23q0 -43 -30 -75.5t-82 -46.5l-176 -42l-17 78zM254 161q39 0 85 6l-2 23q-5 47 -25.5 72t-51.5 25q-29 0 -46 -21t-17 -53q0 -52 57 -52zM267 603l17 4q26 6 39.5 18t13.5 28t-11 27t-29 11
q-5 0 -15 -2q-29 -7 -29 -27q0 -2 2 -10z" />
    <glyph glyph-name="uni06CC.init" unicode="&#x6cc;" horiz-adv-x="419" arabic-form="initial" 
d="M-5 161h155q40 0 57.5 9.5t17.5 34.5q0 14 -6 35l-39 149l138 41l41 -157q10 -36 10 -73q0 -59 -27.5 -104.5t-77.5 -70.5t-114 -25h-155v161zM-25 -85h260v-126h-260v126z" />
    <glyph glyph-name="uni06CC.medi" unicode="&#x6cc;" horiz-adv-x="430" arabic-form="medial" 
d="M-5 161h184q36 0 47.5 7.5t9.5 27.5l-11 123l143 15l11 -123l1 -8q2 -27 12.5 -34.5t42.5 -7.5l9 -81l-9 -80q-77 0 -126 38q-54 -38 -130 -38h-184v161zM-30 -87h259v-126h-259v126z" />
    <glyph glyph-name="uni06CC.fina" unicode="&#x6cc;" horiz-adv-x="724" arabic-form="final" 
d="M327 -247q-85 0 -147.5 38.5t-95.5 109t-33 163.5q0 103 39 214l136 -54q-33 -94 -33 -163q0 -71 34.5 -109t99.5 -38q31 0 62 7q71 16 104 28t44 28t8 43q-2 7 -16 13l-112 36l44 153q147 -41 190 -51t78 -10l9 -81l-9 -80l-41 1q0 -93 -63.5 -149t-202.5 -88
q-45 -11 -95 -11z" />
    <glyph glyph-name="uni06CE.init" unicode="&#x6ce;" horiz-adv-x="419" 
d="M145 735l27 -127l28 127h81l-73 -208h-72l-72 208h81zM-25 -85h260v-126h-260v126zM-5 161h155q40 0 57.5 9.5t17.5 34.5q0 14 -6 35l-39 149l138 41l41 -157q10 -36 10 -73q0 -59 -27.5 -104.5t-77.5 -70.5t-114 -25h-155v161z" />
    <glyph glyph-name="uni06CE.medi" unicode="&#x6ce;" horiz-adv-x="430" 
d="M142 621l27 -127l29 127h80l-73 -208h-72l-71 208h80zM-30 -87h259v-126h-259v126zM-5 161h184q36 0 47.5 7.5t9.5 27.5l-11 123l143 15l11 -123l1 -8q2 -27 12.5 -34.5t42.5 -7.5l9 -81l-9 -80q-77 0 -126 38q-54 -38 -130 -38h-184v161z" />
    <glyph glyph-name="uni06CE.fina" unicode="&#x6ce;" horiz-adv-x="724" 
d="M327 -247q-85 0 -147.5 38.5t-95.5 109t-33 163.5q0 103 39 214l136 -54q-33 -94 -33 -163q0 -71 34.5 -109t99.5 -38q31 0 62 7q71 16 104 28t44 28t8 43q-2 7 -16 13l-112 36l44 153q147 -41 190 -51t78 -10l9 -81l-9 -80l-41 1q0 -93 -63.5 -149t-202.5 -88
q-45 -11 -95 -11zM251 494l27 -127l29 127h80l-73 -208h-72l-71 208h80z" />
    <glyph glyph-name="uni06D5.fina" unicode="&#x6d5;" horiz-adv-x="552" 
d="M244 73q-57 0 -110.5 41t-73.5 100q-10 30 -10 63q0 66 37.5 121.5t97.5 74.5l124 41v32h143v-309q0 -32 25 -54t61 -22h19l9 -81l-9 -80h-19q-54 0 -100.5 24t-78.5 65l-97 -15q-6 -1 -18 -1zM214 242q16 -12 35 -8l60 10v111l-79 -27q-18 -6 -27 -18.5t-9 -27.5
q0 -7 1 -11q3 -17 19 -29z" />
    <glyph glyph-name="uni0671.fina" unicode="&#x671;" horiz-adv-x="289" arabic-form="final" 
d="M165.5 23.5q-44.5 23.5 -66 74.5t-25.5 138l-14 361l143 7l14 -368q2 -40 5.5 -53.5t15.5 -17.5t46 -4h10l9 -81l-9 -80h-10q-74 0 -118.5 23.5zM4 711.5q19 15.5 41 19.5l33 44q24 32 39 49.5t37.5 31t49.5 13.5q44 0 74 -32.5t30 -79.5q0 -43 -31 -74.5t-73 -31.5h-138
q-12 0 -20 -6t-25 -29l-60 46q24 34 43 49.5zM204 732q14 0 24.5 7.5t10.5 21.5q0 13 -10.5 22t-24.5 9q-15 0 -28.5 -10.5t-33.5 -37.5l-9 -12h71z" />
    <glyph glyph-name="uni067E.fina" unicode="&#x67e;" horiz-adv-x="990" arabic-form="final" 
d="M320.5 2q-56.5 2 -91 8.5t-65.5 19.5q-55 25 -84.5 72.5t-29.5 108.5q0 29 10 71l38 147l138 -41l-39 -154q-4 -13 -4 -24q0 -12 6.5 -19t21.5 -14q20 -10 69.5 -13t202.5 -3h236q36 0 47.5 7.5t9.5 27.5l-11 123l143 15l11 -123v-5q3 -29 13 -37t43 -8h11l9 -81l-9 -80
h-11q-78 0 -127 38q-52 -38 -129 -38h-236v0v0h-5q-111 0 -167.5 2zM484 -81h29h127l-1 -136h-78v-96h-121v96h-81l-1 136h126z" />
    <glyph glyph-name="uni067E.init" unicode="&#x67e;" horiz-adv-x="419" arabic-form="initial" 
d="M-5 161h155q40 0 57.5 9.5t17.5 34.5q0 14 -6 35l-39 149l138 41l41 -157q10 -36 10 -73q0 -59 -27.5 -104.5t-77.5 -70.5t-114 -25h-155v161zM93 -81h29h127l-1 -137h-79v-95h-120v95h-81l-1 137h126z" />
    <glyph glyph-name="uni067E.medi" unicode="&#x67e;" horiz-adv-x="430" arabic-form="medial" 
d="M-5 161h184q36 0 47.5 7.5t9.5 27.5l-11 123l143 15l11 -123l1 -8q2 -27 12.5 -34.5t42.5 -7.5l9 -81l-9 -80q-77 0 -126 38q-54 -38 -130 -38h-184v161zM64 -78h29h127l-1 -137h-79v-95h-120v95h-81l-1 137h126z" />
    <glyph glyph-name="uni0679.fina" unicode="&#x679;" horiz-adv-x="990" arabic-form="final" 
d="M320.5 2q-56.5 2 -91 8.5t-65.5 19.5q-55 25 -84.5 72.5t-29.5 108.5q0 29 10 71l38 147l138 -41l-39 -154q-4 -13 -4 -24q0 -12 6.5 -19t21.5 -14q20 -10 69.5 -13t202.5 -3h236q36 0 47.5 7.5t9.5 27.5l-11 123l143 15l11 -123v-5q3 -29 13 -37t43 -8h11l9 -81l-9 -80
h-11q-78 0 -127 38q-52 -38 -129 -38h-236v0v0h-5q-111 0 -167.5 2zM371 400h43l12 17l-9 200l68 3l6 -120q17 18 34.5 26t38.5 8q43 0 71.5 -31t28.5 -77q0 -41 -29.5 -71t-70.5 -30h-193v75zM564 400q12 0 22.5 8.5t10.5 17.5q0 14 -9 23t-24 9q-14 0 -25.5 -11t-37.5 -47
h63z" />
    <glyph glyph-name="uni0679.init" unicode="&#x679;" horiz-adv-x="417" arabic-form="initial" 
d="M-5 161h155q40 0 57.5 9.5t17.5 34.5q0 14 -6 35l-39 149l138 41l41 -157q10 -36 10 -73q0 -59 -27.5 -104.5t-77.5 -70.5t-114 -25h-155v161zM8 561h42l13 18l-9 199l67 3l6 -120q17 18 34.5 26t39.5 8q42 0 70.5 -31t28.5 -77q0 -41 -29.5 -71t-69.5 -30h-193v75z
M201 561q12 0 22 8.5t10 17.5q0 14 -8.5 23t-23.5 9q-14 0 -26 -11t-37 -47h63z" />
    <glyph glyph-name="uni0679.medi" unicode="&#x679;" horiz-adv-x="430" arabic-form="medial" 
d="M-5 161h184q36 0 47.5 7.5t9.5 27.5l-11 123l143 15l11 -123l1 -8q2 -27 12.5 -34.5t42.5 -7.5l9 -81l-9 -80q-77 0 -126 38q-54 -38 -130 -38h-184v161zM22 488h42l12 17l-9 200l68 3l6 -120q17 18 34.5 26t38.5 8q43 0 71.5 -31t28.5 -77q0 -41 -29.5 -71t-70.5 -30
h-192v75zM214 488q12 0 22.5 8.5t10.5 17.5q0 14 -9 23t-24 9q-14 0 -25.5 -11t-37.5 -47h63z" />
    <glyph glyph-name="uni06A4.fina" unicode="&#x6a4;" horiz-adv-x="1014" arabic-form="final" 
d="M320.5 2q-56.5 2 -91 8.5t-65.5 19.5q-55 25 -84.5 72.5t-29.5 108.5q0 29 10 71l38 147l138 -41l-39 -154q-4 -13 -4 -24q0 -12 6.5 -19t21.5 -14q20 -10 69.5 -13t202.5 -3h61h18q-26 39 -22 74l6 59q5 54 33.5 97t74 67t97.5 24q59 0 106.5 -32.5t72.5 -85t22 -111.5
l-3 -47q-1 -21 -14 -45h74l9 -81l-9 -80h-75q-88 0 -188 36q-49 -17 -102 -26.5t-100 -9.5h-61v0v0h-5q-111 0 -167.5 2zM612 689h81v95h120v-95h79l1 -137h-127h-29h-126zM752 189q52 15 64 34l5 32q3 25 -15.5 46t-45.5 21q-25 0 -43.5 -15t-20.5 -39l-3 -39
q21 -25 59 -40z" />
    <glyph glyph-name="uni06A4.init" unicode="&#x6a4;" horiz-adv-x="500" arabic-form="initial" 
d="M-5 161h186q63 0 89 3t34.5 12t6.5 31q-36 -3 -93 -3q-85 0 -135.5 48.5t-50.5 134.5q0 97 47 161.5t136 71.5q60 4 108.5 -23t78 -79.5t34.5 -121.5l12 -186q1 -9 1 -26q0 -94 -61.5 -139t-208.5 -45h-184v161zM89 828h81v96h121v-96h79v-136h-126h-30h-125v136z
M176 365.5q14 -13.5 42 -13.5q51 0 81 3l-2 29q-5 45 -24 68.5t-49 23.5q-29 0 -45.5 -20.5t-16.5 -52.5q0 -24 14 -37.5z" />
    <glyph glyph-name="uni06A4.medi" unicode="&#x6a4;" horiz-adv-x="521" arabic-form="medial" 
d="M-5 161h65h19q-26 39 -22 74l6 59q5 54 33.5 97t73.5 67t97 24q59 0 106.5 -32.5t73 -85t22.5 -111.5l-3 -47q-1 -22 -15 -45h75l9 -81l-9 -80h-76q-88 0 -188 36q-103 -36 -202 -36h-65v161zM111 686h81v95h121v-95h78l1 -137h-126h-30h-126zM258 189q53 15 65 34l5 32
q3 25 -15.5 46t-46.5 21q-24 0 -42.5 -15t-20.5 -39l-3 -39q21 -25 58 -40z" />
    <glyph glyph-name="uni0686.fina" unicode="&#x686;" horiz-adv-x="742" arabic-form="final" 
d="M356 -75l-66 -20l-35 111l109 33l120 37l34 -111l-64 -20l23 -78l-98 -30zM50 -53q0 104 68 186t190 115l190 48l-145 71q-22 11 -44 11q-23 0 -43.5 -12t-33.5 -33l-17 -31l-125 79l20 35q36 59 87.5 91t109.5 32q59 0 115 -31l257 -144l-20 -185h-2q21 -18 53 -18h37
l9 -81l-9 -80h-37q-68 0 -119 38t-75 102l-171 -47q-76 -20 -113.5 -58.5t-37.5 -88.5q0 -19 4 -35q12 -47 54 -76t96 -29q24 0 48 6l253 70l37 -155l-258 -72q-39 -10 -81 -10q-101 0 -179.5 59.5t-106.5 159.5q-11 38 -11 83z" />
    <glyph glyph-name="uni0686.init" unicode="&#x686;" horiz-adv-x="698" arabic-form="initial" 
d="M-5 161h24q89 0 156 4.5t128 19.5l169 40l-145 70q-20 10 -45 10q-24 0 -44 -11t-32 -33l-17 -31l-125 79l20 35q33 60 84.5 92t110.5 32q62 0 117 -32l252 -144l-20 -185l-290 -77q-73 -19 -151 -24.5t-169 -5.5h-23v161zM315 -79h30h126l-1 -137h-78v-95h-121v95h-81
l-1 137h126z" />
    <glyph glyph-name="uni0686.medi" unicode="&#x686;" horiz-adv-x="703" arabic-form="medial" 
d="M-5 161h23q123 1 275 39l175 44l-151 65q-20 10 -41 10q-23 0 -43 -12t-33 -33l-18 -32l-125 79l20 35q34 61 84.5 92t109.5 31t117 -30l255 -134l-18 -151q8 -3 19 -3h64l9 -81l-9 -80h-64q-50 0 -93 25t-69 67l-148 -45q-76 -24 -159 -35.5t-158 -11.5h-22v161z
M301 -78h29h127l-1 -136h-79v-96h-121v96h-80l-1 136h126z" />
    <glyph glyph-name="uni0688.fina" unicode="&#x688;" horiz-adv-x="596" arabic-form="final" 
d="M142.5 20.5q-41.5 20.5 -65 55t-23.5 74.5q-1 13 -1 64h132l1 -37q1 -9 6.5 -12.5t18.5 -3.5h116q47 0 40 32l-3 12l-74 292l140 39l74 -294q9 -36 15 -52t13.5 -22.5t21.5 -6.5h49l9 -81l-9 -80h-49q-65 0 -109 42q-55 -42 -137 -42h-72q-52 0 -93.5 20.5zM198 704h43
l12 17l-9 200l68 3l6 -119q33 33 73 33q43 0 71 -31t28 -77q0 -41 -29.5 -71t-69.5 -30h-193v75zM391 704q12 0 22.5 8.5t10.5 17.5q0 14 -9 23t-24 9q-14 0 -25.5 -11t-37.5 -47h63z" />
    <glyph glyph-name="uni0698.fina" unicode="&#x698;" horiz-adv-x="414" arabic-form="final" 
d="M327 1q1 -95 -52 -150t-168 -87l-69 -19l-38 155l69 19q66 19 90.5 37t24.5 53q0 6 -2 22l-40 287l141 21l5 -33q10 -60 18 -102q5 -27 13.5 -35t24.5 -8h75l9 -81l-9 -80h-75zM64 566h81v95h120v-95h79l1 -137h-127h-29h-126z" />
    <glyph glyph-name="uni0691.fina" unicode="&#x691;" horiz-adv-x="349" arabic-form="final" 
d="M327 1q1 -95 -52 -150t-168 -87l-69 -19l-38 155l69 19q66 19 90.5 37t24.5 53q0 6 -2 22l-40 287l141 21l5 -33q10 -60 18 -102q5 -27 13.5 -35t24.5 -8h5l9 -81l-9 -80h-5zM64 460h43l12 17l-9 200l68 3l6 -119q33 33 73 33q43 0 71 -31t28 -77q0 -41 -29.5 -71
t-69.5 -30h-193v75zM257 460q12 0 22.5 8.5t10.5 17.5q0 14 -9 23t-24 9q-14 0 -25.5 -11t-37.5 -47h63z" />
    <glyph glyph-name="uni06A9.fina" unicode="&#x6a9;" horiz-adv-x="1009" arabic-form="final" 
d="M320.5 2q-56.5 2 -91 8.5t-65.5 19.5q-55 25 -84.5 72.5t-29.5 108.5q0 29 10 71l38 147l138 -41l-39 -154q-4 -13 -4 -24q0 -12 6.5 -19t21.5 -14q20 -10 69.5 -13t202.5 -3h218q18 0 24 6q8 7 8 17q0 11 -7 21l-220 311l33 122l361 133l51 -151l-266 -97l149 -221
l11 -18v0q29 -50 50.5 -76.5t43 -36.5t50.5 -10h14l9 -81l-9 -80h-14q-80 0 -144 59q-23 -28 -60 -43.5t-85 -15.5h-217v0v0h-5q-111 0 -167.5 2z" />
    <glyph glyph-name="uni06A9.init" unicode="&#x6a9;" horiz-adv-x="492" arabic-form="initial" 
d="M-5 161h223q17 0 24 6q8 8 8 18t-7 20l-220 311l32 122l362 133l50 -151l-265 -97l149 -221q47 -70 47 -140q0 -54 -31 -96q-23 -31 -61.5 -48.5t-89.5 -17.5h-221v161z" />
    <glyph glyph-name="uni06A9.medi" unicode="&#x6a9;" horiz-adv-x="515" arabic-form="medial" 
d="M361 59q-23 -28 -60 -43.5t-85 -15.5h-221v161h223q17 0 24 6q8 8 8 18t-7 20l-220 311l32 122l362 133l50 -151l-265 -97l149 -221l16 -26q40 -68 69 -91.5t70 -23.5h14l9 -81l-9 -80h-14q-81 0 -145 59z" />
    <glyph glyph-name="uni06AF.fina" unicode="&#x6af;" horiz-adv-x="1009" arabic-form="final" 
d="M320.5 2q-56.5 2 -91 8.5t-65.5 19.5q-55 25 -84.5 72.5t-29.5 108.5q0 29 10 71l38 147l138 -41l-39 -154q-4 -13 -4 -24q0 -12 6.5 -19t21.5 -14q20 -10 69.5 -13t202.5 -3h218q18 0 24 6q8 7 8 17q0 11 -7 21l-220 311l33 122l361 133l51 -151l-266 -97l149 -221
l11 -18v0q29 -50 50.5 -76.5t43 -36.5t50.5 -10h14l9 -81l-9 -80h-14q-80 0 -144 59q-23 -28 -60 -43.5t-85 -15.5h-217v0v0h-5q-111 0 -167.5 2zM779 911l35 -98l-244 -88l-35 98z" />
    <glyph glyph-name="uni06AF.init" unicode="&#x6af;" horiz-adv-x="492" arabic-form="initial" 
d="M-5 161h223q17 0 24 6q8 8 8 18t-7 20l-220 311l32 122l362 133l50 -151l-265 -97l149 -221q47 -70 47 -140q0 -54 -31 -96q-23 -31 -61.5 -48.5t-89.5 -17.5h-221v161zM292 907l36 -98l-244 -88l-35 98z" />
    <glyph glyph-name="uni06AF.medi" unicode="&#x6af;" horiz-adv-x="515" arabic-form="medial" 
d="M361 59q-23 -28 -60 -43.5t-85 -15.5h-221v161h223q17 0 24 6q8 8 8 18t-7 20l-220 311l32 122l362 133l50 -151l-265 -97l149 -221l16 -26q40 -68 69 -91.5t70 -23.5h14l9 -81l-9 -80h-14q-81 0 -145 59zM292 907l36 -98l-244 -88l-35 98z" />
    <glyph glyph-name="uni06BA.fina" unicode="&#x6ba;" horiz-adv-x="737" arabic-form="final" 
d="M690 3q-2 -99 -67.5 -153t-200.5 -86q-45 -11 -95 -11q-85 0 -147.5 38.5t-95.5 109t-33 163.5q0 103 39 214l136 -54q-33 -96 -33 -164q0 -71 34.5 -109t98.5 -38q26 0 63 8q67 15 98.5 25.5t45.5 26.5t14 44q0 7 -2 25l-41 275l141 23l2 -16l20 -117q4 -26 15 -36
t33 -10h27l9 -81l-9 -80h-22q-15 0 -30 3z" />
    <glyph glyph-name="uni06C1.init" unicode="&#x6c1;" horiz-adv-x="464" arabic-form="initial" 
d="M-5 161h199q40 0 57.5 9.5t17.5 34.5q0 14 -6 35l-39 149l138 41l42 -157q10 -36 10 -72q0 -59 -28 -105t-78 -71t-114 -25h-199v161zM75 -289q0 19 5 34t23 45.5t62 98.5l64 -44q-44 -59 -56 -81q32 -4 54.5 -28.5t22.5 -57.5q0 -37 -26 -63t-61 -26q-37 0 -62.5 26
t-25.5 63v33z" />
    <glyph glyph-name="uni06BE.init" unicode="&#x6be;" horiz-adv-x="685" arabic-form="initial" 
d="M-5 161h64h6q-37 52 -37 119q0 48 21 91q29 63 87 95l37 81l353 -186q51 -26 80.5 -77t29.5 -109q0 -46 -19 -85q-26 -54 -72.5 -84.5t-101.5 -30.5q-40 0 -81 18l-103 48q-91 -41 -200 -41h-64v161zM178 281q0 -13 8 -25t23 -19l48 -25q14 15 26 41q5 12 5 23
q0 15 -8 29t-22 21q-13 8 -29 8q-15 0 -26.5 -7t-17.5 -19q-7 -13 -7 -27zM420 130q12 -6 26 -6t26.5 7t18.5 21q5 10 5 20q0 14 -8.5 27t-24.5 22l-35 18q-5 -28 -16 -52q-9 -20 -23 -41z" />
    <glyph glyph-name="uni06D2.fina" unicode="&#x6d2;" horiz-adv-x="358" arabic-form="final" 
d="M155 -258q-49 31 -77 82.5t-28 109.5q0 59 28.5 111t77.5 84t109 32h98v-161h-106q-27 0 -46 -18.5t-19 -46.5q0 -26 19 -44.5t46 -18.5h365v-161h-358q-60 0 -109 31z" />
    <glyph glyph-name="uni06C7.fina" unicode="&#x6c7;" horiz-adv-x="529" arabic-form="final" 
d="M265.5 -63.5q45.5 12.5 65.5 26t22 37.5h-99q-60 0 -105.5 26.5t-70.5 75.5t-25 114q0 61 27 114.5t74.5 85.5t106.5 32q57 0 103.5 -31t76 -85.5t37.5 -123.5l5 -47h56l9 -81l-9 -80h-3h-38q0 -77 -36 -123t-110.5 -75t-211.5 -58l-29 157q109 23 154.5 35.5zM194 585
l-13 51q-3 14 -3 27q0 36 23 63t63 37q20 4 31 4q43 0 76.5 -26t40.5 -67q2 -16 2 -23q0 -43 -30 -75.5t-82 -46.5l-176 -42l-17 78zM209 172.5q12 -11.5 45 -11.5h84l-3 30q-5 48 -24.5 72t-50.5 24q-29 0 -46 -21t-17 -53q0 -29 12 -40.5zM267 603l17 4q26 6 39.5 18
t13.5 28t-11 27t-29 11q-5 0 -15 -2q-29 -7 -29 -27q0 -2 2 -10z" />
    <glyph glyph-name="uni06C6.fina" unicode="&#x6c6;" horiz-adv-x="529" arabic-form="final" 
d="M265.5 -63.5q45.5 12.5 65.5 26t22 37.5h-99q-60 0 -105.5 26.5t-70.5 75.5t-25 114q0 61 27 114.5t74.5 85.5t106.5 32q57 0 103.5 -31t76 -85.5t37.5 -123.5l5 -47h56l9 -81l-9 -80h-3h-38q0 -77 -36 -123t-110.5 -75t-211.5 -58l-29 157q109 23 154.5 35.5zM234 714
l28 -127l28 127h80l-72 -208h-72l-72 208h80zM209 172.5q12 -11.5 45 -11.5h84l-3 30q-5 48 -24.5 72t-50.5 24q-29 0 -46 -21t-17 -53q0 -29 12 -40.5z" />
    <glyph glyph-name="uni06C9.fina" unicode="&#x6c9;" horiz-adv-x="529" arabic-form="final" 
d="M265.5 -63.5q45.5 12.5 65.5 26t22 37.5h-99q-60 0 -105.5 26.5t-70.5 75.5t-25 114q0 61 27 114.5t74.5 85.5t106.5 32q57 0 103.5 -31t76 -85.5t37.5 -123.5l5 -47h56l9 -81l-9 -80h-3h-38q0 -77 -36 -123t-110.5 -75t-211.5 -58l-29 157q109 23 154.5 35.5zM227 710
h72l72 -208h-80l-28 127l-28 -127h-80zM209 172.5q12 -11.5 45 -11.5h84l-3 30q-5 48 -24.5 72t-50.5 24q-29 0 -46 -21t-17 -53q0 -29 12 -40.5z" />
    <glyph glyph-name="uniFDFC" unicode="&#xfdfc;" horiz-adv-x="1609" arabic-form="isolated" 
d="M1154 -239h-260v126h260v-126zM225 223q-33 -94 -33 -163q0 -72 34 -111t97 -39q30 0 64 9q76 20 105.5 31.5t41 33t9.5 66.5l-25 646l143 8l25 -646q3 -89 -23.5 -145.5t-84.5 -90.5t-157 -58q-55 -13 -97 -13q-84 0 -146 39t-95 109.5t-33 163.5q0 103 39 213zM914 695
l18 -467q2 -41 5 -54.5t15.5 -17.5t46.5 -4h75q40 0 58 9.5t18 34.5q0 14 -6 35l-40 149l138 42l40 -149q11 -38 11 -79q0 -60 -27 -106t-77 -71t-115 -25h-79q-73 0 -116.5 23.5t-64.5 74.5t-25 138l-18 460zM1301 -66q65 18 90 36t25 52q0 7 -2 23l-40 287l142 21l29 -208
l11 -81q4 -25 4 -53q0 -93 -53.5 -147t-167.5 -86l-69 -19l-38 155z" />
    <glyph glyph-name="uni0622.fina" unicode="&#x622;" horiz-adv-x="289" arabic-form="final" 
d="M165.5 23.5q-44.5 23.5 -66 74.5t-25.5 138l-14 361l143 7l14 -368q2 -40 5.5 -53.5t15.5 -17.5t46 -4h10l9 -81l-9 -80h-10q-74 0 -118.5 23.5zM-27 656q0 45 27 72.5t70 27.5q7 0 23 -2l101 -19q5 -1 13 -1q21 0 21 19v4l73 5v-25q0 -45 -27 -72.5t-70 -27.5
q-7 0 -23 2l-101 19q-5 1 -13 1q-21 0 -21 -19v-4l-73 -5v25z" />
    <glyph glyph-name="uni0623.fina" unicode="&#x623;" horiz-adv-x="289" arabic-form="final" 
d="M165.5 23.5q-44.5 23.5 -66 74.5t-25.5 138l-14 361l143 7l14 -368q2 -40 5.5 -53.5t15.5 -17.5t46 -4h10l9 -81l-9 -80h-10q-74 0 -118.5 23.5zM69 746q-8 13 -13 34q-4 20 -4 29q0 47 33 80.5t80 33.5q23 0 88 -12l-13 -78q-50 9 -75 9q-19 0 -31 -10.5t-12 -25.5
q0 -6 1 -9q3 -12 16 -20t28 -8l116 28l17 -78l-111 -27l-10 -2l-160 -38l-17 78z" />
    <glyph glyph-name="uni0624.fina" unicode="&#x624;" horiz-adv-x="534" arabic-form="final" 
d="M265.5 -63.5q45.5 12.5 65.5 26t22 37.5h-99q-60 0 -105.5 26.5t-70.5 75.5t-25 114q0 61 27 114.5t74.5 85.5t106.5 32q57 0 103.5 -31t76 -85.5t37.5 -123.5l5 -47h56l9 -81l-9 -80h-3h-38q0 -77 -36 -123t-110.5 -75t-211.5 -58l-29 157q109 23 154.5 35.5zM192 578
q-9 16 -14 34q-3 15 -3 28q0 48 32.5 81.5t79.5 33.5q25 0 89 -12l-14 -78q-49 9 -74 9q-19 0 -31 -10.5t-12 -25.5q0 -16 13.5 -26.5t30.5 -10.5l116 28l18 -79l-281 -66l-17 78zM209 172.5q12 -11.5 45 -11.5h84l-3 30q-5 48 -24.5 72t-50.5 24q-29 0 -46 -21t-17 -53
q0 -29 12 -40.5z" />
    <glyph glyph-name="uni0625.fina" unicode="&#x625;" horiz-adv-x="287" arabic-form="final" 
d="M163.5 23.5q-44.5 23.5 -66 74.5t-25.5 138l-18 460l144 8l18 -468q2 -40 5 -53.5t15 -17.5t46 -4h10l9 -81l-9 -80h-10q-74 0 -118.5 23.5zM65 -206q-8 13 -13 34q-4 20 -4 29q0 47 33 80.5t79 33.5q25 0 89 -12l-14 -78q-49 9 -74 9q-19 0 -31 -10.5t-12 -25.5
q0 -16 13.5 -27t31.5 -10l116 28l17 -79l-281 -66l-17 78z" />
    <glyph glyph-name="uni0626.fina" unicode="&#x626;" horiz-adv-x="724" arabic-form="final" 
d="M327 -247q-85 0 -147.5 38.5t-95.5 109t-33 163.5q0 103 39 214l136 -54q-33 -94 -33 -163q0 -71 34.5 -109t99.5 -38q31 0 62 7q71 16 104 28t44 28t8 43q-2 7 -16 13l-112 36l44 153q147 -41 190 -51t78 -10l9 -81l-9 -80l-41 1q0 -93 -63.5 -149t-202.5 -88
q-45 -11 -95 -11zM302 351q-8 13 -13 34q-4 20 -4 29q0 47 33 80.5t80 33.5q23 0 88 -12l-13 -77q-47 8 -72 8q-20 0 -32.5 -9.5t-12.5 -25.5q0 -7 1 -10q2 -11 14 -19t26 -8q6 0 9 1l110 26l17 -78l-111 -27l-14 -2l-156 -37l-17 77z" />
    <glyph glyph-name="uni0626.init" unicode="&#x626;" horiz-adv-x="343" arabic-form="initial" 
d="M-5 161h79q40 0 58 9.5t18 34.5q0 14 -6 35l-40 149l138 41l40 -149q11 -44 11 -78q0 -60 -27 -106t-77 -71.5t-115 -25.5h-79v161zM72 558q-9 18 -13 34q-4 20 -4 29q0 47 33 81t80 34q25 0 89 -13l-14 -77q-68 12 -84 8q-15 -4 -24 -13t-9 -22q0 -7 1 -10q2 -11 14 -19
t26 -8q6 0 9 1l110 26l17 -78l-110 -26l-5 -1l-165 -39l-17 77z" />
    <glyph glyph-name="uni0626.medi" unicode="&#x626;" horiz-adv-x="309" arabic-form="medial" 
d="M-5 161h63q34 0 46 7t10 24v4l-11 123l144 15l11 -123v-5q3 -29 13 -37t43 -8l9 -81l-9 -80q-77 0 -127 38q-52 -38 -129 -38h-63v161zM73 479q-9 16 -14 34q-4 20 -4 29q0 47 33 80.5t80 33.5q25 0 89 -12l-14 -78q-49 9 -74 9q-19 0 -31 -10.5t-12 -25.5q0 -14 13 -25
t29 -11q6 0 9 1l109 26l18 -78l-111 -27l-14 -2l-156 -37l-17 77z" />
    <glyph glyph-name="uni0627.fina" unicode="&#x627;" horiz-adv-x="287" arabic-form="final" 
d="M163.5 23.5q-44.5 23.5 -66 74.5t-25.5 138l-18 460l144 8l18 -468q2 -40 5 -53.5t15 -17.5t46 -4h10l9 -81l-9 -80h-10q-74 0 -118.5 23.5z" />
    <glyph glyph-name="uni0628.fina" unicode="&#x628;" horiz-adv-x="990" arabic-form="final" 
d="M320.5 2q-56.5 2 -91 8.5t-65.5 19.5q-55 25 -84.5 72.5t-29.5 108.5q0 29 10 71l38 147l138 -41l-39 -154q-4 -13 -4 -24q0 -12 6.5 -19t21.5 -14q20 -10 69.5 -13t202.5 -3h236q36 0 47.5 7.5t9.5 27.5l-11 123l143 15l11 -123v-5q3 -29 13 -37t43 -8h11l9 -81l-9 -80
h-11q-78 0 -127 38q-52 -38 -129 -38h-236v0v0h-5q-111 0 -167.5 2zM438 -78h141v-142h-141v142z" />
    <glyph glyph-name="uni0628.init" unicode="&#x628;" horiz-adv-x="343" arabic-form="initial" 
d="M-5 161h79q40 0 58 9.5t18 34.5q0 14 -6 35l-40 149l138 41l40 -149q11 -44 11 -78q0 -60 -27 -106t-77 -71.5t-115 -25.5h-79v161zM3 -78h141v-142h-141v142z" />
    <glyph glyph-name="uni0628.medi" unicode="&#x628;" horiz-adv-x="309" arabic-form="medial" 
d="M-5 161h63q34 0 46 7t10 24v4l-11 123l144 15l11 -123v-5q3 -29 13 -37t43 -8l9 -81l-9 -80q-77 0 -127 38q-52 -38 -129 -38h-63v161zM-21 -77h142v-142h-142v142z" />
    <glyph glyph-name="uni0629.fina" unicode="&#x629;" horiz-adv-x="552" arabic-form="final" 
d="M244 73q-57 0 -110.5 41t-73.5 100q-10 30 -10 63q0 66 37.5 121.5t97.5 74.5l124 41v32h143v-309q0 -32 25 -54t61 -22h19l9 -81l-9 -80h-19q-54 0 -100.5 24t-78.5 65l-97 -15q-6 -1 -18 -1zM153 731h260v-126h-260v126zM214 242q16 -12 35 -8l60 10v111l-79 -27
q-18 -6 -27 -18.5t-9 -27.5q0 -7 1 -11q3 -17 19 -29z" />
    <glyph glyph-name="uni062A.fina" unicode="&#x62a;" horiz-adv-x="990" arabic-form="final" 
d="M320.5 2q-56.5 2 -91 8.5t-65.5 19.5q-55 25 -84.5 72.5t-29.5 108.5q0 29 10 71l38 147l138 -41l-39 -154q-4 -13 -4 -24q0 -12 6.5 -19t21.5 -14q20 -10 69.5 -13t202.5 -3h236q36 0 47.5 7.5t9.5 27.5l-11 123l143 15l11 -123v-5q3 -29 13 -37t43 -8h11l9 -81l-9 -80
h-11q-78 0 -127 38q-52 -38 -129 -38h-236v0v0h-5q-111 0 -167.5 2zM368 507h259v-126h-259v126z" />
    <glyph glyph-name="uni062A.init" unicode="&#x62a;" horiz-adv-x="419" arabic-form="initial" 
d="M-5 161h155q40 0 57.5 9.5t17.5 34.5q0 14 -6 35l-39 149l138 41l41 -157q10 -36 10 -73q0 -59 -27.5 -104.5t-77.5 -70.5t-114 -25h-155v161zM63 643h260v-125h-260v125z" />
    <glyph glyph-name="uni062A.medi" unicode="&#x62a;" horiz-adv-x="430" arabic-form="medial" 
d="M-5 161h184q36 0 47.5 7.5t9.5 27.5l-11 123l143 15l11 -123l1 -8q2 -27 12.5 -34.5t42.5 -7.5l9 -81l-9 -80q-77 0 -126 38q-54 -38 -130 -38h-184v161zM33 561h260v-126h-260v126z" />
    <glyph glyph-name="uni062B.fina" unicode="&#x62b;" horiz-adv-x="990" arabic-form="final" 
d="M320.5 2q-56.5 2 -91 8.5t-65.5 19.5q-55 25 -84.5 72.5t-29.5 108.5q0 29 10 71l38 147l138 -41l-39 -154q-4 -13 -4 -24q0 -12 6.5 -19t21.5 -14q20 -10 69.5 -13t202.5 -3h236q36 0 47.5 7.5t9.5 27.5l-11 123l143 15l11 -123v-5q3 -29 13 -37t43 -8h11l9 -81l-9 -80
h-11q-78 0 -127 38q-52 -38 -129 -38h-236v0v0h-5q-111 0 -167.5 2zM359 468h81v96h121v-96h79v-136h-126h-30h-125v136z" />
    <glyph glyph-name="uni062B.init" unicode="&#x62b;" horiz-adv-x="419" arabic-form="initial" 
d="M-5 161h155q40 0 57.5 9.5t17.5 34.5q0 14 -6 35l-39 149l138 41l41 -157q10 -36 10 -73q0 -59 -27.5 -104.5t-77.5 -70.5t-114 -25h-155v161zM51 654h81v95h121v-95h79v-137h-126h-30h-125v137z" />
    <glyph glyph-name="uni062B.medi" unicode="&#x62b;" horiz-adv-x="430" arabic-form="medial" 
d="M-5 161h184q36 0 47.5 7.5t9.5 27.5l-11 123l143 15l11 -123l1 -8q2 -27 12.5 -34.5t42.5 -7.5l9 -81l-9 -80q-77 0 -126 38q-54 -38 -130 -38h-184v161zM22 572h80v95h121v-95h79l1 -137h-127h-29h-126z" />
    <glyph glyph-name="uni062C.fina" unicode="&#x62c;" horiz-adv-x="742" arabic-form="final" 
d="M347 -355q-101 0 -179.5 59.5t-106.5 159.5q-11 38 -11 83q0 104 68 186t190 115l190 48l-145 71q-22 11 -44 11q-23 0 -43.5 -12t-33.5 -33l-17 -31l-125 79l20 35q36 59 87.5 91t109.5 32q59 0 115 -31l257 -144l-20 -185h-2q21 -18 53 -18h37l9 -81l-9 -80h-37
q-68 0 -119 38t-75 102l-171 -47q-76 -20 -113.5 -58.5t-37.5 -88.5q0 -19 4 -35q12 -47 54 -76t96 -29q24 0 48 6l253 70l37 -155l-258 -72q-39 -10 -81 -10zM351 36h142v-142h-142v142z" />
    <glyph glyph-name="uni062C.init" unicode="&#x62c;" horiz-adv-x="698" arabic-form="initial" 
d="M-5 161h24q89 0 156 4.5t128 19.5l169 40l-145 70q-20 10 -45 10q-24 0 -44 -11t-32 -33l-17 -31l-125 79l20 35q33 60 84.5 92t110.5 32q62 0 117 -32l252 -144l-20 -185l-290 -77q-73 -19 -151 -24.5t-169 -5.5h-23v161zM251 -74h142v-141h-142v141z" />
    <glyph glyph-name="uni062C.medi" unicode="&#x62c;" horiz-adv-x="703" arabic-form="medial" 
d="M-5 161h23q123 1 275 39l175 44l-151 65q-20 10 -41 10q-23 0 -43 -12t-33 -33l-18 -32l-125 79l20 35q34 61 84.5 92t109.5 31t117 -30l255 -134l-18 -151q8 -3 19 -3h64l9 -81l-9 -80h-64q-50 0 -93 25t-69 67l-148 -45q-76 -24 -159 -35.5t-158 -11.5h-22v161z
M251 -74h142v-141h-142v141z" />
    <glyph glyph-name="uni062D.fina" unicode="&#x62d;" horiz-adv-x="742" arabic-form="final" 
d="M347 -355q-101 0 -179.5 59.5t-106.5 159.5q-11 38 -11 83q0 104 68 186t190 115l190 48l-145 71q-22 11 -44 11q-23 0 -43.5 -12t-33.5 -33l-17 -31l-125 79l20 35q36 59 87.5 91t109.5 32q59 0 115 -31l257 -144l-20 -185h-2q21 -18 53 -18h37l9 -81l-9 -80h-37
q-68 0 -119 38t-75 102l-171 -47q-76 -20 -113.5 -58.5t-37.5 -88.5q0 -19 4 -35q12 -47 54 -76t96 -29q24 0 48 6l253 70l37 -155l-258 -72q-39 -10 -81 -10z" />
    <glyph glyph-name="uni062D.init" unicode="&#x62d;" horiz-adv-x="698" arabic-form="initial" 
d="M-5 161h24q89 0 156 4.5t128 19.5l169 40l-145 70q-20 10 -45 10q-24 0 -44 -11t-32 -33l-17 -31l-125 79l20 35q33 60 84.5 92t110.5 32q62 0 117 -32l252 -144l-20 -185l-290 -77q-73 -19 -151 -24.5t-169 -5.5h-23v161z" />
    <glyph glyph-name="uni062D.medi" unicode="&#x62d;" horiz-adv-x="703" arabic-form="medial" 
d="M-5 161h23q123 1 275 39l175 44l-151 65q-20 10 -41 10q-23 0 -43 -12t-33 -33l-18 -32l-125 79l20 35q34 61 84.5 92t109.5 31t117 -30l255 -134l-18 -151q8 -3 19 -3h64l9 -81l-9 -80h-64q-50 0 -93 25t-69 67l-148 -45q-76 -24 -159 -35.5t-158 -11.5h-22v161z" />
    <glyph glyph-name="uni062E.fina" unicode="&#x62e;" horiz-adv-x="742" arabic-form="final" 
d="M347 -355q-101 0 -179.5 59.5t-106.5 159.5q-11 38 -11 83q0 104 68 186t190 115l190 48l-145 71q-22 11 -44 11q-23 0 -43.5 -12t-33.5 -33l-17 -31l-125 79l20 35q36 59 87.5 91t109.5 32q59 0 115 -31l257 -144l-20 -185h-2q21 -18 53 -18h37l9 -81l-9 -80h-37
q-68 0 -119 38t-75 102l-171 -47q-76 -20 -113.5 -58.5t-37.5 -88.5q0 -19 4 -35q12 -47 54 -76t96 -29q24 0 48 6l253 70l37 -155l-258 -72q-39 -10 -81 -10zM241 747h141v-142h-141v142z" />
    <glyph glyph-name="uni062E.init" unicode="&#x62e;" horiz-adv-x="698" arabic-form="initial" 
d="M-5 161h24q89 0 156 4.5t128 19.5l169 40l-145 70q-20 10 -45 10q-24 0 -44 -11t-32 -33l-17 -31l-125 79l20 35q33 60 84.5 92t110.5 32q62 0 117 -32l252 -144l-20 -185l-290 -77q-73 -19 -151 -24.5t-169 -5.5h-23v161zM199 696h142v-141h-142v141z" />
    <glyph glyph-name="uni062E.medi" unicode="&#x62e;" horiz-adv-x="703" arabic-form="medial" 
d="M-5 161h23q123 1 275 39l175 44l-151 65q-20 10 -41 10q-23 0 -43 -12t-33 -33l-18 -32l-125 79l20 35q34 61 84.5 92t109.5 31t117 -30l255 -134l-18 -151q8 -3 19 -3h64l9 -81l-9 -80h-64q-50 0 -93 25t-69 67l-148 -45q-76 -24 -159 -35.5t-158 -11.5h-22v161z
M197 696h142v-141h-142v141z" />
    <glyph glyph-name="uni062F.fina" unicode="&#x62f;" horiz-adv-x="598" arabic-form="final" 
d="M142.5 20.5q-41.5 20.5 -65 55t-23.5 74.5q-1 13 -1 64h132l1 -37q1 -9 6.5 -12.5t18.5 -3.5h116q47 0 40 32l-3 12l-74 292l140 39l74 -294q9 -36 15 -52t13.5 -22.5t21.5 -6.5h49l9 -81l-9 -80h-49q-65 0 -109 42q-55 -42 -137 -42h-72q-52 0 -93.5 20.5z" />
    <glyph glyph-name="uni0630.fina" unicode="&#x630;" horiz-adv-x="598" arabic-form="final" 
d="M142.5 20.5q-41.5 20.5 -65 55t-23.5 74.5q-1 13 -1 64h132l1 -37q1 -9 6.5 -12.5t18.5 -3.5h116q47 0 40 32l-3 12l-74 292l140 39l74 -294q9 -36 15 -52t13.5 -22.5t21.5 -6.5h49l9 -81l-9 -80h-49q-65 0 -109 42q-55 -42 -137 -42h-72q-52 0 -93.5 20.5zM293 751h142
v-141h-142v141z" />
    <glyph glyph-name="uni0631.fina" unicode="&#x631;" horiz-adv-x="349" arabic-form="final" 
d="M327 1q1 -95 -52 -150t-168 -87l-69 -19l-38 155l69 19q66 19 90.5 37t24.5 53q0 6 -2 22l-40 287l141 21l5 -33q10 -60 18 -102q5 -27 13.5 -35t24.5 -8h5l9 -81l-9 -80h-5z" />
    <glyph glyph-name="uni0632.fina" unicode="&#x632;" horiz-adv-x="349" arabic-form="final" 
d="M327 1q1 -95 -52 -150t-168 -87l-69 -19l-38 155l69 19q66 19 90.5 37t24.5 53q0 6 -2 22l-40 287l141 21l5 -33q10 -60 18 -102q5 -27 13.5 -35t24.5 -8h5l9 -81l-9 -80h-5zM134 579h142v-141h-142v141z" />
    <glyph glyph-name="uni0633.fina" unicode="&#x633;" horiz-adv-x="1279" arabic-form="final" 
d="M875 50q-52 -50 -122 -50q-34 0 -63 15q1 -105 -64 -162t-204 -89q-45 -11 -95 -11q-85 0 -147.5 38.5t-95.5 109t-33 163.5q0 103 39 214l136 -54q-33 -96 -33 -164q0 -71 34.5 -109t98.5 -38q26 0 63 8q67 15 98.5 25.5t45.5 26.5t14 44q0 7 -2 25l-41 275l141 23
l15 -97v0q8 -49 27 -65t62 -16q33 0 44.5 10t11.5 31v124h134v-124q0 -11 10 -25t43 -14q59 0 59 27q0 6 -1 9l-33 123l129 38l33 -123l2 -6q9 -33 34 -52t59 -19h11l9 -81l-9 -80h-11q-83 0 -140 52q-25 -25 -59 -38.5t-73 -13.5q-75 0 -127 50z" />
    <glyph glyph-name="uni0633.init" unicode="&#x633;" horiz-adv-x="777" arabic-form="initial" 
d="M406 44q-49 -44 -122 -44q-69 0 -118 46q-51 -46 -124 -46h-47v161h47q35 0 45.5 9.5t10.5 32.5v124h135v-124q0 -20 11.5 -31t39.5 -11q34 0 45.5 9.5t11.5 30.5v2v124h134v-124v-4q0 -20 11.5 -29t39.5 -9q30 0 43.5 9t13.5 32q0 16 -6 38l-40 149l138 41l40 -149
q11 -38 11 -80q0 -59 -25 -104.5t-70.5 -71t-104.5 -25.5q-71 0 -120 44z" />
    <glyph glyph-name="uni0633.medi" unicode="&#x633;" horiz-adv-x="789" arabic-form="medial" 
d="M399 51q-51 -51 -130 -51q-69 0 -118 51q-53 -51 -124 -51h-32v161h32q34 0 45 10t11 32v124h134v-124q2 -42 52 -42q35 0 45.5 10t10.5 32v124h135v-124q1 -16 13.5 -27.5t38.5 -11.5q32 0 45.5 7t13.5 20q0 6 -1 9l-33 123l129 38l33 -123l2 -7q10 -33 34.5 -51.5
t58.5 -18.5l9 -81l-9 -80q-83 0 -140 52q-25 -25 -59 -38.5t-73 -13.5q-69 0 -123 51z" />
    <glyph glyph-name="uni0634.fina" unicode="&#x634;" horiz-adv-x="1279" arabic-form="final" 
d="M875 50q-52 -50 -122 -50q-34 0 -63 15q1 -105 -64 -162t-204 -89q-45 -11 -95 -11q-85 0 -147.5 38.5t-95.5 109t-33 163.5q0 103 39 214l136 -54q-33 -96 -33 -164q0 -71 34.5 -109t98.5 -38q26 0 63 8q67 15 98.5 25.5t45.5 26.5t14 44q0 7 -2 25l-41 275l141 23
l15 -97v0q8 -49 27 -65t62 -16q33 0 44.5 10t11.5 31v124h134v-124q0 -11 10 -25t43 -14q59 0 59 27q0 6 -1 9l-33 123l129 38l33 -123l2 -6q9 -33 34 -52t59 -19h11l9 -81l-9 -80h-11q-83 0 -140 52q-25 -25 -59 -38.5t-73 -13.5q-75 0 -127 50zM734 582h81v95h120v-95h79
l1 -137h-127h-29h-126z" />
    <glyph glyph-name="uni0634.init" unicode="&#x634;" horiz-adv-x="777" arabic-form="initial" 
d="M406 44q-49 -44 -122 -44q-69 0 -118 46q-51 -46 -124 -46h-47v161h47q35 0 45.5 9.5t10.5 32.5v124h135v-124q0 -20 11.5 -31t39.5 -11q34 0 45.5 9.5t11.5 30.5v2v124h134v-124v-4q0 -20 11.5 -29t39.5 -9q30 0 43.5 9t13.5 32q0 16 -6 38l-40 149l138 41l40 -149
q11 -38 11 -80q0 -59 -25 -104.5t-70.5 -71t-104.5 -25.5q-71 0 -120 44zM263 586h81v95h120v-95h79l1 -137h-127h-29h-126z" />
    <glyph glyph-name="uni0634.medi" unicode="&#x634;" horiz-adv-x="789" arabic-form="medial" 
d="M399 51q-51 -51 -130 -51q-69 0 -118 51q-53 -51 -124 -51h-32v161h32q34 0 45 10t11 32v124h134v-124q2 -42 52 -42q35 0 45.5 10t10.5 32v124h135v-124q1 -16 13.5 -27.5t38.5 -11.5q32 0 45.5 7t13.5 20q0 6 -1 9l-33 123l129 38l33 -123l2 -7q10 -33 34.5 -51.5
t58.5 -18.5l9 -81l-9 -80q-83 0 -140 52q-25 -25 -59 -38.5t-73 -13.5q-69 0 -123 51zM258 558h80v96h121v-96h79l1 -136h-127h-29h-126z" />
    <glyph glyph-name="uni0635.fina" unicode="&#x635;" horiz-adv-x="1314" arabic-form="final" 
d="M1167 48q-59 -48 -132 -48h-322q-12 0 -23 3q-2 -99 -67.5 -153t-200.5 -86q-45 -11 -95 -11q-85 0 -147.5 38.5t-95.5 109t-33 163.5q0 103 39 214l136 -54q-33 -96 -33 -164q0 -71 34.5 -109t98.5 -38q26 0 63 8q67 15 98.5 25.5t45.5 26.5t14 44q0 7 -2 25l-41 275
l141 23l16 -110l5 -29q4 -23 12 -31.5t28 -8.5h8l60 82q58 79 94 120t76 63t91 22q60 0 109 -31t77.5 -84t28.5 -117q0 -22 -4 -39q27 -16 59 -16h14l9 -81l-9 -80h-14q-70 0 -138 48zM1035 161q31 0 51 18t20 45q0 26 -18.5 44.5t-48.5 18.5q-21 0 -39 -10.5t-41 -36.5
t-61 -79h137z" />
    <glyph glyph-name="uni0635.init" unicode="&#x635;" horiz-adv-x="818" arabic-form="initial" 
d="M131 39q-54 -37 -131 -39h-5v161h5q35 0 52 10t19 39l11 124l144 -15l-11 -122v-3q-1 -19 3 -26t15 -7l60 82q56 78 93 119.5t77 63.5t91 22q60 0 109 -31t77 -84t28 -117q0 -57 -29.5 -107t-78.5 -79.5t-106 -29.5h-322q-59 0 -101 39zM554 161q31 0 50.5 18t19.5 45
q0 26 -18.5 44.5t-47.5 18.5q-22 0 -40 -10.5t-41 -37t-60 -78.5h137z" />
    <glyph glyph-name="uni0635.medi" unicode="&#x635;" horiz-adv-x="833" arabic-form="medial" 
d="M686 48q-59 -48 -132 -48h-322q-59 0 -101 39q-54 -37 -131 -39h-5v161h5q35 0 52 10t19 39l11 124l144 -15l-11 -122v-3q-1 -19 3 -26t15 -7l60 82q56 78 93 119.5t77 63.5t91 22q60 0 109 -31t77 -84t28 -117q0 -22 -4 -38q28 -17 60 -17h14l9 -81l-9 -80h-14
q-70 0 -138 48zM554 161q31 0 50.5 18t19.5 45q0 26 -18.5 44.5t-47.5 18.5q-22 0 -40 -10.5t-41 -37t-60 -78.5h137z" />
    <glyph glyph-name="uni0636.fina" unicode="&#x636;" horiz-adv-x="1314" arabic-form="final" 
d="M1167 48q-59 -48 -132 -48h-322q-12 0 -23 3q-2 -99 -67.5 -153t-200.5 -86q-45 -11 -95 -11q-85 0 -147.5 38.5t-95.5 109t-33 163.5q0 103 39 214l136 -54q-33 -96 -33 -164q0 -71 34.5 -109t98.5 -38q26 0 63 8q67 15 98.5 25.5t45.5 26.5t14 44q0 7 -2 25l-41 275
l141 23l16 -110l5 -29q4 -23 12 -31.5t28 -8.5h8l60 82q58 79 94 120t76 63t91 22q60 0 109 -31t77.5 -84t28.5 -117q0 -22 -4 -39q27 -16 59 -16h14l9 -81l-9 -80h-14q-70 0 -138 48zM1035 161q31 0 51 18t20 45q0 26 -18.5 44.5t-48.5 18.5q-21 0 -39 -10.5t-41 -36.5
t-61 -79h137zM967 689h142v-141h-142v141z" />
    <glyph glyph-name="uni0636.init" unicode="&#x636;" horiz-adv-x="818" arabic-form="initial" 
d="M131 39q-54 -37 -131 -39h-5v161h5q35 0 52 10t19 39l11 124l144 -15l-11 -122v-3q-1 -19 3 -26t15 -7l60 82q56 78 93 119.5t77 63.5t91 22q60 0 109 -31t77 -84t28 -117q0 -57 -29.5 -107t-78.5 -79.5t-106 -29.5h-322q-59 0 -101 39zM554 161q31 0 50.5 18t19.5 45
q0 26 -18.5 44.5t-47.5 18.5q-22 0 -40 -10.5t-41 -37t-60 -78.5h137zM463 662h142v-141h-142v141z" />
    <glyph glyph-name="uni0636.medi" unicode="&#x636;" horiz-adv-x="833" arabic-form="medial" 
d="M686 48q-59 -48 -132 -48h-322q-59 0 -101 39q-54 -37 -131 -39h-5v161h5q35 0 52 10t19 39l11 124l144 -15l-11 -122v-3q-1 -19 3 -26t15 -7l60 82q56 78 93 119.5t77 63.5t91 22q60 0 109 -31t77 -84t28 -117q0 -22 -4 -38q28 -17 60 -17h14l9 -81l-9 -80h-14
q-70 0 -138 48zM554 161q31 0 50.5 18t19.5 45q0 26 -18.5 44.5t-47.5 18.5q-22 0 -40 -10.5t-41 -37t-60 -78.5h137zM459 675h142v-142h-142v142z" />
    <glyph glyph-name="uni0637.fina" unicode="&#x637;" horiz-adv-x="740" arabic-form="final" 
d="M594 47q-28 -22 -61.5 -34.5t-69.5 -12.5h-413v161h92l28 38l-20 497l143 8l13 -331q34 38 72 56.5t85 18.5q60 0 109 -31t77 -84t28 -117q0 -22 -4 -39q27 -16 58 -16h14l9 -81l-9 -80h-14q-70 0 -137 47zM467 161q30 0 48 18t18 45q0 26 -18 44.5t-48 18.5
q-21 0 -41 -13.5t-57 -52.5l-60 -60h158z" />
    <glyph glyph-name="uni0637.init" unicode="&#x637;" horiz-adv-x="672" arabic-form="initial" 
d="M-5 161h92l28 38l-20 497l143 8l14 -330q35 38 72.5 56t83.5 18q60 0 109 -31t77 -84t28 -117q0 -57 -29.5 -107t-78.5 -79.5t-106 -29.5h-413v161zM412 161q30 0 48 18t18 45q0 26 -18 44.5t-48 18.5q-21 0 -41 -13.5t-57 -52.5l-60 -60h158z" />
    <glyph glyph-name="uni0637.medi" unicode="&#x637;" horiz-adv-x="685" arabic-form="medial" 
d="M539 47q-28 -22 -61.5 -34.5t-69.5 -12.5h-413v161h92l28 38l-20 497l143 8l14 -330q35 38 72.5 56t83.5 18q60 0 109 -31t77 -84t28 -117q0 -22 -4 -39q27 -16 58 -16h14l9 -81l-9 -80h-14q-70 0 -137 47zM412 161q30 0 48 18t18 45q0 26 -18 44.5t-48 18.5
q-21 0 -41 -13.5t-57 -52.5l-60 -60h158z" />
    <glyph glyph-name="uni0638.fina" unicode="&#x638;" horiz-adv-x="740" arabic-form="final" 
d="M594 47q-28 -22 -61.5 -34.5t-69.5 -12.5h-413v161h92l28 38l-20 497l143 8l13 -331q34 38 72 56.5t85 18.5q60 0 109 -31t77 -84t28 -117q0 -22 -4 -39q27 -16 58 -16h14l9 -81l-9 -80h-14q-70 0 -137 47zM467 161q30 0 48 18t18 45q0 26 -18 44.5t-48 18.5
q-21 0 -41 -13.5t-57 -52.5l-60 -60h158zM412 690h142v-142h-142v142z" />
    <glyph glyph-name="uni0638.init" unicode="&#x638;" horiz-adv-x="672" arabic-form="initial" 
d="M-5 161h92l28 38l-20 497l143 8l14 -330q35 38 72.5 56t83.5 18q60 0 109 -31t77 -84t28 -117q0 -57 -29.5 -107t-78.5 -79.5t-106 -29.5h-413v161zM412 161q30 0 48 18t18 45q0 26 -18 44.5t-48 18.5q-21 0 -41 -13.5t-57 -52.5l-60 -60h158zM343 690h141v-142h-141v142
z" />
    <glyph glyph-name="uni0638.medi" unicode="&#x638;" horiz-adv-x="685" arabic-form="medial" 
d="M539 47q-28 -22 -61.5 -34.5t-69.5 -12.5h-413v161h92l28 38l-20 497l143 8l14 -330q35 38 72.5 56t83.5 18q60 0 109 -31t77 -84t28 -117q0 -22 -4 -39q27 -16 58 -16h14l9 -81l-9 -80h-14q-70 0 -137 47zM412 161q30 0 48 18t18 45q0 26 -18 44.5t-48 18.5
q-21 0 -41 -13.5t-57 -52.5l-60 -60h158zM337 690h142v-142h-142v142z" />
    <glyph glyph-name="uni0639.fina" unicode="&#x639;" horiz-adv-x="630" arabic-form="final" 
d="M297 -275q-67 0 -123.5 34.5t-90 94t-33.5 130.5q0 81 43.5 134.5t125.5 87.5l-103 137l40 126l246 38q14 2 22 2q44 0 80.5 -25t57.5 -65.5t21 -83.5q0 -44 -22 -79q-30 -57 -81 -91q43 -4 155 -4l9 -81l-9 -80q-113 0 -163.5 3.5t-87.5 19t-65 52.5l-16 21
q-109 -48 -109 -116q0 -27 15.5 -49.5t40.5 -34t54 -9.5l293 25l13 -161l-295 -25zM370 252q41 15 61.5 41.5t23.5 59.5q1 2 1 6q0 5 -5 5q-7 0 -36 -3.5t-47 -5.5q-69 -10 -74 -8z" />
    <glyph glyph-name="uni0639.init" unicode="&#x639;" horiz-adv-x="536" arabic-form="initial" 
d="M7 0h-12v161h10l70 1q-3 9 -7 27q-4 20 -4 44q0 52 22 98.5t62 78t91 40.5q9 2 29 2q61 0 151 -24l-38 -155q-75 20 -106 20q-29 0 -48.5 -18t-19.5 -43t19 -43t46 -19l17 2v-1l171 32l26 -157l-171 -33q-50 -10 -308 -13z" />
    <glyph glyph-name="uni0639.medi" unicode="&#x639;" horiz-adv-x="525" arabic-form="medial" 
d="M-5 161h18q59 0 107 3l-90 120l41 126l244 36q16 2 23 2q44 0 80.5 -23.5t57.5 -62.5t21 -83q0 -33 -13 -65q-13 -29 -33 -52q24 -1 79 -1l9 -81l-9 -80q-116 0 -178.5 6.5t-110.5 31.5q-117 -38 -228 -38h-18v161zM284 192q38 16 58.5 40.5t27.5 61.5l1 4q0 8 -9 6
l-154 -17z" />
    <glyph glyph-name="uni063A.fina" unicode="&#x63a;" horiz-adv-x="630" arabic-form="final" 
d="M297 -275q-67 0 -123.5 34.5t-90 94t-33.5 130.5q0 81 43.5 134.5t125.5 87.5l-103 137l40 126l246 38q14 2 22 2q44 0 80.5 -25t57.5 -65.5t21 -83.5q0 -44 -22 -79q-30 -57 -81 -91q43 -4 155 -4l9 -81l-9 -80q-113 0 -163.5 3.5t-87.5 19t-65 52.5l-16 21
q-109 -48 -109 -116q0 -27 15.5 -49.5t40.5 -34t54 -9.5l293 25l13 -161l-295 -25zM280 713h142v-142h-142v142zM370 252q41 15 61.5 41.5t23.5 59.5q1 2 1 6q0 5 -5 5q-7 0 -36 -3.5t-47 -5.5q-69 -10 -74 -8z" />
    <glyph glyph-name="uni063A.init" unicode="&#x63a;" horiz-adv-x="536" arabic-form="initial" 
d="M7 0h-12v161h10l70 1q-3 9 -7 27q-4 20 -4 44q0 52 22 98.5t62 78t91 40.5q9 2 29 2q61 0 151 -24l-38 -155q-75 20 -106 20q-29 0 -48.5 -18t-19.5 -43t19 -43t46 -19l17 2v-1l171 32l26 -157l-171 -33q-50 -10 -308 -13zM175 665h141v-142h-141v142z" />
    <glyph glyph-name="uni063A.medi" unicode="&#x63a;" horiz-adv-x="525" arabic-form="medial" 
d="M-5 161h18q59 0 107 3l-90 120l41 126l244 36q16 2 23 2q44 0 80.5 -23.5t57.5 -62.5t21 -83q0 -33 -13 -65q-13 -29 -33 -52q24 -1 79 -1l9 -81l-9 -80q-116 0 -178.5 6.5t-110.5 31.5q-117 -38 -228 -38h-18v161zM205 680h141v-141h-141v141zM284 192q38 16 58.5 40.5
t27.5 61.5l1 4q0 8 -9 6l-154 -17z" />
    <glyph glyph-name="uni0641.fina" unicode="&#x641;" horiz-adv-x="1014" arabic-form="final" 
d="M320.5 2q-56.5 2 -91 8.5t-65.5 19.5q-55 25 -84.5 72.5t-29.5 108.5q0 29 10 71l38 147l138 -41l-39 -154q-4 -13 -4 -24q0 -12 6.5 -19t21.5 -14q20 -10 69.5 -13t202.5 -3h61h18q-26 39 -22 74l6 59q5 54 33.5 97t74 67t97.5 24q59 0 106.5 -32.5t72.5 -85t22 -111.5
l-3 -47q-1 -21 -14 -45h74l9 -81l-9 -80h-75q-88 0 -188 36q-49 -17 -102 -26.5t-100 -9.5h-61v0v0h-5q-111 0 -167.5 2zM752 189q52 15 64 34l5 32q3 25 -15.5 46t-45.5 21q-25 0 -43.5 -15t-20.5 -39l-3 -39q21 -25 59 -40zM694 694h141v-142h-141v142z" />
    <glyph glyph-name="uni0641.init" unicode="&#x641;" horiz-adv-x="500" arabic-form="initial" 
d="M-5 161h186q63 0 89 3t34.5 12t6.5 31q-36 -3 -93 -3q-85 0 -135.5 48.5t-50.5 134.5q0 97 47 161.5t136 71.5q60 4 108.5 -23t78 -79.5t34.5 -121.5l12 -186q1 -9 1 -26q0 -94 -61.5 -139t-208.5 -45h-184v161zM155 857h142v-142h-142v142zM176 365.5q14 -13.5 42 -13.5
q51 0 81 3l-2 29q-5 45 -24 68.5t-49 23.5q-29 0 -45.5 -20.5t-16.5 -52.5q0 -24 14 -37.5z" />
    <glyph glyph-name="uni0641.medi" unicode="&#x641;" horiz-adv-x="521" arabic-form="medial" 
d="M-5 161h65h19q-26 39 -22 74l6 59q5 54 33.5 97t73.5 67t97 24q59 0 106.5 -32.5t73 -85t22.5 -111.5l-3 -47q-1 -22 -15 -45h75l9 -81l-9 -80h-76q-88 0 -188 36q-103 -36 -202 -36h-65v161zM199 691h142v-142h-142v142zM258 189q53 15 65 34l5 32q3 25 -15.5 46
t-46.5 21q-24 0 -42.5 -15t-20.5 -39l-3 -39q21 -25 58 -40z" />
    <glyph glyph-name="uni0642.fina" unicode="&#x642;" horiz-adv-x="759" arabic-form="final" 
d="M327 -247q-85 0 -147.5 38.5t-95.5 109t-33 163.5q0 103 39 214l136 -54q-33 -96 -33 -164q0 -71 34.5 -109t98.5 -38q26 0 63 8q88 19 138 35.5t49 36.5v7h-97q-60 0 -105.5 26.5t-70.5 75.5t-25 114q0 61 27 114.5t74.5 85.5t106.5 32q58 0 105 -30.5t76 -85t36 -124.5
l5 -47h56l9 -81l-9 -80h-42v-16q-3 -62 -36 -102.5t-95.5 -67t-168.5 -50.5q-45 -11 -95 -11zM353 626h259v-125h-259v125zM434 172.5q12 -11.5 45 -11.5h84l-3 30q-5 48 -24.5 72t-50.5 24q-29 0 -46 -21t-17 -53q0 -29 12 -40.5z" />
    <glyph glyph-name="uni0642.init" unicode="&#x642;" horiz-adv-x="500" arabic-form="initial" 
d="M-5 161h186q63 0 89 3t34.5 12t6.5 31q-36 -3 -93 -3q-85 0 -135.5 48.5t-50.5 134.5q0 97 47 161.5t136 71.5q60 4 108.5 -23t78 -79.5t34.5 -121.5l12 -186q1 -9 1 -26q0 -94 -61.5 -139t-208.5 -45h-184v161zM97 826h259v-126h-259v126zM176 365.5q14 -13.5 42 -13.5
q51 0 81 3l-2 29q-5 45 -24 68.5t-49 23.5q-29 0 -45.5 -20.5t-16.5 -52.5q0 -24 14 -37.5z" />
    <glyph glyph-name="uni0642.medi" unicode="&#x642;" horiz-adv-x="521" arabic-form="medial" 
d="M-5 161h65h19q-26 39 -22 74l6 59q5 54 33.5 97t73.5 67t97 24q59 0 106.5 -32.5t73 -85t22.5 -111.5l-3 -47q-1 -22 -15 -45h75l9 -81l-9 -80h-76q-88 0 -188 36q-103 -36 -202 -36h-65v161zM133 674h259v-126h-259v126zM258 189q53 15 65 34l5 32q3 25 -15.5 46
t-46.5 21q-24 0 -42.5 -15t-20.5 -39l-3 -39q21 -25 58 -40z" />
    <glyph glyph-name="uni0643.fina" unicode="&#x643;" horiz-adv-x="942" arabic-form="final" 
d="M801 42q-51 -42 -130 -42h-178q-113 0 -170.5 2t-92.5 8.5t-66 19.5q-55 25 -84.5 72.5t-29.5 108.5q0 29 10 71l38 147l138 -41l-39 -154q-4 -13 -4 -24q0 -12 6.5 -19t21.5 -14q20 -10 69.5 -13t202.5 -3h178q34 0 46 10t10 30l-19 495l144 8l18 -480l1 -8
q2 -33 15 -44t42 -11h20l9 -81l-9 -80h-20q-84 0 -127 42zM401 374h52q7 0 7 3q0 2 -5 7l-46 45l13 53l98 33l20 -60l-50 -17l34 -36q17 -16 17 -39q0 -21 -14 -37t-37 -16h-89v64z" />
    <glyph glyph-name="uni0643.init" unicode="&#x643;" horiz-adv-x="492" arabic-form="initial" 
d="M-5 161h223q17 0 24 6q8 8 8 18t-7 20l-220 311l32 122l362 133l50 -151l-265 -97l149 -221q47 -70 47 -140q0 -54 -31 -96q-23 -31 -61.5 -48.5t-89.5 -17.5h-221v161z" />
    <glyph glyph-name="uni0643.medi" unicode="&#x643;" horiz-adv-x="515" arabic-form="medial" 
d="M361 59q-23 -28 -60 -43.5t-85 -15.5h-221v161h223q17 0 24 6q8 8 8 18t-7 20l-220 311l32 122l362 133l50 -151l-265 -97l149 -221l16 -26q40 -68 69 -91.5t70 -23.5h14l9 -81l-9 -80h-14q-81 0 -145 59z" />
    <glyph glyph-name="uni0644.fina" unicode="&#x644;" horiz-adv-x="752" arabic-form="final" 
d="M685 5q-5 -70 -35.5 -115.5t-85.5 -75t-143 -50.5q-55 -13 -97 -13q-84 0 -146 39t-95 109.5t-33 163.5q0 103 39 213l136 -53q-33 -94 -33 -163q0 -72 34 -111t97 -39q30 0 64 9q76 20 105.5 31.5t41 33t9.5 66.5l-25 646l143 8l19 -485v-3q2 -33 15 -44t42 -11h20
l9 -81l-9 -80h-20q-32 0 -52 5z" />
    <glyph glyph-name="uni0644.init" unicode="&#x644;" horiz-adv-x="268" arabic-form="initial" 
d="M-5 161h23q34 0 46 10t10 30l-19 495l144 8l19 -496q3 -59 -21 -106t-70 -74.5t-109 -27.5h-23v161z" />
    <glyph glyph-name="uni0644.medi" unicode="&#x644;" horiz-adv-x="289" arabic-form="medial" 
d="M148 42q-51 -42 -130 -42h-23v161h23q34 0 46 10t10 30l-19 495l144 8l19 -496v-1q4 -27 17 -36.5t39 -9.5h20l9 -81l-9 -80h-20q-83 0 -126 42z" />
    <glyph glyph-name="uni0645.fina" unicode="&#x645;" horiz-adv-x="617" arabic-form="final" 
d="M499 45q-21 -24 -48 -37.5t-57 -13.5q-33 0 -64 16l-137 70l20 -375l-143 -5l-20 510l98 65l27 -14l40 79q24 46 65.5 72t89.5 26q43 0 83 -21q49 -26 76 -78t27 -116q0 -21 -3 -44q26 -18 69 -18l9 -81l-9 -80q-76 0 -123 45zM406 142q25 52 25 83q0 36 -29 53
q-12 6 -24 6q-17 0 -32.5 -13t-28.5 -38l-18 -35z" />
    <glyph glyph-name="uni0645.init" unicode="&#x645;" horiz-adv-x="540" arabic-form="initial" 
d="M-5 161h11q22 0 40 9t27 25l77 149q23 45 67 70.5t95 25.5q46 0 86 -21q98 -53 98 -169q0 -75 -42 -167q-19 -42 -53.5 -65t-74.5 -23q-34 0 -65 16l-106 55q-60 -66 -149 -66h-11v161zM346 149l14 30q11 25 11 49q0 40 -31 55q-12 6 -26 6q-17 0 -32.5 -10t-24.5 -29
l-23 -45z" />
    <glyph glyph-name="uni0645.medi" unicode="&#x645;" horiz-adv-x="557" arabic-form="medial" 
d="M438 55q-20 -29 -49.5 -44.5t-62.5 -15.5t-65 16l-106 55q-60 -66 -149 -66h-11v161h11q22 0 40 9t27 25l77 149q23 45 67 70.5t95 25.5q46 0 86 -21q98 -53 98 -169q0 -29 -6 -59q25 -30 82 -30l9 -81l-9 -80q-85 0 -134 55zM346 149l14 30q11 25 11 49q0 40 -31 55
q-12 6 -26 6q-17 0 -32.5 -10t-24.5 -29l-23 -45z" />
    <glyph glyph-name="uni0646.fina" unicode="&#x646;" horiz-adv-x="737" arabic-form="final" 
d="M690 3q-2 -99 -67.5 -153t-200.5 -86q-45 -11 -95 -11q-85 0 -147.5 38.5t-95.5 109t-33 163.5q0 103 39 214l136 -54q-33 -96 -33 -164q0 -71 34.5 -109t98.5 -38q26 0 63 8q67 15 98.5 25.5t45.5 26.5t14 44q0 7 -2 25l-41 275l141 23l2 -16l20 -117q4 -26 15 -36
t33 -10h27l9 -81l-9 -80h-22q-15 0 -30 3zM284 419h141v-141h-141v141z" />
    <glyph glyph-name="uni0646.init" unicode="&#x646;" horiz-adv-x="343" arabic-form="initial" 
d="M-5 161h79q40 0 58 9.5t18 34.5q0 14 -6 35l-40 149l138 41l40 -149q11 -44 11 -78q0 -60 -27 -106t-77 -71.5t-115 -25.5h-79v161zM55 651h142v-142h-142v142z" />
    <glyph glyph-name="uni0646.medi" unicode="&#x646;" horiz-adv-x="309" arabic-form="medial" 
d="M-5 161h63q34 0 46 7t10 24v4l-11 123l144 15l11 -123v-5q3 -29 13 -37t43 -8l9 -81l-9 -80q-77 0 -127 38q-52 -38 -129 -38h-63v161zM64 570h141v-142h-141v142z" />
    <glyph glyph-name="uni0647.fina" unicode="&#x647;" horiz-adv-x="552" arabic-form="final" 
d="M244 73q-57 0 -110.5 41t-73.5 100q-10 30 -10 63q0 66 37.5 121.5t97.5 74.5l124 41v32h143v-309q0 -32 25 -54t61 -22h19l9 -81l-9 -80h-19q-54 0 -100.5 24t-78.5 65l-97 -15q-6 -1 -18 -1zM214 242q16 -12 35 -8l60 10v111l-79 -27q-18 -6 -27 -18.5t-9 -27.5
q0 -7 1 -11q3 -17 19 -29z" />
    <glyph glyph-name="uni0647.init" unicode="&#x647;" horiz-adv-x="686" arabic-form="initial" 
d="M-5 161h64h6q-37 52 -37 119q0 48 21 91q29 63 87 95l37 81l353 -186q51 -26 80.5 -77t29.5 -109q0 -46 -19 -85q-26 -54 -72.5 -84.5t-101.5 -30.5q-40 0 -81 18l-103 48q-91 -41 -200 -41h-64v161zM178 281q0 -13 8 -25t23 -19l48 -25q14 15 26 41q5 12 5 23
q0 15 -8 29t-22 21q-13 8 -29 8q-15 0 -26.5 -7t-17.5 -19q-7 -13 -7 -27zM420 130q12 -6 26 -6t26.5 7t18.5 21q5 10 5 20q0 14 -8.5 27t-24.5 22l-35 18q-5 -28 -16 -52q-9 -20 -23 -41z" />
    <glyph glyph-name="uni0647.medi" unicode="&#x647;" horiz-adv-x="493" arabic-form="medial" 
d="M132.5 -179.5q-62.5 60.5 -77.5 179.5h-60v161h72q29 107 94 291l86 43l73 -20q56 -15 89.5 -71.5t33.5 -124.5q0 -50 -19 -92q-8 -18 -21 -37q31 11 65 11h30l9 -81l-9 -80h-24q-22 0 -38 -18t-19 -47l-11 -91l-93 -96q-118 12 -180.5 72.5zM219.5 -49.5
q21.5 -26.5 53.5 -34.5l2 39q6 58 29 103q-51 -30 -114 -45q8 -36 29.5 -62.5zM273.5 190.5q23.5 19.5 32.5 44.5q5 13 5 30q0 21 -8 36t-23 19l-14 4l-52 -159q36 6 59.5 25.5z" />
    <glyph glyph-name="uni0648.fina" unicode="&#x648;" horiz-adv-x="534" arabic-form="final" 
d="M265.5 -63.5q45.5 12.5 65.5 26t22 37.5h-99q-60 0 -105.5 26.5t-70.5 75.5t-25 114q0 61 27 114.5t74.5 85.5t106.5 32q57 0 103.5 -31t76 -85.5t37.5 -123.5l5 -47h56l9 -81l-9 -80h-3h-38q0 -77 -36 -123t-110.5 -75t-211.5 -58l-29 157q109 23 154.5 35.5zM209 172.5
q12 -11.5 45 -11.5h84l-3 30q-5 48 -24.5 72t-50.5 24q-29 0 -46 -21t-17 -53q0 -29 12 -40.5z" />
    <glyph glyph-name="uni0649.fina" unicode="&#x649;" horiz-adv-x="724" arabic-form="final" 
d="M327 -247q-85 0 -147.5 38.5t-95.5 109t-33 163.5q0 103 39 214l136 -54q-33 -94 -33 -163q0 -71 34.5 -109t99.5 -38q31 0 62 7q71 16 104 28t44 28t8 43q-2 7 -16 13l-112 36l44 153q147 -41 190 -51t78 -10l9 -81l-9 -80l-41 1q0 -93 -63.5 -149t-202.5 -88
q-45 -11 -95 -11z" />
    <glyph glyph-name="uni064A.fina" unicode="&#x64a;" horiz-adv-x="724" arabic-form="final" 
d="M327 -247q-85 0 -147.5 38.5t-95.5 109t-33 163.5q0 103 39 214l136 -54q-33 -94 -33 -163q0 -71 34.5 -109t99.5 -38q31 0 62 7q71 16 104 28t44 28t8 43q-2 7 -16 13l-112 36l44 153q147 -41 190 -51t78 -10l9 -81l-9 -80l-41 1q0 -93 -63.5 -149t-202.5 -88
q-45 -11 -95 -11zM235 -299h260v-126h-260v126z" />
    <glyph glyph-name="uni064A.init" unicode="&#x64a;" horiz-adv-x="419" arabic-form="initial" 
d="M-5 161h155q40 0 57.5 9.5t17.5 34.5q0 14 -6 35l-39 149l138 41l41 -157q10 -36 10 -73q0 -59 -27.5 -104.5t-77.5 -70.5t-114 -25h-155v161zM-25 -85h260v-126h-260v126z" />
    <glyph glyph-name="uni064A.medi" unicode="&#x64a;" horiz-adv-x="430" arabic-form="medial" 
d="M-5 161h184q36 0 47.5 7.5t9.5 27.5l-11 123l143 15l11 -123l1 -8q2 -27 12.5 -34.5t42.5 -7.5l9 -81l-9 -80q-77 0 -126 38q-54 -38 -130 -38h-184v161zM-30 -87h259v-126h-259v126z" />
    <glyph glyph-name=".notdef" horiz-adv-x="300" 
d="M32 523h236v-546h-236v546zM232 23v454h-164v-454h164z" />
    <glyph glyph-name=".null" 
 />
    <glyph glyph-name="nonmarkingreturn" unicode="&#xd;" horiz-adv-x="300" 
 />
    <glyph glyph-name="space" unicode=" " horiz-adv-x="212" 
 />
    <glyph glyph-name="exclam" unicode="!" horiz-adv-x="286" 
d="M59 691h168l-18 -467h-132zM80 115.5q26 25.5 63 25.5q35 0 61 -25.5t26 -61.5q0 -37 -26 -63t-61 -26q-37 0 -63 26t-26 63q0 36 26 61.5z" />
    <glyph glyph-name="quotedbl" unicode="&#x22;" horiz-adv-x="430" 
d="M238 700h168l-19 -235h-132zM192 700l-19 -235h-132l-17 235h168z" />
    <glyph glyph-name="numbersign" unicode="#" horiz-adv-x="692" 
d="M359 163h-85l-20 -131h-168l20 131h-69v143h91l13 83h-68v145h91l20 131l168 -1l-20 -130h85l20 131l168 -1l-20 -130h70v-145h-92l-13 -83h68v-143h-90l-20 -131h-169zM381 306l13 83h-85l-13 -83h85z" />
    <glyph glyph-name="dollar" unicode="$" horiz-adv-x="636" 
d="M245 0q-87 20 -141 77.5t-54 148.5h148q0 -61 33 -90.5t102 -29.5q47 0 75 22t28 59q0 40 -29 65q-19 16 -45 27t-73 28q-65 23 -91 36q-127 66 -127 181q0 73 48.5 121.5t125.5 65.5l-2 81h147l-1 -76q89 -16 141.5 -74t52.5 -141h-147q0 48 -29.5 75.5t-79.5 27.5
t-79.5 -22.5t-29.5 -58.5q0 -32 31 -56q19 -15 42.5 -25t72.5 -28q75 -25 115 -49q105 -64 105 -177q0 -77 -51 -129t-144 -65l1 -76h-147z" />
    <glyph glyph-name="percent" unicode="%" horiz-adv-x="749" 
d="M162 90l346 555l70 -35l-348 -555zM46 574q0 65 42 105.5t112 40.5q71 0 112.5 -40t41.5 -108v-35q0 -66 -41.5 -105.5t-111.5 -39.5t-112.5 40t-42.5 108v34zM157.5 489q16.5 -18 43.5 -18q28 0 43.5 19t15.5 54v30q0 30 -16.5 48t-43.5 18t-43 -18t-16 -49v-36
q0 -30 16.5 -48zM388 174q0 66 42 106t112 40q72 0 113.5 -39.5t41.5 -109.5v-34q0 -67 -42 -106.5t-112 -39.5t-112.5 40t-42.5 108v35zM500 90.5q18 -19.5 43 -19.5q26 0 41.5 14t16.5 40l1 49q0 29 -16.5 47.5t-43.5 18.5q-26 0 -42.5 -17.5t-17.5 -45.5v-40
q0 -27 18 -46.5z" />
    <glyph glyph-name="ampersand" unicode="&#x26;" horiz-adv-x="718" 
d="M97.5 37q-65.5 45 -65.5 135q0 66 35 111t94 79q-47 56 -62 89t-15 71q0 49 27 89.5t76 64t113 23.5q65 0 116.5 -24.5t80.5 -68t29 -99.5q0 -63 -34.5 -109t-92.5 -81l75 -83q48 43 81 93l115 -65q-43 -74 -100 -133l1 -1l117 -128h-190l-41 44q-97 -52 -199 -52
q-95 0 -160.5 45zM218 137.5q20 -16.5 50 -16.5q6 0 20 2q29 5 70 27l-52 55l-42 44q-32 -17 -49 -34t-17 -39t20 -38.5zM257.5 480.5q9.5 -14.5 40.5 -49.5q31 17 47 34.5t16 37.5q0 23 -15 39.5t-44 16.5q-25 0 -39.5 -17t-14.5 -37q0 -10 9.5 -24.5z" />
    <glyph glyph-name="quotesingle" unicode="'" horiz-adv-x="215" 
d="M24 700h168l-19 -235h-132z" />
    <glyph glyph-name="parenleft" unicode="(" horiz-adv-x="404" 
d="M101.5 -20.5q-51.5 128.5 -51.5 265.5q0 139 53 268t149 226l102 -114q-79 -79 -120 -175.5t-41 -204.5q0 -107 40 -203t116 -173l-102 -113q-94 95 -145.5 223.5z" />
    <glyph glyph-name="parenright" unicode=")" horiz-adv-x="404" 
d="M170.5 42q39.5 96 39.5 203q0 108 -40.5 204.5t-119.5 175.5l102 114q96 -97 149 -226t53 -268q0 -137 -51.5 -265.5t-145.5 -223.5l-102 113q76 77 115.5 173z" />
    <glyph glyph-name="asterisk" unicode="*" horiz-adv-x="523" 
d="M261 292l-58 -81l-117 84l59 81l-95 31l45 136l95 -31v101h143v-101l95 31l45 -136l-95 -31l59 -81l-117 -84z" />
    <glyph glyph-name="plus" unicode="+" horiz-adv-x="537" 
d="M337 395h174v-126h-174v-198h-138v198h-175v126h175v194h138v-194z" />
    <glyph glyph-name="comma" unicode="," horiz-adv-x="223" 
d="M46 156h150l-60 -261h-109z" />
    <glyph glyph-name="hyphen" unicode="-" horiz-adv-x="338" 
d="M20 361h297v-144h-297v144z" />
    <glyph glyph-name="period" unicode="." horiz-adv-x="356" 
d="M115.5 24q-25.5 26 -25.5 63q0 36 25.5 61.5t62.5 25.5q36 0 61.5 -25.5t25.5 -61.5q0 -37 -25.5 -63t-61.5 -26q-37 0 -62.5 26z" />
    <glyph glyph-name="slash" unicode="/" horiz-adv-x="445" 
d="M251 692h169l-242 -692h-168z" />
    <glyph glyph-name="zero" unicode="0" horiz-adv-x="528" 
d="M426.5 127.5q-26.5 -47.5 -72.5 -76t-100 -28.5t-100 28.5t-72.5 76t-26.5 103.5t26.5 103.5t72.5 76t100 28.5t100 -28.5t72.5 -76t26.5 -103.5t-26.5 -103.5zM208 190.5q19 -16.5 46 -16.5t46 16.5t19 40.5t-19 40.5t-46 16.5t-46 -16.5t-19 -40.5t19 -40.5z" />
    <glyph glyph-name="one" unicode="1" horiz-adv-x="335" 
d="M48 647l143 16l64 -655l-143 -16z" />
    <glyph glyph-name="two" unicode="2" horiz-adv-x="522" 
d="M474 668l17 -168q1 -7 1 -20q0 -50 -26 -93.5t-70.5 -69.5t-95.5 -26h-22q-24 0 -53 8l28 -287l-143 -16l-64 656l143 16l17 -175q4 -24 15 -32.5t34 -8.5h45q24 0 37 8.5t11 25.5l-17 165z" />
    <glyph glyph-name="three" unicode="3" horiz-adv-x="753" 
d="M402 333q-53 -45 -122 -45h-19q-20 0 -36 4l28 -284l-143 -16l-64 655l143 16l16 -165q6 -50 50 -50h25q21 0 35 10t13 25v2l-14 139l144 16l14 -147q1 -22 14 -33.5t34 -11.5h11q20 0 34.5 11t13.5 26l-16 162l143 16l16 -171q1 -6 1 -18q0 -50 -26.5 -93t-71 -68
t-94.5 -25h-11q-67 0 -118 45z" />
    <glyph glyph-name="four" unicode="4" horiz-adv-x="660" 
d="M225 290l27 -282l-143 -16l-46 483l-1 6v0l-16 167l143 16l17 -174q3 -22 11 -31t26 -11q-8 32 -8 61q0 60 29 111t78.5 80.5t107.5 29.5q50 0 110.5 -26.5t62.5 -27.5l-64 -144q-25 10 -60 22.5t-47 15.5q-5 1 -13 1q-26 0 -43.5 -19t-17.5 -43q0 -25 16 -43t38 -18h190
v-160h-368q-11 0 -29 2z" />
    <glyph glyph-name="five" unicode="5" horiz-adv-x="710" 
d="M355 43q-51 -43 -117 -43h-11q-52 0 -95 26.5t-68 71.5t-25 98q0 89 13.5 140.5t56 111.5t145.5 175l-22 24l105 107q172 -190 233.5 -267t81 -134.5t19.5 -156.5q0 -53 -25 -98t-68 -71.5t-95 -26.5h-11q-66 0 -117 43zM195 171q12 -10 32 -10h11q19 0 32 10.5t13 24.5
v61h144v-53q1 -21 13 -32t32 -11h11q20 0 32 10t12 25q0 59 -10 93.5t-43.5 79.5t-118.5 141q-89 -98 -121.5 -141t-41.5 -76t-9 -97q0 -15 12 -25z" />
    <glyph glyph-name="six" unicode="6" horiz-adv-x="571" 
d="M529 494l-98 -145h1l-10 -14l-257 -380l-118 90l147 218q-28 9 -52 25q-48 30 -73.5 80.5t-25.5 106.5q0 69 37 125q13 19 53 50.5t89 64.5l71 -140q-82 -47 -95 -66q-13 -21 -13 -37q0 -25 29 -45q17 -14 42 -14q18 0 33.5 7.5t24.5 20.5l97 143z" />
    <glyph glyph-name="seven" unicode="7" horiz-adv-x="616" 
d="M599 609l-224 -616h-134l-223 616l134 54l156 -434l156 434z" />
    <glyph glyph-name="eight" unicode="8" horiz-adv-x="616" 
d="M18 40l224 620h134l223 -620l-135 -53l-155 434l-157 -434z" />
    <glyph glyph-name="nine" unicode="9" horiz-adv-x="588" 
d="M72.5 566.5q28.5 50.5 78 80.5t108.5 30q56 0 103 -27.5t77 -76.5t36 -109l50 -455l-143 -16l-27 243h-96q-59 0 -108.5 29t-78 79t-28.5 111t28.5 111.5zM208 410q21 -19 51 -19h79l-6 57q-4 31 -24 51.5t-49 20.5q-31 0 -51.5 -19.5t-20.5 -45.5t21 -45z" />
    <glyph glyph-name="colon" unicode=":" horiz-adv-x="356" 
d="M115.5 300q-25.5 26 -25.5 63q0 36 25.5 61.5t62.5 25.5q36 0 61.5 -25.5t25.5 -61.5q0 -37 -25.5 -63t-61.5 -26q-37 0 -62.5 26zM115.5 148.5q25.5 25.5 62.5 25.5q36 0 61.5 -25.5t25.5 -61.5q0 -37 -25.5 -63t-61.5 -26q-37 0 -62.5 26t-25.5 63q0 36 25.5 61.5z" />
    <glyph glyph-name="semicolon" unicode=";" horiz-adv-x="373" 
d="M119 156h150l-60 -261h-109zM132 424.5q26 25.5 63 25.5q35 0 61 -25.5t26 -61.5q0 -37 -26 -63t-61 -26q-37 0 -63 26t-26 63q0 36 26 61.5z" />
    <glyph glyph-name="less" unicode="&#x3c;" horiz-adv-x="513" 
d="M453 66l-427 177v117l427 177v-134l-283 -100l283 -103v-134z" />
    <glyph glyph-name="equal" unicode="=" horiz-adv-x="582" 
d="M511 360h-447v114h447v-114zM64 262h447v-115h-447v115z" />
    <glyph glyph-name="greater" unicode="&#x3e;" horiz-adv-x="513" 
d="M337 303l-283 100v134l427 -177v-117l-427 -177v134z" />
    <glyph glyph-name="question" unicode="?" horiz-adv-x="535" 
d="M205 342q22 32 62 63q34 27 49 44t15 43q0 25 -14 40.5t-37 15.5q-26 0 -41.5 -17.5t-15.5 -44.5v-21l-168 8v13q0 63 29 112t81.5 76t119.5 27q65 0 114 -25.5t75.5 -71t26.5 -104.5q0 -58 -21.5 -92t-60.5 -66q-6 -5 -27.5 -22.5t-32 -35.5t-10.5 -38v-20h-166v31
q0 53 22 85zM206 148.5q26 25.5 63 25.5q35 0 60.5 -25.5t25.5 -61.5q0 -37 -25.5 -63t-60.5 -26q-37 0 -63 26t-26 63q0 36 26 61.5z" />
    <glyph glyph-name="at" unicode="@" horiz-adv-x="840" 
d="M201.5 -62q-79.5 43 -127.5 121.5t-48 179.5q0 16 4 54q15 115 75 206.5t156.5 144t217.5 52.5q100 0 176 -45.5t117 -122.5t41 -169q0 -23 -3 -47q-11 -96 -66 -153t-142 -57q-76 0 -113 42q-20 -22 -51.5 -32t-67.5 -10q-49 0 -81 26.5t-41 70.5q-3 20 -3 40q0 23 3 44
q5 39 20 81q19 51 56 77t82 26q46 0 80 -24l3 24h111l-26 -187q-2 -16 -2 -23q0 -24 8.5 -38.5t27.5 -14.5q48 0 62 100q4 28 4 58q0 100 -55 149.5t-150 49.5q-80 0 -143.5 -33.5t-103.5 -95.5t-51 -146q-4 -36 -4 -51q0 -100 58 -152t158 -52q51 0 88.5 12t55.5 28
l73 -108q-36 -31 -99 -49.5t-128 -18.5q-92 0 -171.5 43zM365 208q12 -14 34 -14q30 0 46 33q14 22 16 58q2 24 2 29q0 15 -3 27q-2 15 -13 23t-26 8t-27.5 -8t-20.5 -22q-11 -19 -17 -63q-3 -16 -3 -32q0 -25 12 -39z" />
    <glyph glyph-name="A" unicode="A" horiz-adv-x="670" 
d="M262 711h145l263 -711h-164l-46 143h-249l-46 -143h-164zM423 262l-88 271l-87 -271h175z" />
    <glyph glyph-name="B" unicode="B" horiz-adv-x="640" 
d="M60 0v711h246q134 0 204 -50t70 -144q0 -58 -26.5 -97.5t-77.5 -55.5q58 -14 89.5 -55.5t31.5 -100.5q0 -102 -65 -154.5t-192 -53.5h-280zM336 118q52 0 80.5 24.5t28.5 68.5q0 47 -26 72.5t-75 25.5h-132v-191h124zM313 410q60 0 87 22t27 67q0 48 -28.5 71t-91.5 23
h-95v-183h101z" />
    <glyph glyph-name="C" unicode="C" horiz-adv-x="655" 
d="M596.5 133q-25.5 -56 -89.5 -99t-173 -44q-88 0 -154.5 39t-104 116.5t-37.5 188.5v45q0 58 20 134.5t85.5 141.5t188.5 66q126 0 204 -66.5t88 -185.5h-153q-2 68 -36 100t-103 32q-70 0 -104 -52t-34 -160v-58q0 -117 33 -168.5t107 -51.5q66 0 100 31t36 96h153
q-1 -49 -26.5 -105z" />
    <glyph glyph-name="D" unicode="D" horiz-adv-x="647" 
d="M60 0v711h224q90 0 164.5 -41.5t117.5 -118t43 -176.5v-38q0 -96 -40.5 -173t-113.5 -120.5t-166 -43.5h-229zM286 118q77 0 122 55.5t45 162.5v39q0 101 -42 159t-126 59h-73v-475h74z" />
    <glyph glyph-name="E" unicode="E" horiz-adv-x="561" 
d="M60 711h482v-118h-330v-171h281v-114h-281v-190h329v-118h-481v711z" />
    <glyph glyph-name="F" unicode="F" horiz-adv-x="550" 
d="M60 711h470v-118h-318v-183h287v-119h-287v-291h-152v711z" />
    <glyph glyph-name="G" unicode="G" horiz-adv-x="683" 
d="M517 16.5q-75 -26.5 -164 -26.5q-90 0 -159 38.5t-108 111t-40 171.5l-1 70q-1 91 32 168.5t101 124.5t166 47q129 0 202 -60t84 -177h-147q-10 62 -42 90.5t-92 28.5q-70 0 -109 -57.5t-39 -162.5v-52q0 -110 41 -166.5t122 -56.5q38 0 67 9.5t46 26.5v123h-131v106h285
v-286q-39 -44 -114 -70.5z" />
    <glyph glyph-name="H" unicode="H" horiz-adv-x="703" 
d="M60 711h152v-289h278v289h152v-711h-152v304h-278v-304h-152v711z" />
    <glyph glyph-name="I" unicode="I" horiz-adv-x="297" 
d="M224 0h-152v711h152v-711z" />
    <glyph glyph-name="J" unicode="J" horiz-adv-x="560" 
d="M348 711h153v-489q0 -65 -29.5 -118t-84 -83.5t-126.5 -30.5q-115 0 -177.5 58t-62.5 165h153q0 -54 21 -79.5t66 -25.5q41 0 64 30t23 84v489z" />
    <glyph glyph-name="K" unicode="K" horiz-adv-x="639" 
d="M60 711h152v-326l238 326h190l-250 -315l254 -396h-182l-175 279l-75 -81v-198h-152v711z" />
    <glyph glyph-name="L" unicode="L" horiz-adv-x="539" 
d="M212 118h307v-118h-459v711h152v-593z" />
    <glyph glyph-name="M" unicode="M" horiz-adv-x="874" 
d="M60 711h201l176 -517l175 517h201v-711h-154v158l15 369l-187 -527h-102l-188 526l16 -366v-160h-153v711z" />
    <glyph glyph-name="N" unicode="N" horiz-adv-x="703" 
d="M642 0h-152l-278 470v-470h-152v711h152l278 -470v470h152v-711z" />
    <glyph glyph-name="O" unicode="O" horiz-adv-x="687" 
d="M184.5 33q-69.5 43 -108 119.5t-38.5 174.5v48q0 99 35.5 177.5t105 123.5t165.5 45q91 0 160 -42.5t107 -120.5t38 -180v-42q0 -103 -38 -181.5t-107 -121.5t-160 -43q-90 0 -159.5 43zM232 168.5q38 -58.5 112 -58.5q71 0 110 58t39 166v42q0 109 -38.5 166.5
t-110.5 57.5q-71 0 -110.5 -52.5t-39.5 -152.5v-59q0 -109 38 -167.5z" />
    <glyph glyph-name="P" unicode="P" horiz-adv-x="645" 
d="M212 249v-249h-153v711h276q82 0 143 -30.5t94 -84.5t33 -122t-33 -119t-94 -78.5t-145 -27.5h-121zM335 368q55 0 85 27.5t30 77.5q0 55 -30 87.5t-83 32.5h-125v-225h123z" />
    <glyph glyph-name="Q" unicode="Q" horiz-adv-x="687" 
d="M345 -10q-91 0 -160.5 42.5t-107.5 119.5t-38 177v46q0 103 38 181.5t107 121.5t160 43t160.5 -43.5t107.5 -121.5t38 -178v-42q0 -97 -33.5 -171t-93.5 -118l117 -96l-95 -81l-151 125q-27 -5 -49 -5zM233 168.5q39 -58.5 112 -58.5q71 0 109.5 58t38.5 166v42
q0 109 -38.5 166.5t-110.5 57.5q-73 0 -111.5 -57t-38.5 -165v-42q0 -109 39 -167.5z" />
    <glyph glyph-name="R" unicode="R" horiz-adv-x="652" 
d="M324 258h-112v-258h-153v711h273q125 0 195 -56t70 -158q0 -145 -129 -201l154 -289v-7h-165zM335 376q52 0 80.5 29t28.5 79q0 51 -29 79.5t-84 28.5h-119v-216h123z" />
    <glyph glyph-name="S" unicode="S" horiz-adv-x="622" 
d="M403 252q-20 16 -46.5 27t-74.5 28q-61 19 -95 36q-132 66 -132 181q0 62 37 106.5t98.5 67.5t133.5 23q77 0 136.5 -28t92.5 -78.5t33 -113.5h-153q0 48 -30.5 75.5t-82.5 27.5q-51 0 -82 -22.5t-31 -58.5q0 -32 32 -56q18 -14 41.5 -24t47 -18t30.5 -11q79 -25 120 -49
q109 -65 109 -177q0 -58 -30.5 -103t-89 -70t-140.5 -25q-79 0 -145.5 26.5t-107.5 79.5t-41 130h154q0 -61 34 -90.5t106 -29.5q48 0 77 22t29 59q0 41 -30 65z" />
    <glyph glyph-name="T" unicode="T" horiz-adv-x="626" 
d="M607 593h-220v-593h-153v593h-215v118h588v-118z" />
    <glyph glyph-name="U" unicode="U" horiz-adv-x="665" 
d="M607 711v-473q0 -115 -73 -181.5t-202 -66.5q-84 0 -146.5 30t-96 86t-33.5 132v473h155v-473q0 -64 31 -97t90 -33q60 0 91 32.5t31 97.5v473h153z" />
    <glyph glyph-name="V" unicode="V" horiz-adv-x="653" 
d="M1 711h169l140 -481l16 -57l16 57l139 481h172l-244 -711h-167z" />
    <glyph glyph-name="W" unicode="W" horiz-adv-x="874" 
d="M13 711h153l82 -416l11 -58l14 60l97 414h130l99 -415l13 -59l11 60l83 414h152l-156 -711h-159l-90 363l-18 75l-18 -76l-89 -362h-158z" />
    <glyph glyph-name="X" unicode="X" horiz-adv-x="633" 
d="M316 463l131 248h175l-205 -352l211 -359h-177l-134 254l-136 -254h-176l211 359l-205 352h175z" />
    <glyph glyph-name="Y" unicode="Y" horiz-adv-x="624" 
d="M312 388l146 323h166l-234 -454v-257h-156v257l-233 454h165z" />
    <glyph glyph-name="Z" unicode="Z" horiz-adv-x="609" 
d="M225 118h357v-118h-548v81l354 512h-354v118h543v-79z" />
    <glyph glyph-name="bracketleft" unicode="[" horiz-adv-x="335" 
d="M33 801h246v-144h-78v-670h79v-144h-247v958z" />
    <glyph glyph-name="backslash" unicode="\" horiz-adv-x="445" 
d="M267 0l-241 692h168l241 -692h-168z" />
    <glyph glyph-name="bracketright" unicode="]" horiz-adv-x="316" 
d="M280 -158h-247v145h78v669h-78v144h247v-958z" />
    <glyph glyph-name="asciicircum" unicode="^" horiz-adv-x="443" 
d="M222 592l-90 -236h-111l146 355h109l147 -355h-111z" />
    <glyph glyph-name="underscore" unicode="_" horiz-adv-x="447" 
d="M7 126h433v-126h-433v126z" />
    <glyph glyph-name="a" unicode="a" horiz-adv-x="531" 
d="M339 53q-46 -63 -137 -63q-49 0 -89.5 20.5t-64 56.5t-23.5 80q0 84 63 127.5t183 43.5h62v36q0 40 -19 60.5t-56 20.5q-35 0 -54 -17.5t-19 -49.5h-147q0 49 29 88t81 60.5t117 21.5q99 0 156 -48.5t59 -132.5v-237q1 -74 21 -113v-7h-146q-9 16 -16 53zM190.5 111.5
q17.5 -16.5 46.5 -16.5q33 0 57.5 14t38.5 37v93h-58q-50 0 -76 -21t-26 -63q0 -27 17.5 -43.5z" />
    <glyph glyph-name="b" unicode="b" horiz-adv-x="561" 
d="M190 61l-6 -61h-133v740h148v-262q48 60 127 60q98 0 152 -71t53 -199v-8q0 -129 -53.5 -199t-150.5 -70q-88 0 -137 70zM290 104q52 0 72.5 40t20.5 125q0 81 -23 118t-71 37q-28 0 -53 -14.5t-37 -38.5v-214q24 -53 91 -53z" />
    <glyph glyph-name="c" unicode="c" horiz-adv-x="518" 
d="M93 62.5q-65 72.5 -65 199.5v8q0 76 27.5 137t82 96t133.5 35q101 0 160.5 -56t59.5 -152h-138q0 44 -23 69t-63 25q-46 0 -68 -37t-24 -115v-14q-1 -82 22 -118t72 -36q39 0 61.5 21.5t22.5 59.5h138q0 -56 -28 -100.5t-77.5 -69.5t-113.5 -25q-114 0 -179 72.5z" />
    <glyph glyph-name="d" unicode="d" horiz-adv-x="561" 
d="M87 59.5q-54 68.5 -58 194.5v14q0 127 54.5 198.5t150.5 71.5q78 0 127 -63v265h148v-740h-133l-7 63q-51 -72 -136 -72q-92 0 -146 68.5zM200.5 143q23.5 -39 69.5 -39q65 0 91 56v207q-24 57 -90 57q-88 0 -94 -139v-27q0 -76 23.5 -115z" />
    <glyph glyph-name="e" unicode="e" horiz-adv-x="539" 
d="M160 23.5q-61 32.5 -95 91.5t-34 136v15q0 80 30 141.5t86.5 96t134.5 34.5q109 0 172 -68.5t63 -189.5v-59h-336v-5q8 -52 42 -82t85 -30q81 0 127 58l67 -80q-31 -42 -85 -66.5t-118 -24.5q-78 0 -139 32.5zM373 313v13q0 46 -24 72t-68 26q-42 0 -67 -28.5t-33 -82.5
h192z" />
    <glyph glyph-name="f" unicode="f" horiz-adv-x="356" 
d="M88 411h-79v102h79v47q0 88 51 137t143 49q38 0 75 -10l1 -108q-15 4 -43 4q-79 0 -79 -73v-46h107v-102h-107v-411h-148v411z" />
    <glyph glyph-name="g" unicode="g" horiz-adv-x="572" 
d="M152.5 -174.5q-50.5 21.5 -85.5 58.5l60 82q29 -27 59 -40t68 -13q117 0 117 122v25q-46 -60 -127 -60q-64 0 -112 32.5t-74.5 93t-26.5 142.5v6q0 80 26.5 140t75 92t112.5 32q88 0 136 -63l5 53h134v-497q0 -39 -20.5 -91t-78.5 -94t-161 -42q-57 0 -107.5 21.5z
M206 143.5q27 -39.5 76 -39.5q63 0 89 47v216q-26 47 -88 47q-50 0 -77 -41.5t-27 -117.5q0 -72 27 -111.5z" />
    <glyph glyph-name="h" unicode="h" horiz-adv-x="562" 
d="M47 740h148v-278q26 37 62 56.5t79 19.5q87 0 131.5 -51t44.5 -153v-334h-147v332q0 48 -19.5 70t-64.5 22q-61 0 -86 -48v-376h-148v740z" />
    <glyph glyph-name="i" unicode="i" horiz-adv-x="266" 
d="M207 0h-148v528h148v-528zM72.5 716q23.5 21 60.5 21t60 -21.5t23 -53.5t-23 -52.5t-60 -20.5t-60.5 21t-23.5 53t23.5 53z" />
    <glyph glyph-name="j" unicode="j" horiz-adv-x="263" 
d="M210 528v-529q0 -90 -51 -139.5t-143 -49.5q-37 0 -75 8l1 111q24 -4 47 -4q36 0 54.5 19t18.5 56v528h148zM75.5 716q23.5 21 60.5 21t60 -21.5t23 -53.5t-23 -52.5t-60 -20.5t-60.5 21t-23.5 53t23.5 53z" />
    <glyph glyph-name="k" unicode="k" horiz-adv-x="538" 
d="M51 740h148v-400l17 21l145 167h176l-192 -218l205 -310h-169l-132 208l-50 -49v-159h-148v740z" />
    <glyph glyph-name="l" unicode="l" horiz-adv-x="266" 
d="M207 0h-148v740h148v-740z" />
    <glyph glyph-name="m" unicode="m" horiz-adv-x="865" 
d="M51 528h139l4 -72q27 40 67 61t89 21q106 0 139 -89q25 43 66 66t93 23q162 0 166 -194v-344h-148v335q0 47 -16.5 68t-56.5 21q-26 0 -46 -11q-28 -16 -41 -47v-366h-147v335q0 47 -16.5 68t-57.5 21q-30 0 -54 -19q-20 -14 -32 -39v-366h-148v528z" />
    <glyph glyph-name="n" unicode="n" horiz-adv-x="562" 
d="M48 528h138l5 -72q26 40 66 61t90 21q165 0 165 -197v-341h-147v335q0 47 -19 68t-65 21q-59 0 -85 -54v-370h-148v528z" />
    <glyph glyph-name="o" unicode="o" horiz-adv-x="561" 
d="M100.5 58q-67.5 68 -72.5 184l-1 28q-2 72 26 133.5t86 98t140 36.5q77 0 134 -33t87.5 -94.5t30.5 -144.5v-8q0 -81 -30.5 -141.5t-87.5 -93.5t-133 -33q-112 0 -179.5 68zM202 142.5q27 -38.5 78 -38.5q50 0 77.5 38t27.5 110v18q0 75 -27 114.5t-79 39.5
q-48 0 -74.5 -35t-29.5 -101v-30q0 -77 27 -115.5z" />
    <glyph glyph-name="p" unicode="p" horiz-adv-x="561" 
d="M51 528h138l5 -56q48 66 132 66q97 0 151 -71.5t54 -198.5v-8q0 -82 -25 -142.5t-71 -93.5t-108 -33q-81 0 -128 60v-236h-148v713zM291 104q89 0 92 147v19q0 76 -23.5 115t-69.5 39q-68 0 -91 -53v-212q24 -55 92 -55z" />
    <glyph glyph-name="q" unicode="q" horiz-adv-x="560" 
d="M233 -9q-93 0 -148 70t-56 198v11q0 126 54.5 197t150.5 71q86 0 137 -72l11 62h127v-713h-148v237q-46 -61 -128 -61zM270 104q67 0 91 54v213q-23 53 -90 53q-43 0 -67 -35t-27 -103v-28q2 -154 93 -154z" />
    <glyph glyph-name="r" unicode="r" horiz-adv-x="373" 
d="M52 528h138l5 -75q43 85 123 85q26 0 45 -6l-3 -137q-15 4 -52 4q-84 0 -109 -61v-338h-147v528z" />
    <glyph glyph-name="s" unicode="s" horiz-adv-x="510" 
d="M306.5 188.5q-27.5 14.5 -85.5 26.5q-183 40 -183 160q0 47 27 84t75 58t111 21q67 0 118 -21t79 -59.5t28 -88.5h-147q0 35 -20 53.5t-59 18.5q-32 0 -52.5 -17t-20.5 -42q0 -29 32 -44t90 -27q36 -8 50 -13q64 -21 95 -57.5t31 -90.5q0 -47 -28 -83t-79 -56t-117 -20
q-60 0 -113 21.5t-85 61t-32 91.5h138q1 -38 26.5 -57.5t68.5 -19.5q39 0 59.5 16t20.5 42q0 28 -27.5 42.5z" />
    <glyph glyph-name="t" unicode="t" horiz-adv-x="340" 
d="M226 662v-134h91v-102h-91v-259q0 -29 8 -42.5t29 -16.5q6 -2 21 -2q25 0 41 4v-106q-38 -13 -88 -13q-81 0 -120 39t-39 119v277h-70v102h70v134h148z" />
    <glyph glyph-name="u" unicode="u" horiz-adv-x="562" 
d="M92.5 40q-44.5 50 -44.5 146v342h148v-344q0 -80 75 -80q69 0 94 53v371h148v-528h-137l-5 64q-50 -74 -147 -74q-87 0 -131.5 50z" />
    <glyph glyph-name="v" unicode="v" horiz-adv-x="512" 
d="M255 176l96 352h156l-177 -528h-150l-177 528h156z" />
    <glyph glyph-name="w" unicode="w" horiz-adv-x="730" 
d="M206 262l13 -74l93 340h103l92 -333l11 64l54 269h141l-128 -528h-125l-82 285l-14 51l-15 -51l-82 -285h-125l-127 528h140z" />
    <glyph glyph-name="x" unicode="x" horiz-adv-x="510" 
d="M257 372l89 156h153l-144 -257l152 -271h-154l-96 168l-94 -168h-155l153 271l-145 257h155z" />
    <glyph glyph-name="y" unicode="y" horiz-adv-x="527" 
d="M65 -181v106q7 -1 22 -1q43 0 63 19q12 9 22 35l17 41l-188 509h157l98 -322l100 322h157l-227 -617q-18 -51 -58.5 -76t-98.5 -25q-31 0 -64 9z" />
    <glyph glyph-name="z" unicode="z" horiz-adv-x="510" 
d="M219 114h259v-114h-445v83l250 330h-239v114h426v-80z" />
    <glyph glyph-name="braceleft" unicode="{" horiz-adv-x="398" 
d="M136.5 -123.5q-35.5 33.5 -35.5 92.5v200q0 88 -71 90v131q71 2 71 88v197q0 59 35.5 92.5t96.5 33.5h110v-144h-28q-18 0 -32 -17.5t-14 -41.5v-145q0 -102 -64 -129q64 -25 64 -129v-149q0 -24 14 -41.5t32 -17.5h28v-144h-110q-61 0 -96.5 33.5z" />
    <glyph glyph-name="bar" unicode="|" horiz-adv-x="353" 
d="M100 700h153v-806h-153v806z" />
    <glyph glyph-name="braceright" unicode="}" horiz-adv-x="398" 
d="M55 -157v144h28q18 0 32 17.5t14 41.5v149q0 104 64 129q-64 27 -64 129v145q0 24 -14 41.5t-32 17.5h-28v144h110q61 0 96.5 -33.5t35.5 -92.5v-197q0 -86 71 -88v-131q-71 -2 -71 -90v-200q0 -59 -35.5 -92.5t-96.5 -33.5h-110z" />
    <glyph glyph-name="asciitilde" unicode="~" horiz-adv-x="639" 
d="M543.5 239.5q-43.5 -55.5 -115.5 -55.5q-39 0 -74 21q-17 9 -33.5 23t-21.5 18q-26 22 -44 33t-37 11q-28 0 -46 -25t-18 -64l-104 2q0 93 42.5 147t115.5 54q41 0 77 -21q22 -12 57 -43q26 -22 42 -32t34 -10q28 0 46 25.5t18 64.5l105 -1q0 -92 -43.5 -147.5z" />
    <glyph glyph-name="uni00A0" unicode="&#xa0;" horiz-adv-x="211" 
 />
    <glyph glyph-name="brokenbar" unicode="&#xa6;" horiz-adv-x="248" 
d="M61 -132v385h128v-385h-128zM61 711h128v-370h-128v370z" />
    <glyph glyph-name="copyright" unicode="&#xa9;" horiz-adv-x="788" 
d="M215 39.5q-79 49.5 -125 133.5t-46 183q0 118 48 200.5t126.5 123.5t171.5 41q96 0 175 -44.5t125.5 -127.5t46.5 -193q0 -101 -47 -185t-126.5 -132.5t-173.5 -48.5q-96 0 -175 49.5zM136.5 200q38.5 -71 105.5 -113t148 -42t148 41.5t106 113t39 156.5
q0 88 -38.5 158.5t-105.5 111t-149 40.5q-76 0 -142.5 -31t-108 -101t-41.5 -180q0 -83 38.5 -154zM215 384q0 86 46.5 137.5t122.5 51.5q78 0 120 -40.5t42 -113.5h-69q0 94 -93 94q-47 0 -73.5 -34.5t-26.5 -93.5v-57q0 -60 26 -94.5t74 -34.5q47 0 70 22t23 71h69
q0 -73 -42.5 -113t-119.5 -40t-123 51.5t-46 139.5v54z" />
    <glyph glyph-name="guillemotleft" unicode="&#xab;" horiz-adv-x="490" 
d="M182 350.5q-14 -32.5 -14 -68.5q0 -72 51 -123l-90 -88q-41 43 -63.5 98t-22.5 113q0 61 24.5 118t69.5 100l86 -92q-27 -25 -41 -57.5zM282.5 400q24.5 57 69.5 100l85 -92q-26 -25 -40 -57.5t-14 -68.5q0 -71 50 -123l-89 -88q-41 43 -63.5 98t-22.5 113q0 61 24.5 118
z" />
    <glyph glyph-name="logicalnot" unicode="&#xac;" horiz-adv-x="548" 
d="M466 184h-88v131h-317v75h405v-206z" />
    <glyph glyph-name="registered" unicode="&#xae;" horiz-adv-x="789" 
d="M215 39.5q-79 49.5 -125 133.5t-46 183q0 118 48 200.5t126.5 123.5t171.5 41q96 0 175 -44.5t125.5 -127.5t46.5 -193q0 -101 -47 -185t-126.5 -132.5t-173.5 -48.5q-96 0 -175 49.5zM136.5 200q38.5 -71 105.5 -113t148 -42t148 41.5t106 113t39 156.5
q0 88 -38.5 158.5t-105.5 111t-149 40.5q-76 0 -142.5 -31t-108 -101t-41.5 -180q0 -83 38.5 -154zM250 568h134q75 0 115.5 -33t40.5 -94q0 -55 -54 -85q27 -14 39.5 -41t12.5 -68q0 -35 1.5 -54t6.5 -30v-8h-68q-7 21 -7 94q0 38 -16.5 55t-55.5 17h-82v-166h-67v413z
M385 380q39 0 64 17t25 45q0 36 -18.5 51.5t-65.5 15.5h-73v-129h68z" />
    <glyph glyph-name="degree" unicode="&#xb0;" horiz-adv-x="395" 
d="M130 471q-31 18 -49 48.5t-18 66.5q0 37 18.5 68t49 49t66.5 18t66.5 -18t48.5 -49t18 -68q0 -36 -18 -66.5t-48.5 -48.5t-66.5 -18t-67 18zM150.5 540q19.5 -19 46.5 -19q28 0 46 18.5t18 46.5t-18.5 47.5t-45.5 19.5q-28 0 -47 -19.5t-19 -47.5q0 -27 19.5 -46z" />
    <glyph glyph-name="plusminus" unicode="&#xb1;" horiz-adv-x="537" 
d="M328 465h159v-119h-159v-177h-129v177h-159v119h159v165h129v-165zM50 116h426v-116h-426v116z" />
    <glyph glyph-name="uni00B2" unicode="&#xb2;" horiz-adv-x="373" 
d="M337 285h-301v66l140 125q25 24 38.5 45t13.5 34q0 43 -49 43q-24 0 -38 -15.5t-14 -40.5l-95 5q0 58 39 93.5t104 35.5q73 0 112.5 -31.5t39.5 -89.5q0 -36 -25 -72q-23 -31 -84 -76l-51 -45h170v-77z" />
    <glyph glyph-name="uni00B3" unicode="&#xb3;" horiz-adv-x="373" 
d="M135 513h42q28 0 42.5 11.5t14.5 33.5q0 19 -14 29.5t-39 10.5q-22 0 -37 -9t-15 -24h-99q0 50 41 80.5t106 30.5q72 0 114 -30t42 -81q0 -58 -69 -82q77 -20 77 -91q0 -50 -45 -81t-119 -31q-70 0 -112.5 33.5t-42.5 88.5h101q0 -18 17 -31t44 -13q28 0 42 12.5t14 32.5
q0 47 -61 47h-44v63z" />
    <glyph glyph-name="uni00B5" unicode="&#xb5;" horiz-adv-x="629" 
d="M214 528v-310q1 -58 22 -85t69 -27q74 0 97 62v360h148v-528h-139l-2 37q-42 -47 -111 -47q-52 0 -84 29v-222h-148v731h148z" />
    <glyph glyph-name="uni00B9" unicode="&#xb9;" horiz-adv-x="373" 
d="M258 285h-98v272l-91 -20v74l180 58h9v-384z" />
    <glyph glyph-name="guillemotright" unicode="&#xbb;" horiz-adv-x="491" 
d="M423.5 400q24.5 -57 24.5 -118q0 -58 -22.5 -113t-63.5 -98l-90 88q50 50 50 123q0 37 -13.5 69.5t-40.5 56.5l86 92q45 -43 69.5 -100zM139 500q44 -43 68.5 -100t24.5 -118q0 -58 -22 -113t-63 -98l-90 88q50 52 50 123q0 36 -14 68.5t-40 57.5z" />
    <glyph glyph-name="onequarter" unicode="&#xbc;" horiz-adv-x="809" 
d="M239 268h-99v272l-90 -20v74l180 59h9v-385zM538 646l70 -36l-347 -556l-70 36zM616 439h100v-226h43v-79h-43v-80h-100v80h-167l-7 63zM616 213v111l-9 -14l-71 -97h80z" />
    <glyph glyph-name="onehalf" unicode="&#xbd;" horiz-adv-x="859" 
d="M239 268h-99v272l-90 -20v74l180 59h9v-385zM538 646l70 -36l-347 -556l-70 36zM543 420.5q39 35.5 104 35.5q73 0 112.5 -31.5t39.5 -89.5q0 -36 -25 -72q-23 -31 -84 -76l-51 -45h170v-77h-301v66l140 125q25 24 38.5 45t13.5 34q0 43 -49 43q-24 0 -38 -15.5
t-14 -40.5l-95 5q0 58 39 93.5z" />
    <glyph glyph-name="threequarters" unicode="&#xbe;" horiz-adv-x="861" 
d="M162 499h42q28 0 43 11.5t15 33.5q0 19 -14.5 29.5t-39.5 10.5q-21 0 -36 -9t-15 -23h-99q0 49 41 79.5t106 30.5q73 0 114 -29.5t41 -80.5q0 -59 -68 -83q76 -19 76 -90q0 -51 -44.5 -82t-118.5 -31q-70 0 -112.5 33.5t-42.5 88.5h100q0 -18 17 -31t45 -13t42 12.5
t14 32.5q0 47 -62 47h-44v63zM597 646l70 -36l-347 -556l-70 36zM668 450h100v-226h43v-79h-43v-80h-100v80h-167l-7 63zM668 224v111l-9 -15l-71 -96h80z" />
    <glyph glyph-name="multiply" unicode="&#xd7;" horiz-adv-x="527" 
d="M29 165l151 154l-150 153l85 81l147 -150l147 150l84 -81l-149 -153l151 -154l-85 -80l-148 150l-149 -150z" />
    <glyph glyph-name="divide" unicode="&#xf7;" horiz-adv-x="569" 
d="M537 283h-507v107h507v-107zM223 189q23 21 60 21t60 -20.5t23 -52.5t-23 -53t-60 -21q-36 0 -59.5 21t-23.5 52q0 32 23 53zM223 582.5q23 20.5 60 20.5t60 -20.5t23 -52.5t-23 -53t-60 -21q-36 0 -59.5 21t-23.5 53t23 52.5z" />
    <glyph glyph-name="uni060C" unicode="&#x60c;" horiz-adv-x="353" 
d="M93.5 154q5.5 15 23 45t62.5 99l64 -43q-46 -64 -56 -82q33 -4 55 -28.5t22 -57.5q0 -36 -25.5 -62t-61.5 -26q-37 0 -63 25.5t-26 62.5v34q0 18 5.5 33z" />
    <glyph glyph-name="uni0615" unicode="&#x615;" 
d="M-6 532h42l12 17l-9 200l68 3l6 -120q17 18 34.5 26t38.5 8q43 0 71.5 -31t28.5 -77q0 -41 -29.5 -71t-70.5 -30h-192v75zM186 532q12 0 22.5 8.5t10.5 17.5q0 14 -9 23t-24 9q-14 0 -25.5 -11t-37.5 -47h63z" />
    <glyph glyph-name="uni061B" unicode="&#x61b;" horiz-adv-x="353" 
d="M114 24q-26 26 -26 63q0 36 26 61.5t63 25.5q35 0 61 -25.5t26 -61.5q0 -37 -26 -63t-61 -26q-37 0 -63 26zM88 397q0 18 5.5 33t23 45t62.5 99l64 -43q-46 -64 -56 -82q33 -4 55 -28.5t22 -57.5q0 -36 -25.5 -62t-61.5 -26q-37 0 -63 25.5t-26 62.5v34z" />
    <glyph glyph-name="uni061F" unicode="&#x61f;" horiz-adv-x="554" 
d="M208 205v33q0 18 -3 26.5t-11.5 17t-34.5 29.5q-42 34 -63.5 57.5t-31.5 49.5t-10 64q0 63 30 115.5t81 83.5t112 31q60 0 111.5 -31.5t81.5 -84.5t30 -116v-40h-144v40q0 29 -23 50t-56 21t-56 -20.5t-23 -48.5q0 -25 16.5 -43t51.5 -42q46 -31 61 -46t20 -37t5 -76v-33
h-144zM216.5 115q25.5 25 62.5 25q36 0 61.5 -25t25.5 -61q0 -37 -26 -63t-61 -26q-37 0 -62.5 26t-25.5 63q0 36 25.5 61z" />
    <glyph glyph-name="uni0640" unicode="&#x640;" horiz-adv-x="300" 
d="M-5 161h310l9 -81l-9 -80h-310v161z" />
    <glyph glyph-name="uni064B" unicode="&#x64b;" 
d="M0 494l239 57l17 -78l-239 -57zM239 687l17 -79l-239 -57l-17 78z" />
    <glyph glyph-name="uni064C" unicode="&#x64c;" 
d="M32 574l9 2q18 7 28 20t10 28q0 19 -13.5 32t-35.5 13q-11 0 -17 -2l-13 62q16 4 34 4q41 0 69.5 -25t34.5 -60q2 -12 2 -18q0 -10 -4 -26l37 10l-13 53q-4 20 -4 29q0 36 21.5 62t59.5 35q15 3 30 3q48 0 80.5 -32.5t32.5 -83.5q0 -44 -28.5 -76t-80.5 -45l-224 -55z
M241 634l12 3q57 15 57 46q0 16 -10.5 27t-29.5 11q-3 0 -15 -2q-28 -7 -28 -26q0 -2 2 -10z" />
    <glyph glyph-name="uni064D" unicode="&#x64d;" 
d="M0 -432l239 57l17 -78l-239 -57zM239 -239l17 -79l-239 -57l-17 78z" />
    <glyph glyph-name="uni064E" unicode="&#x64e;" 
d="M0 579l239 57l17 -78l-239 -58z" />
    <glyph glyph-name="uni064F" unicode="&#x64f;" 
d="M0 578l85 20l-13 51q-3 14 -3 27q0 36 23 63t62 37q20 4 31 4q44 0 77.5 -26t40.5 -67q2 -16 2 -23q0 -43 -30 -75.5t-83 -46.5l-175 -42zM158 616l16 4q26 6 40 18t14 27q0 17 -11 28t-30 11q-5 0 -15 -2q-28 -7 -28 -27q0 -2 2 -10z" />
    <glyph glyph-name="uni0650" unicode="&#x650;" 
d="M0 -313l239 57l17 -78l-239 -58z" />
    <glyph glyph-name="uni0651" unicode="&#x651;" 
d="M18 675l61 -17l-11 -51q-6 -26 25 -26q12 0 18 4.5t6 7.5l2 68h59l3 -68q0 -4 6 -8t18 -4q32 0 26 22l-17 72l62 18l22 -75q4 -12 4 -28q0 -38 -27.5 -64t-69.5 -26q-16 0 -31.5 5.5t-24.5 14.5q-10 -9 -25 -14.5t-31 -5.5q-40 0 -66.5 25.5t-26.5 63.5q0 15 4 28z" />
    <glyph glyph-name="uni0652" unicode="&#x652;" 
d="M70.5 525.5q-28.5 17.5 -45.5 46.5t-17 63q0 33 17 62t45.5 46.5t61.5 17.5t61 -17.5t45 -46.5t17 -62q0 -34 -16.5 -63t-45 -46.5t-61.5 -17.5t-61.5 17.5zM94.5 598q15.5 -15 37.5 -15t37 15t15 37q0 20 -15 35t-37 15t-37.5 -15t-15.5 -35q0 -22 15.5 -37z" />
    <glyph glyph-name="uni0653" unicode="&#x653;" 
d="M27 682.5q27 27.5 69 27.5q7 0 23 -2l101 -19q5 -1 13 -1q22 0 22 19v4l72 5v-25q0 -45 -27 -72.5t-69 -27.5q-7 0 -23 2l-101 19q-5 1 -13 1q-11 0 -16.5 -5t-5.5 -14v-4l-72 -5v25q0 45 27 72.5z" />
    <glyph glyph-name="uni0654" unicode="&#x654;" 
d="M0 574l67 16q-8 13 -13 34q-4 20 -4 29q0 47 33 80.5t79 33.5q25 0 89 -12l-14 -78q-49 9 -74 9q-19 0 -31 -10.5t-12 -25.5q0 -16 13.5 -27t31.5 -10l116 28l17 -79l-281 -66z" />
    <glyph glyph-name="uni0655" unicode="&#x655;" 
d="M172 -393l-155 -37l-17 77l67 16q-9 16 -14 34q-4 20 -4 29q0 47 33 80.5t80 33.5q25 0 89 -12l-14 -78q-49 9 -74 9q-19 0 -31 -10.5t-12 -25.5t12.5 -25.5t28.5 -10.5q7 0 10 1l109 26l17 -78l-110 -27q-10 -2 -15 -2z" />
    <glyph glyph-name="uni0656" unicode="&#x656;" 
d="M2 -238h68v-162h-68v162z" />
    <glyph glyph-name="uni0658" unicode="&#x658;" 
d="M117 443q-66 0 -104.5 43.5t-38.5 116.5q0 53 20 110l71 -28q-17 -47 -17 -84q0 -36 17.5 -55.5t50.5 -19.5q16 0 32 4q49 12 64.5 20.5t15.5 28.5q0 8 -1 13q-4 29 -11 74t-10 67l73 12q1 -5 10 -63.5t11 -77.5q2 -20 2 -28q0 -53 -33.5 -81.5t-103.5 -45.5
q-25 -6 -48 -6z" />
    <glyph glyph-name="uni065A" unicode="&#x65a;" 
d="M65 665l28 -127l28 127h80l-72 -208h-72l-72 208h80z" />
    <glyph glyph-name="uni065B" unicode="&#x65b;" 
d="M58 675h72l72 -208h-80l-28 127l-28 -127h-80z" />
    <glyph glyph-name="uni0660" unicode="&#x660;" horiz-adv-x="409" 
d="M72 238l131 132l45 -45l87 -87l-132 -131z" />
    <glyph glyph-name="uni0661" unicode="&#x661;" horiz-adv-x="335" 
d="M48 647l143 16l64 -655l-143 -16z" />
    <glyph glyph-name="uni0662" unicode="&#x662;" horiz-adv-x="522" 
d="M474 668l17 -168q1 -7 1 -20q0 -50 -26 -93.5t-70.5 -69.5t-95.5 -26h-22q-24 0 -53 8l28 -287l-143 -16l-64 656l143 16l17 -175q4 -24 15 -32.5t34 -8.5h45q24 0 37 8.5t11 25.5l-17 165z" />
    <glyph glyph-name="uni0663" unicode="&#x663;" horiz-adv-x="753" 
d="M402 333q-53 -45 -122 -45h-19q-20 0 -36 4l28 -284l-143 -16l-64 655l143 16l16 -165q6 -50 50 -50h25q21 0 35 10t13 25v2l-14 139l144 16l14 -147q1 -22 14 -33.5t34 -11.5h11q20 0 34.5 11t13.5 26l-16 162l143 16l16 -171q1 -6 1 -18q0 -50 -26.5 -93t-71 -68
t-94.5 -25h-11q-67 0 -118 45z" />
    <glyph glyph-name="uni0664" unicode="&#x664;" horiz-adv-x="660" 
d="M225 290l27 -282l-143 -16l-46 483l-1 6v0l-16 167l143 16l17 -174q3 -22 11 -31t26 -11q-8 32 -8 61q0 60 29 111t78.5 80.5t107.5 29.5q50 0 110.5 -26.5t62.5 -27.5l-64 -144q-25 10 -60 22.5t-47 15.5q-5 1 -13 1q-26 0 -43.5 -19t-17.5 -43q0 -25 16 -43t38 -18h190
v-160h-368q-11 0 -29 2z" />
    <glyph glyph-name="uni0665" unicode="&#x665;" horiz-adv-x="710" 
d="M355 43q-51 -43 -117 -43h-11q-52 0 -95 26.5t-68 71.5t-25 98q0 89 13.5 140.5t56 111.5t145.5 175l-22 24l105 107q172 -190 233.5 -267t81 -134.5t19.5 -156.5q0 -53 -25 -98t-68 -71.5t-95 -26.5h-11q-66 0 -117 43zM195 171q12 -10 32 -10h11q19 0 32 10.5t13 24.5
v61h144v-53q1 -21 13 -32t32 -11h11q20 0 32 10t12 25q0 59 -10 93.5t-43.5 79.5t-118.5 141q-89 -98 -121.5 -141t-41.5 -76t-9 -97q0 -15 12 -25z" />
    <glyph glyph-name="uni0666" unicode="&#x666;" horiz-adv-x="571" 
d="M529 494l-98 -145h1l-10 -14l-257 -380l-118 90l147 218q-28 9 -52 25q-48 30 -73.5 80.5t-25.5 106.5q0 69 37 125q13 19 53 50.5t89 64.5l71 -140q-82 -47 -95 -66q-13 -21 -13 -37q0 -25 29 -45q17 -14 42 -14q18 0 33.5 7.5t24.5 20.5l97 143z" />
    <glyph glyph-name="uni0667" unicode="&#x667;" horiz-adv-x="616" 
d="M599 609l-224 -616h-134l-223 616l134 54l156 -434l156 434z" />
    <glyph glyph-name="uni0668" unicode="&#x668;" horiz-adv-x="616" 
d="M18 40l224 620h134l223 -620l-135 -53l-155 434l-157 -434z" />
    <glyph glyph-name="uni0669" unicode="&#x669;" horiz-adv-x="588" 
d="M72.5 566.5q28.5 50.5 78 80.5t108.5 30q56 0 103 -27.5t77 -76.5t36 -109l50 -455l-143 -16l-27 243h-96q-59 0 -108.5 29t-78 79t-28.5 111t28.5 111.5zM208 410q21 -19 51 -19h79l-6 57q-4 31 -24 51.5t-49 20.5q-31 0 -51.5 -19.5t-20.5 -45.5t21 -45z" />
    <glyph glyph-name="uni066A" unicode="&#x66a;" horiz-adv-x="560" 
d="M315 692h168l-241 -692h-168zM45 666.5q26 25.5 63 25.5q35 0 61 -25.5t26 -61.5t-25.5 -62t-61.5 -26q-37 0 -63 25.5t-26 62.5q0 36 26 61.5zM391 150q26 25 63 25q35 0 60.5 -25t25.5 -61q0 -37 -25.5 -63t-60.5 -26q-37 0 -63 26t-26 63q0 36 26 61z" />
    <glyph glyph-name="uni066B" unicode="&#x66b;" horiz-adv-x="415" 
d="M40 -74l216 536l99 -43l-216 -536z" />
    <glyph glyph-name="uni066C" unicode="&#x66c;" horiz-adv-x="273" 
d="M43 -98l84 238l103 -36l-84 -238z" />
    <glyph glyph-name="uni066D" unicode="&#x66d;" horiz-adv-x="523" 
d="M261 292l-58 -81l-117 84l59 81l-95 31l45 136l95 -31v101h143v-101l95 31l45 -136l-95 -31l59 -81l-117 -84z" />
    <glyph glyph-name="uni066E" unicode="&#x66e;" horiz-adv-x="985" 
d="M267 5.5q-59 5.5 -103 24.5q-55 25 -84.5 72.5t-29.5 108.5q0 29 10 71l38 147l138 -41l-39 -154q-4 -13 -4 -24q0 -12 6.5 -19t21.5 -14q20 -10 69.5 -13t202.5 -3h1q148 0 198 4t72 13q15 6 21.5 13.5t6.5 23.5q0 13 -6 35l-38 139l138 41l38 -139q11 -38 11 -79
q0 -62 -29 -110t-84 -72q-44 -20 -105 -25t-223 -5h-1v0v0v0v0h-10q-157 0 -216 5.5z" />
    <glyph glyph-name="uni066F" unicode="&#x66f;" horiz-adv-x="774" 
d="M327 -247q-85 0 -147.5 38.5t-95.5 109t-33 163.5q0 103 39 214l136 -54q-33 -96 -33 -164q0 -71 34.5 -109t98.5 -38q26 0 63 8q101 21 145.5 38.5t43.5 43.5l-1 13q-58 -7 -97 -7q-58 0 -103.5 27.5t-71.5 77t-26 111.5q0 61 27 114.5t74.5 85.5t106.5 32q87 0 146 -66
t71 -172l17 -162q3 -24 3 -47q0 -72 -30.5 -117t-94.5 -74.5t-177 -54.5q-45 -11 -95 -11zM480 170q36 0 85 7l-2 22q-5 47 -25 72t-51 25q-30 0 -47 -21t-17 -53q0 -52 57 -52z" />
    <glyph glyph-name="uni0670" unicode="&#x670;" 
d="M2 662h68v-162h-68v162z" />
    <glyph glyph-name="uni0688" unicode="&#x688;" horiz-adv-x="572" 
d="M142.5 20.5q-41.5 20.5 -65 55t-23.5 74.5q-1 13 -1 64h132l1 -37q1 -9 6.5 -12.5t18.5 -3.5h130q40 0 40 24q0 11 -4 20q-18 48 -60.5 120t-91.5 143l116 95q60 -82 109.5 -169.5t65.5 -151.5q7 -28 7 -59q0 -52 -24.5 -93.5t-70 -65.5t-107.5 -24h-85q-52 0 -93.5 20.5
zM127 704h42l13 18l-9 199l67 3l6 -120q18 18 35.5 26t38.5 8q43 0 71 -31t28 -77q0 -41 -29.5 -71t-69.5 -30h-193v75zM320 704q12 0 22 8.5t10 17.5q0 14 -8.5 23t-23.5 9q-14 0 -26 -11.5t-37 -46.5h63z" />
    <glyph glyph-name="uni0691" unicode="&#x691;" horiz-adv-x="381" 
d="M0 -100l69 19q66 19 90.5 37t24.5 53q0 6 -2 22l-40 287l141 21l29 -208l11 -82q4 -25 4 -53q0 -93 -53 -146.5t-167 -85.5l-69 -19zM63 460h42l13 18l-9 199l67 3l6 -120q17 18 34.5 26t39.5 8q43 0 71 -31t28 -77q0 -41 -29.5 -71t-69.5 -30h-193v75zM256 460
q12 0 22 8.5t10 17.5q0 14 -8.5 23t-23.5 9q-14 0 -26.5 -11.5t-36.5 -46.5h63z" />
    <glyph glyph-name="uni0695" unicode="&#x695;" horiz-adv-x="377" 
d="M0 -100l69 19q66 19 90.5 37t24.5 53q0 6 -2 22l-40 287l141 21l29 -208l11 -82q4 -25 4 -53q0 -93 -53 -146.5t-167 -85.5l-69 -19zM118 -317l28 -127l28 127h80l-72 -208h-72l-72 208h80z" />
    <glyph glyph-name="uni06A1" unicode="&#x6a1;" horiz-adv-x="993" 
d="M320.5 2q-56.5 2 -91 8.5t-65.5 19.5q-55 25 -84.5 72.5t-29.5 108.5q0 29 10 71l38 147l138 -41l-39 -154q-4 -13 -4 -24q0 -12 6.5 -19t21.5 -14q20 -10 69.5 -13t202.5 -3h182q62 0 88 3t34.5 12t6.5 30q-46 -2 -92 -2q-84 0 -135 48t-52 132q0 98 47 163.5t136 72.5
q60 4 108.5 -23t78.5 -79.5t34 -121.5l13 -186q1 -8 1 -24q0 -95 -61.5 -140.5t-208.5 -45.5h-180v0v0h-5q-111 0 -167.5 2zM712 352q50 0 80 3l-2 29q-4 45 -23 68.5t-50 23.5q-29 0 -45.5 -20.5t-16.5 -52.5q0 -51 57 -51z" />
    <glyph glyph-name="uni06B5" unicode="&#x6b5;" horiz-adv-x="736" 
d="M324 -249q-84 0 -146 39t-95 109.5t-33 163.5q0 103 39 213l136 -53q-33 -94 -33 -163q0 -72 34 -111t97 -39q30 0 64 9q76 20 105.5 31.5t41 33t9.5 66.5l-25 646l143 8l25 -646q3 -89 -23.5 -145.5t-84.5 -90.5t-157 -58q-55 -13 -97 -13zM554 981l27 -127l29 127h80
l-73 -208h-72l-71 208h80z" />
    <glyph glyph-name="uni06BA" unicode="&#x6ba;" horiz-adv-x="740" 
d="M327 -247q-85 0 -147.5 38.5t-95.5 109t-33 163.5q0 103 39 214l136 -54q-33 -96 -33 -164q0 -71 34.5 -109t98.5 -38q26 0 63 8q67 15 98.5 25.5t45.5 26.5t14 44q0 7 -2 25l-41 275l141 23l41 -276q4 -25 4 -54q0 -103 -65 -159t-203 -87q-45 -11 -95 -11z" />
    <glyph glyph-name="uni06C1" unicode="&#x6c1;" horiz-adv-x="511" 
d="M152.5 26q-47.5 29 -75 78t-27.5 107q0 49 23 98.5t64 89.5l10 10l-24 22l99 117l136 -125q53 -50 77.5 -100t24.5 -112q0 -58 -27.5 -107t-74.5 -78t-102 -29q-56 0 -103.5 29zM208.5 170.5q18.5 -16.5 47.5 -16.5t47 16.5t18 40.5q0 21 -11.5 40.5t-47.5 51.5l-8 8
l-10 -10q-32 -32 -43 -51t-11 -39q0 -24 18.5 -40.5z" />
    <glyph glyph-name="uni06C2" unicode="&#x6c2;" horiz-adv-x="511" 
d="M152.5 26q-47.5 29 -75 78t-27.5 107q0 49 23 98.5t64 89.5l10 10l-24 22l99 117l136 -125q53 -50 77.5 -100t24.5 -112q0 -58 -27.5 -107t-74.5 -78t-102 -29q-56 0 -103.5 29zM161 682q-8 13 -13 34q-4 20 -4 29q0 47 33 80.5t80 33.5q23 0 88 -12l-13 -78q-50 9 -75 9
q-19 0 -31 -10.5t-12 -25.5q0 -6 1 -9q3 -12 16 -20t28 -8l116 28l17 -79l-281 -66l-17 78zM208.5 170.5q18.5 -16.5 47.5 -16.5t47 16.5t18 40.5q0 21 -11.5 40.5t-47.5 51.5l-8 8l-10 -10q-32 -32 -43 -51t-11 -39q0 -24 18.5 -40.5z" />
    <glyph glyph-name="uni06C3" unicode="&#x6c3;" horiz-adv-x="511" 
d="M152.5 26q-47.5 29 -75 78t-27.5 107q0 49 23 98.5t64 89.5l10 10l-24 22l99 117l136 -125q53 -50 77.5 -100t24.5 -112q0 -58 -27.5 -107t-74.5 -78t-102 -29q-56 0 -103.5 29zM111 697h260v-126h-260v126zM208.5 170.5q18.5 -16.5 47.5 -16.5t47 16.5t18 40.5
q0 21 -11.5 40.5t-47.5 51.5l-8 8l-10 -10q-32 -32 -43 -51t-11 -39q0 -24 18.5 -40.5z" />
    <glyph glyph-name="uni06C9" unicode="&#x6c9;" horiz-adv-x="548" 
d="M268 -64q47 13 65.5 28.5t19.5 42.5q-49 -7 -99 -7q-58 0 -103.5 27.5t-71.5 76.5t-26 111t27 115.5t74.5 85.5t106.5 32q58 0 104.5 -30t76 -84.5t36.5 -124.5l17 -162q3 -25 3 -47q0 -77 -36 -124t-111 -76t-211 -56l-29 157q110 22 157 35zM209 710h72l72 -208h-80
l-28 127l-28 -127h-80zM254 161q39 0 85 6l-2 23q-5 47 -25.5 72t-51.5 25q-29 0 -46 -21t-17 -53q0 -52 57 -52z" />
    <glyph glyph-name="uni06CC" unicode="&#x6cc;" horiz-adv-x="749" 
d="M328 -247q-85 0 -147.5 38.5t-96 109t-33.5 164.5q0 102 39 213l136 -54q-33 -94 -33 -164q0 -71 34.5 -109t98.5 -38q26 0 63 8q161 37 161 45q0 2 -14 6l-21 6q-44 11 -76 22q-70 26 -105 62t-35 95q0 40 14 85q28 91 92.5 149t148.5 58q31 0 62 -9l65 -18l-37 -155
l-65 18q-13 4 -28 4q-43 0 -67.5 -31t-33.5 -59q-3 -9 -3 -16q0 -12 12 -19.5t48 -19.5l28 -9q57 -18 85.5 -30t46.5 -34t26 -61q3 -17 3 -31q0 -76 -72.5 -131t-201.5 -84q-45 -11 -94 -11z" />
    <glyph glyph-name="uni06CE" unicode="&#x6ce;" horiz-adv-x="754" 
d="M328 -247q-85 0 -147.5 38.5t-96 109t-33.5 164.5q0 102 39 213l136 -54q-33 -94 -33 -164q0 -71 34.5 -109t98.5 -38q26 0 63 8q161 37 161 45q0 2 -14 6l-21 6q-44 11 -76 22q-70 26 -105 62t-35 95q0 40 14 85q28 91 92.5 149t148.5 58q31 0 62 -9l65 -18l-37 -155
l-65 18q-13 4 -28 4q-43 0 -67.5 -31t-33.5 -59q-3 -9 -3 -16q0 -12 12 -19.5t48 -19.5l28 -9q57 -18 85.5 -30t46.5 -34t26 -61q3 -17 3 -31q0 -76 -72.5 -131t-201.5 -84q-45 -11 -94 -11zM213 591l27 -127l29 127h80l-73 -208h-72l-72 208h81z" />
    <glyph glyph-name="uni06D4" unicode="&#x6d4;" horiz-adv-x="356" 
d="M111.5 24q-25.5 26 -25.5 63q0 36 25.5 61.5t62.5 25.5q35 0 61 -25.5t26 -61.5q0 -37 -26 -63t-61 -26q-37 0 -62.5 26z" />
    <glyph glyph-name="uni06D5" unicode="&#x6d5;" horiz-adv-x="511" 
d="M152.5 26q-47.5 29 -75 78t-27.5 107q0 49 23 98.5t64 89.5l10 10l-24 22l99 117l136 -125q53 -50 77.5 -100t24.5 -112q0 -58 -27.5 -107t-74.5 -78t-102 -29q-56 0 -103.5 29zM208.5 170.5q18.5 -16.5 47.5 -16.5t47 16.5t18 40.5q0 21 -11.5 40.5t-47.5 51.5l-8 8
l-10 -10q-32 -32 -43 -51t-11 -39q0 -24 18.5 -40.5z" />
    <glyph glyph-name="uni06F0" unicode="&#x6f0;" horiz-adv-x="528" 
d="M426.5 127.5q-26.5 -47.5 -72.5 -76t-100 -28.5t-100 28.5t-72.5 76t-26.5 103.5t26.5 103.5t72.5 76t100 28.5t100 -28.5t72.5 -76t26.5 -103.5t-26.5 -103.5zM208 190.5q19 -16.5 46 -16.5t46 16.5t19 40.5t-19 40.5t-46 16.5t-46 -16.5t-19 -40.5t19 -40.5z" />
    <glyph glyph-name="uni06F1" unicode="&#x6f1;" horiz-adv-x="335" 
d="M48 647l143 16l64 -655l-143 -16z" />
    <glyph glyph-name="uni06F2" unicode="&#x6f2;" horiz-adv-x="522" 
d="M474 668l17 -168q1 -7 1 -20q0 -50 -26 -93.5t-70.5 -69.5t-95.5 -26h-22q-24 0 -53 8l28 -287l-143 -16l-64 656l143 16l17 -175q4 -24 15 -32.5t34 -8.5h45q24 0 37 8.5t11 25.5l-17 165z" />
    <glyph glyph-name="uni06F3" unicode="&#x6f3;" horiz-adv-x="753" 
d="M402 333q-53 -45 -122 -45h-19q-20 0 -36 4l28 -284l-143 -16l-64 655l143 16l16 -165q6 -50 50 -50h25q21 0 35 10t13 25v2l-14 139l144 16l14 -147q1 -22 14 -33.5t34 -11.5h11q20 0 34.5 11t13.5 26l-16 162l143 16l16 -171q1 -6 1 -18q0 -50 -26.5 -93t-71 -68
t-94.5 -25h-11q-67 0 -118 45z" />
    <glyph glyph-name="uni06F4" unicode="&#x6f4;" horiz-adv-x="660" 
d="M225 290l27 -282l-143 -16l-46 483l-1 6v0l-16 167l143 16l17 -174q3 -22 11 -31t26 -11q-8 32 -8 61q0 60 29 111t78.5 80.5t107.5 29.5q50 0 110.5 -26.5t62.5 -27.5l-64 -144q-25 10 -60 22.5t-47 15.5q-5 1 -13 1q-26 0 -43.5 -19t-17.5 -43q0 -25 16 -43t38 -18h190
v-160h-368q-11 0 -29 2z" />
    <glyph glyph-name="uni06F5" unicode="&#x6f5;" horiz-adv-x="710" 
d="M355 43q-51 -43 -117 -43h-11q-52 0 -95 26.5t-68 71.5t-25 98q0 89 13.5 140.5t56 111.5t145.5 175l-22 24l105 107q172 -190 233.5 -267t81 -134.5t19.5 -156.5q0 -53 -25 -98t-68 -71.5t-95 -26.5h-11q-66 0 -117 43zM195 171q12 -10 32 -10h11q19 0 32 10.5t13 24.5
v61h144v-53q1 -21 13 -32t32 -11h11q20 0 32 10t12 25q0 59 -10 93.5t-43.5 79.5t-118.5 141q-89 -98 -121.5 -141t-41.5 -76t-9 -97q0 -15 12 -25z" />
    <glyph glyph-name="uni06F6" unicode="&#x6f6;" horiz-adv-x="571" 
d="M529 494l-98 -145h1l-10 -14l-257 -380l-118 90l147 218q-28 9 -52 25q-48 30 -73.5 80.5t-25.5 106.5q0 69 37 125q13 19 53 50.5t89 64.5l71 -140q-82 -47 -95 -66q-13 -21 -13 -37q0 -25 29 -45q17 -14 42 -14q18 0 33.5 7.5t24.5 20.5l97 143z" />
    <glyph glyph-name="uni06F7" unicode="&#x6f7;" horiz-adv-x="616" 
d="M599 609l-224 -616h-134l-223 616l134 54l156 -434l156 434z" />
    <glyph glyph-name="uni06F8" unicode="&#x6f8;" horiz-adv-x="616" 
d="M18 40l224 620h134l223 -620l-135 -53l-155 434l-157 -434z" />
    <glyph glyph-name="uni06F9" unicode="&#x6f9;" horiz-adv-x="588" 
d="M72.5 566.5q28.5 50.5 78 80.5t108.5 30q56 0 103 -27.5t77 -76.5t36 -109l50 -455l-143 -16l-27 243h-96q-59 0 -108.5 29t-78 79t-28.5 111t28.5 111.5zM208 410q21 -19 51 -19h79l-6 57q-4 31 -24 51.5t-49 20.5q-31 0 -51.5 -19.5t-20.5 -45.5t21 -45z" />
    <glyph glyph-name="uni2009" unicode="&#x2009;" horiz-adv-x="150" 
 />
    <glyph glyph-name="uni200A" unicode="&#x200a;" horiz-adv-x="75" 
 />
    <glyph glyph-name="uni200B" unicode="&#x200b;" 
 />
    <glyph glyph-name="uni200C" unicode="&#x200c;" 
 />
    <glyph glyph-name="uni200D" unicode="&#x200d;" 
 />
    <glyph glyph-name="uni200E" unicode="&#x200e;" 
 />
    <glyph glyph-name="uni200F" unicode="&#x200f;" 
 />
    <glyph glyph-name="quoteleft" unicode="&#x2018;" horiz-adv-x="223" 
d="M177 544h-150l60 261h109z" />
    <glyph glyph-name="quoteright" unicode="&#x2019;" horiz-adv-x="223" 
d="M46 806h150l-60 -261h-109z" />
    <glyph glyph-name="quotedblleft" unicode="&#x201c;" horiz-adv-x="445" 
d="M177 544h-150l60 261h109zM309 805h109l-19 -261h-150z" />
    <glyph glyph-name="quotedblright" unicode="&#x201d;" horiz-adv-x="445" 
d="M46 806h150l-60 -261h-109zM269 806h150l-60 -261h-109z" />
    <glyph glyph-name="quotedblbase" unicode="&#x201e;" horiz-adv-x="445" 
d="M46 156h150l-60 -261h-109zM268 156h151l-60 -261h-110z" />
    <glyph glyph-name="bullet" unicode="&#x2022;" horiz-adv-x="559" 
d="M193 -6q-40 23 -63 63t-23 87t23 87t63 63t87 23t86.5 -23t63 -63t23.5 -87t-23.5 -87t-63 -63t-86.5 -23t-87 23z" />
    <glyph glyph-name="ellipsis" unicode="&#x2026;" horiz-adv-x="944" 
d="M107 24q-26 26 -26 63q0 36 26 61.5t63 25.5q35 0 61 -25.5t26 -61.5q0 -37 -26 -63t-61 -26q-37 0 -63 26zM406 148.5q26 25.5 63 25.5q35 0 60.5 -25.5t25.5 -61.5q0 -37 -25.5 -63t-60.5 -26q-37 0 -63 26t-26 63q0 36 26 61.5zM707 148.5q26 25.5 63 25.5
q35 0 61 -25.5t26 -61.5q0 -37 -26 -63t-61 -26q-37 0 -63 26t-26 63q0 36 26 61.5z" />
    <glyph glyph-name="minute" unicode="&#x2032;" horiz-adv-x="253" 
d="M43 700h169l-19 -235h-132z" />
    <glyph glyph-name="second" unicode="&#x2033;" horiz-adv-x="462" 
d="M245 700h168l-19 -235h-132zM199 700l-19 -235h-132l-17 235h168z" />
    <glyph glyph-name="guilsinglleft" unicode="&#x2039;" horiz-adv-x="286" 
d="M187 350.5q-14 -32.5 -14 -68.5q0 -71 50 -123l-89 -88q-41 43 -63.5 98t-22.5 113q0 61 24.5 118t69.5 100l85 -92q-26 -25 -40 -57.5z" />
    <glyph glyph-name="guilsinglright" unicode="&#x203a;" horiz-adv-x="286" 
d="M213.5 400q24.5 -57 24.5 -118q0 -58 -22.5 -113t-63.5 -98l-89 88q50 52 50 123q0 36 -14 68.5t-40 57.5l85 92q45 -43 69.5 -100z" />
    <glyph glyph-name="fraction" unicode="&#x2044;" horiz-adv-x="440" 
d="M80 54l-70 36l347 556l70 -36z" />
    <glyph glyph-name="uni2070" unicode="&#x2070;" horiz-adv-x="373" 
d="M298 320.5q-39 -40.5 -111 -40.5t-111.5 40t-40.5 113v85q0 76 40 117t111 41q70 0 110.5 -41.5t40.5 -116.5v-83q0 -74 -39 -114.5zM146.5 375.5q12.5 -17.5 40.5 -17.5q49 0 51 68v95q0 77 -52 77q-25 0 -38 -18.5t-14 -53.5v-94q0 -39 12.5 -56.5z" />
    <glyph glyph-name="uni2074" unicode="&#x2074;" horiz-adv-x="373" 
d="M301 444h43v-79h-43v-80h-100v80h-167l-7 63l174 242h100v-226zM201 444v110l-9 -14l-71 -96h80z" />
    <glyph glyph-name="uni2075" unicode="&#x2075;" horiz-adv-x="373" 
d="M41 473l27 197h247v-76h-167l-11 -70q42 14 67 14q64 0 97.5 -32t33.5 -91q0 -60 -41 -97.5t-109 -37.5q-41 0 -76 15t-55.5 41t-20.5 58h100q0 -17 13.5 -26.5t38.5 -9.5q52 0 52 57t-59 57q-17 0 -32.5 -5t-25.5 -14z" />
    <glyph glyph-name="uni2076" unicode="&#x2076;" horiz-adv-x="373" 
d="M176 576.5q-33 -22.5 -40 -65.5q34 31 87 31q57 0 90 -34.5t33 -93.5q0 -58 -43 -96t-109 -38q-75 0 -117.5 39.5t-42.5 111.5v31q0 103 63 160t182 57v-80q-70 0 -103 -22.5zM192 357q23 0 39 17t16 41t-14.5 37t-42.5 13q-39 0 -57 -26v-21q0 -61 59 -61z" />
    <glyph glyph-name="uni2077" unicode="&#x2077;" horiz-adv-x="373" 
d="M336 617l-161 -332h-105l163 307h-209v78h312v-53z" />
    <glyph glyph-name="uni2078" unicode="&#x2078;" horiz-adv-x="373" 
d="M74.5 309.5q-40.5 29.5 -40.5 81.5q0 65 66 92q-57 29 -57 84q0 50 38.5 79.5t104.5 29.5t104.5 -29t38.5 -80q0 -58 -56 -84q65 -29 65 -92q0 -52 -40 -81.5t-111 -29.5q-72 0 -112.5 29.5zM148 370q15 -12 39 -12t38 11.5t14 31.5t-14 30.5t-39 10.5t-39 -10.5
t-14 -30.5q0 -19 15 -31zM153.5 530.5q11.5 -10.5 33.5 -10.5q43 0 43 40q0 18 -11.5 28t-32.5 10q-22 0 -33 -10t-11 -28q0 -19 11.5 -29.5z" />
    <glyph glyph-name="uni2079" unicode="&#x2079;" horiz-adv-x="373" 
d="M197.5 371q29.5 15 37.5 64q-33 -28 -74 -28q-62 0 -95 33.5t-33 94.5q0 39 20 71.5t55 51t76 18.5q71 0 110.5 -40.5t40.5 -113.5v-32q0 -107 -56 -159.5t-173 -52.5v78q62 0 91.5 15zM146.5 493.5q14.5 -14.5 42.5 -14.5q32 0 48 22v37q0 32 -13 46t-40 14
q-23 0 -37.5 -19t-14.5 -45t14.5 -40.5z" />
    <glyph glyph-name="uni2080" unicode="&#x2080;" horiz-adv-x="373" 
d="M298 35.5q-39 -40.5 -111 -40.5t-111.5 40t-40.5 113v85q0 76 40 117t111 41q70 0 110.5 -41.5t40.5 -116.5v-83q0 -74 -39 -114.5zM146.5 90.5q12.5 -17.5 40.5 -17.5q49 0 51 68v95q0 77 -52 77q-25 0 -38 -18.5t-14 -53.5v-94q0 -39 12.5 -56.5z" />
    <glyph glyph-name="uni2081" unicode="&#x2081;" horiz-adv-x="373" 
d="M258 0h-98v272l-91 -20v74l180 58h9v-384z" />
    <glyph glyph-name="uni2082" unicode="&#x2082;" horiz-adv-x="373" 
d="M337 0h-301v66l140 125q25 24 38.5 45t13.5 34q0 43 -49 43q-24 0 -38 -15.5t-14 -40.5l-95 5q0 58 39 93.5t104 35.5q73 0 112.5 -31.5t39.5 -89.5q0 -36 -25 -72q-23 -31 -84 -76l-51 -45h170v-77z" />
    <glyph glyph-name="uni2083" unicode="&#x2083;" horiz-adv-x="373" 
d="M135 228h42q28 0 42.5 11.5t14.5 33.5q0 19 -14 29.5t-39 10.5q-22 0 -37 -9t-15 -24h-99q0 50 41 80.5t106 30.5q72 0 114 -30t42 -81q0 -58 -69 -82q77 -20 77 -91q0 -50 -45 -81t-119 -31q-70 0 -112.5 33.5t-42.5 88.5h101q0 -18 17 -31t44 -13q28 0 42 12.5t14 32.5
q0 47 -61 47h-44v63z" />
    <glyph glyph-name="uni2084" unicode="&#x2084;" horiz-adv-x="373" 
d="M301 159h43v-79h-43v-80h-100v80h-167l-7 63l174 242h100v-226zM201 159v110l-9 -14l-71 -96h80z" />
    <glyph glyph-name="uni2085" unicode="&#x2085;" horiz-adv-x="373" 
d="M41 188l27 197h247v-76h-167l-11 -70q42 14 67 14q64 0 97.5 -32t33.5 -91q0 -60 -41 -97.5t-109 -37.5q-41 0 -76 15t-55.5 41t-20.5 58h100q0 -17 13.5 -26.5t38.5 -9.5q52 0 52 57t-59 57q-17 0 -32.5 -5t-25.5 -14z" />
    <glyph glyph-name="uni2086" unicode="&#x2086;" horiz-adv-x="373" 
d="M176 291.5q-33 -22.5 -40 -65.5q34 31 87 31q57 0 90 -34.5t33 -93.5q0 -58 -43 -96t-109 -38q-75 0 -117.5 39.5t-42.5 111.5v31q0 103 63 160t182 57v-80q-70 0 -103 -22.5zM192 72q23 0 39 17t16 41t-14.5 37t-42.5 13q-39 0 -57 -26v-21q0 -61 59 -61z" />
    <glyph glyph-name="uni2087" unicode="&#x2087;" horiz-adv-x="373" 
d="M336 332l-161 -332h-105l163 307h-209v78h312v-53z" />
    <glyph glyph-name="uni2088" unicode="&#x2088;" horiz-adv-x="373" 
d="M74.5 24.5q-40.5 29.5 -40.5 81.5q0 65 66 92q-57 29 -57 84q0 50 38.5 79.5t104.5 29.5t104.5 -29t38.5 -80q0 -58 -56 -84q65 -29 65 -92q0 -52 -40 -81.5t-111 -29.5q-72 0 -112.5 29.5zM148 85q15 -12 39 -12t38 11.5t14 31.5t-14 30.5t-39 10.5t-39 -10.5t-14 -30.5
q0 -19 15 -31zM153.5 245.5q11.5 -10.5 33.5 -10.5q43 0 43 40q0 18 -11.5 28t-32.5 10q-22 0 -33 -10t-11 -28q0 -19 11.5 -29.5z" />
    <glyph glyph-name="uni2089" unicode="&#x2089;" horiz-adv-x="373" 
d="M197.5 86q29.5 15 37.5 64q-33 -28 -74 -28q-62 0 -95 33.5t-33 94.5q0 39 20 71.5t55 51t76 18.5q71 0 110.5 -40.5t40.5 -113.5v-32q0 -107 -56 -159.5t-173 -52.5v78q62 0 91.5 15zM146.5 208.5q14.5 -14.5 42.5 -14.5q32 0 48 22v37q0 32 -13 46t-40 14
q-23 0 -37.5 -19t-14.5 -45t14.5 -40.5z" />
    <glyph glyph-name="trademark" unicode="&#x2122;" horiz-adv-x="631" 
d="M297 710h80l57 -182l60 182h75v-263h-65v173l-52 -173h-37l-53 174v-174h-65v263zM61 710h201v-51h-62v-210h-74v210h-65v51z" />
    <glyph glyph-name="partialdiff" unicode="&#x2202;" horiz-adv-x="573" 
d="M158 23.5q-57 33.5 -87 92.5t-30 134v9q0 70 27.5 126.5t80 89.5t126.5 33q86 0 142 -61q-17 96 -58 145.5t-105 49.5q-34 0 -60 -8t-52 -21l-28 98q70 43 152 43q86 0 149.5 -44.5t97.5 -130.5t34 -206v-53q0 -100 -31.5 -175t-89 -115t-133.5 -40q-78 0 -135 33.5z
M213.5 140.5q25.5 -36.5 79.5 -36.5q52 0 79.5 43.5t27.5 126.5v56q-18 30 -45 47t-61 17q-51 0 -78.5 -36t-27.5 -104v-16q0 -61 25.5 -97.5z" />
    <glyph glyph-name="product" unicode="&#x220f;" horiz-adv-x="679" 
d="M605 -132h-149v733h-227v-733h-149v843h525v-843z" />
    <glyph glyph-name="summation" unicode="&#x2211;" horiz-adv-x="639" 
d="M450 285l-221 -303h379v-114h-583v67l271 358l-271 351v67h575v-114h-369l219 -295v-17z" />
    <glyph glyph-name="minus" unicode="&#x2212;" horiz-adv-x="550" 
d="M494 291h-426v116h426v-116z" />
    <glyph glyph-name="uni2215" unicode="&#x2215;" horiz-adv-x="600" 
d="M372 775l120 -37l-263 -818l-119 37z" />
    <glyph glyph-name="radical" unicode="&#x221a;" horiz-adv-x="536" 
d="M279 132l140 579h107l-178 -711h-130l-83 247h-109v115h188z" />
    <glyph glyph-name="infinity" unicode="&#x221e;" horiz-adv-x="1063" 
d="M169.5 24q-57.5 34 -89 96.5t-31.5 145.5q0 48 18.5 109.5t74.5 112t159 50.5q144 0 229 -152q41 74 100 113t130 39q76 0 133 -34t88.5 -97t31.5 -148q0 -47 -21 -109t-77.5 -111t-155.5 -49q-71 0 -130 41t-99 116q-42 -77 -100 -117t-128 -40q-75 0 -132.5 34z
M224 150.5q33 -41.5 87 -41.5q38 0 70 32.5t51.5 70t25.5 57.5q-8 21 -27 55.5t-51 64.5t-70 30q-54 0 -86.5 -42t-32.5 -118q0 -67 33 -108.5zM631 212.5q21 -38.5 52.5 -71t66.5 -32.5q55 0 87.5 41.5t32.5 115.5q0 68 -33 110.5t-86 42.5q-38 0 -69.5 -30t-52 -66
t-25.5 -54q6 -18 27 -56.5z" />
    <glyph glyph-name="integral" unicode="&#x222b;" horiz-adv-x="299" 
d="M164.5 -162.5q-49.5 -50.5 -142.5 -50.5q-38 0 -75 8l7 111q25 -5 44 -5q67 0 68 78v596q0 89 51.5 137.5t147.5 48.5q32 0 81 -11l-11 -108q-27 5 -51 5q-70 0 -70 -74v-589q0 -96 -49.5 -146.5z" />
    <glyph glyph-name="approxequal" unicode="&#x2248;" horiz-adv-x="581" 
d="M105.5 482.5q31.5 14.5 63.5 14.5q37 0 62.5 -8.5t59.5 -26.5q32 -18 57.5 -26.5t61.5 -8.5q60 0 109 63v-110q-24 -28 -48.5 -41t-56.5 -13q-31 0 -56 8.5t-60 26.5q-34 18 -59.5 26.5t-57.5 8.5q-37 0 -72.5 -16.5t-58.5 -45.5v109q24 25 55.5 39.5zM50 240
q49 53 118 53q31 0 58 -9t65 -27q39 -17 62 -25t51 -8q65 0 114 63v-110q-48 -54 -109 -54q-31 0 -56.5 8.5t-61.5 26.5q-34 17 -59.5 26t-56.5 9q-35 0 -68 -16t-57 -46v109z" />
    <glyph glyph-name="notequal" unicode="&#x2260;" horiz-adv-x="582" 
d="M511 148h-275l-54 -106l-57 27l41 79h-102v114h160l52 99h-212v113h270l53 101l57 -29l-38 -72h105v-113h-164l-51 -99h215v-114z" />
    <glyph glyph-name="lessequal" unicode="&#x2264;" horiz-adv-x="513" 
d="M459 157l-427 162v106l427 162v-123l-282 -91l282 -93v-123zM33 139h426v-116h-426v116z" />
    <glyph glyph-name="greaterequal" unicode="&#x2265;" horiz-adv-x="514" 
d="M339 374l-284 92v122l426 -161v-107l-426 -161v122zM55 139h426v-116h-426v116z" />
    <glyph glyph-name="uniFBB2" unicode="&#xfbb2;" 
d="M29 511h142v-142h-142v142z" />
    <glyph glyph-name="uniFBB3" unicode="&#xfbb3;" 
d="M29 -78h142v-142h-142v142z" />
    <glyph glyph-name="uniFBB4" unicode="&#xfbb4;" 
d="M322 480h-260v126h260v-126z" />
    <glyph glyph-name="uniFBB5" unicode="&#xfbb5;" 
d="M322 -188h-260v126h260v-126z" />
    <glyph glyph-name="uniFBB6" unicode="&#xfbb6;" 
d="M252 714v-95h79l1 -137h-127h-29h-126l1 137h81v95h120z" />
    <glyph glyph-name="uniFBB9" unicode="&#xfbb9;" 
d="M132 -223h-81l-1 137h126h29h127l-1 -137h-79v-95h-120v95z" />
    <glyph glyph-name="uniFD3E" unicode="&#xfd3e;" horiz-adv-x="404" 
d="M101.5 -20.5q-51.5 128.5 -51.5 265.5q0 139 53 268t149 226l102 -114q-79 -79 -120 -175.5t-41 -204.5q0 -107 40 -203t116 -173l-102 -113q-94 95 -145.5 223.5z" />
    <glyph glyph-name="uniFD3F" unicode="&#xfd3f;" horiz-adv-x="404" 
d="M170.5 42q39.5 96 39.5 203q0 108 -40.5 204.5t-119.5 175.5l102 114q96 -97 149 -226t53 -268q0 -137 -51.5 -265.5t-145.5 -223.5l-102 113q76 77 115.5 173z" />
    <glyph glyph-name="uniFEFF" unicode="&#xfeff;" 
 />
    <glyph glyph-name="uni0627.001" horiz-adv-x="181" 
d="M6 696l143 8l18 -487l-140 -68z" />
    <glyph glyph-name="uni0627.002" horiz-adv-x="325" 
d="M86 597l143 7l22 -602l-143 -7z" />
    <glyph glyph-name="uni0627.fina.001" horiz-adv-x="289" 
d="M165.5 23.5q-44.5 23.5 -66 74.5t-25.5 138l-14 361l143 7l14 -368q2 -40 5.5 -53.5t15.5 -17.5t46 -4h10l9 -81l-9 -80h-10q-74 0 -118.5 23.5z" />
    <glyph glyph-name="uni0627.fina.002" horiz-adv-x="338" 
d="M50 635l140 28l84 -430l-140 -29zM105 161h238l9 -81l-9 -80h-238v161z" />
    <glyph glyph-name="uni066E.001" horiz-adv-x="492" 
d="M-17 81q0 42 7 80h11q148 0 197.5 4t72.5 13q14 6 21 14t7 23q0 13 -6 35l-38 139l138 41l38 -139q11 -38 11 -79q0 -62 -29 -110t-84 -72q-44 -20 -105 -25t-223 -5h-11q-7 38 -7 81z" />
    <glyph glyph-name="uni066E.fina.001" horiz-adv-x="493" 
d="M322.5 2q-57.5 2 -92.5 8.5t-66 19.5q-55 25 -84.5 72.5t-29.5 108.5q0 29 10 71l38 147l138 -41l-39 -154q-4 -13 -4 -24q0 -12 6.5 -19t21.5 -14q20 -10 69.5 -13t202.5 -3l7 -81l-7 -80q-113 0 -170.5 2z" />
    <glyph glyph-name="uni066E.fina.001.003" horiz-adv-x="490" 
d="M139.5 28.5q-47.5 26.5 -70.5 73.5t-18 109l11 123l143 -15l-11 -123q-2 -19 9.5 -26.5t47.5 -8.5h244v-161h-244q-64 2 -111.5 28.5z" />
    <glyph glyph-name="uni066E.fina.002" horiz-adv-x="497" 
d="M-5 161h241q34 0 46 7t10 24v4l-11 123l144 15l11 -123v-5q3 -29 13 -37t43 -8h11l9 -81l-9 -80h-11q-78 0 -127 38q-52 -38 -129 -38h-241v161z" />
    <glyph glyph-name="uni066E.medi.001" horiz-adv-x="430" 
d="M-5 161h184q36 0 47.5 7.5t9.5 27.5l-11 123l143 15l11 -123l1 -8q2 -27 12.5 -34.5t42.5 -7.5l9 -81l-9 -80q-77 0 -126 38q-54 -38 -130 -38h-184v161z" />
    <glyph glyph-name="uni066E.init.001" horiz-adv-x="419" 
d="M-5 161h155q40 0 57.5 9.5t17.5 34.5q0 14 -6 35l-39 149l138 41l41 -157q10 -36 10 -73q0 -59 -27.5 -104.5t-77.5 -70.5t-114 -25h-155v161z" />
    <glyph glyph-name="uni066E.init.002" horiz-adv-x="343" 
d="M242 430l40 -149q11 -44 11 -78q0 -60 -27 -106t-77 -71.5t-115 -25.5h-79v161h79q40 0 58 9.5t18 34.5q0 14 -6 35l-40 149z" />
    <glyph glyph-name="uni0628.medi.alt" horiz-adv-x="309" 
d="M-5 161h63q34 0 46 7t10 24v4l-11 123l144 15l11 -123v-5q3 -29 13 -37t43 -8l9 -81l-9 -80q-77 0 -127 38q-52 -38 -129 -38h-63v161zM56 -77h142v-142h-142v142z" />
    <glyph glyph-name="uni0628.init.alt" horiz-adv-x="343" 
d="M-5 161h79q40 0 58 9.5t18 34.5q0 14 -6 35l-40 149l138 41l40 -149q11 -44 11 -78q0 -60 -27 -106t-77 -71.5t-115 -25.5h-79v161zM51 -78h142v-142h-142v142z" />
    <glyph glyph-name="uni067E.medi.alt" horiz-adv-x="430" 
d="M-5 161h184q36 0 47.5 7.5t9.5 27.5l-11 123l143 15l11 -123l1 -8q2 -27 12.5 -34.5t42.5 -7.5l9 -81l-9 -80q-77 0 -126 38q-54 -38 -130 -38h-184v161zM177 -78h30h127l-1 -137h-79v-95h-121v95h-80l-1 137h125z" />
    <glyph glyph-name="uni067E.init.alt" horiz-adv-x="464" 
d="M-5 161h199q40 0 57.5 9.5t17.5 34.5q0 14 -6 35l-39 149l138 41l42 -157q10 -36 10 -72q0 -59 -28 -105t-78 -71t-114 -25h-199v161zM202 -81h30h126l-1 -137h-78v-95h-121v95h-81l-1 137h126z" />
    <glyph glyph-name="uni062A.medi.alt" horiz-adv-x="475" 
d="M-5 161h229q36 0 47 8t9 27l-11 123l143 15l11 -123l1 -6q2 -20 6.5 -29t15.5 -12t34 -3l9 -81l-9 -80q-78 0 -127 38q-54 -38 -129 -38h-229v161zM78 561h259v-126h-259v126z" />
    <glyph glyph-name="uni062A.init.alt" horiz-adv-x="464" 
d="M-5 161h199q40 0 57.5 9.5t17.5 34.5q0 14 -6 35l-39 149l138 41l42 -157q10 -36 10 -72q0 -59 -28 -105t-78 -71t-114 -25h-199v161zM90 643h259v-125h-259v125z" />
    <glyph glyph-name="uni062B.medi.alt" horiz-adv-x="475" 
d="M-5 161h229q36 0 47 8t9 27l-11 123l143 15l11 -123l1 -6q2 -20 6.5 -29t15.5 -12t34 -3l9 -81l-9 -80q-78 0 -127 38q-54 -38 -129 -38h-229v161zM66 572h81v95h120v-95h79l1 -137h-127h-29h-126z" />
    <glyph glyph-name="uni062B.init.alt" horiz-adv-x="464" 
d="M-5 161h199q40 0 57.5 9.5t17.5 34.5q0 14 -6 35l-39 149l138 41l42 -157q10 -36 10 -72q0 -59 -28 -105t-78 -71t-114 -25h-199v161zM78 654h81v95h120v-95h79l1 -137h-127h-29h-126z" />
    <glyph glyph-name="uni062D.fina.001" horiz-adv-x="738" 
d="M347 -355q-101 0 -179.5 59.5t-106.5 159.5q-11 38 -11 83q0 104 68 186t190 115l190 48l-145 71q-22 11 -44 11q-23 0 -43.5 -12t-33.5 -33l-17 -31l-125 79l20 35q36 59 87.5 91t109.5 32q59 0 115 -31l257 -144l-20 -185l-314 -86q-76 -20 -113.5 -58.5t-37.5 -88.5
q0 -19 4 -35q12 -47 54 -76t96 -29q24 0 48 6l253 70l37 -155l-258 -72q-39 -10 -81 -10z" />
    <glyph glyph-name="uni062D.fina.002" horiz-adv-x="259" 
d="M110.5 32.5q-48.5 32.5 -74.5 88t-26 122.5h133q0 -36 20.5 -59t58.5 -23h37l9 -81l-9 -80h-37q-63 0 -111.5 32.5z" />
    <glyph glyph-name="uni062D.fina.003" horiz-adv-x="742" 
d="M347 -355q-101 0 -179.5 59.5t-106.5 159.5q-11 38 -11 83q0 104 68 186t190 115l190 48l-145 71q-22 11 -44 11q-23 0 -43.5 -12t-33.5 -33l-17 -31l-125 79l20 35q36 59 87.5 91t109.5 32q59 0 115 -31l257 -144l-20 -185h-2q21 -18 53 -18h37l9 -81l-9 -80h-37
q-68 0 -119 38t-75 102l-171 -47q-76 -20 -113.5 -58.5t-37.5 -88.5q0 -19 4 -35q12 -47 54 -76t96 -29q24 0 48 6l253 70l37 -155l-258 -72q-39 -10 -81 -10z" />
    <glyph glyph-name="uni0631.fina.001" horiz-adv-x="195" 
d="M96.5 27.5q-36.5 27.5 -59 89t-37.5 168.5l134 21l18 -102q5 -26 14 -34.5t25 -8.5h5l9 -81l-9 -80h-5q-58 0 -94.5 27.5z" />
    <glyph glyph-name="uni0635.medi.001" horiz-adv-x="15" 
d="M-81 18.5q-42 18.5 -72 45.5l93 118q11 -9 28 -15t38 -6h14l9 -81l-9 -80h-14q-45 0 -87 18.5z" />
    <glyph glyph-name="uni0635.medi.002" horiz-adv-x="233" 
d="M131 39q-54 -37 -131 -39h-5v161h5q35 0 52 10t19 39l11 124l144 -15l-11 -122v-3q-1 -19 3.5 -26t15.5 -7l9 -81l-9 -80q-61 0 -103 39z" />
    <glyph glyph-name="uni0635.medi.003" horiz-adv-x="585" 
d="M-1 112l-21 19l21 29l1 1l60 82q56 78 93 119.5t77 63.5t91 22q60 0 109 -31t77 -84t28 -117q0 -57 -29.5 -107t-78.5 -79.5t-106 -29.5h-322v112zM321 161q31 0 50.5 18t19.5 45q0 26 -18.5 44.5t-47.5 18.5q-22 0 -40 -10.5t-41 -37t-60 -78.5h137z" />
    <glyph glyph-name="uni0643.medi.001" horiz-adv-x="262" 
d="M112 55.5q-61 55.5 -112 159.5l108 69q29 -50 51 -76.5t43.5 -36.5t50.5 -10h14l9 -81l-9 -80h-14q-80 0 -141 55.5z" />
    <glyph glyph-name="uni0644.fina.001" horiz-adv-x="213" 
d="M59.5 54.5q-47.5 54.5 -48.5 187.5h128l2 -26q2 -33 15 -44t42 -11h20l9 -81l-9 -80h-20q-91 0 -138.5 54.5z" />
    <glyph glyph-name="uni0644.medi.001" horiz-adv-x="289" 
d="M148 42q-51 -42 -130 -42h-23v161h23q34 0 46 10t10 30l-19 495l144 8l19 -496v-1q4 -27 17 -36.5t39 -9.5h20l9 -81l-9 -80h-20q-83 0 -126 42z" />
    <glyph glyph-name="uni0644.init.001" horiz-adv-x="268" 
d="M-5 161h23q34 0 46 10t10 30l-19 495l144 8l19 -496q3 -59 -21 -106t-70 -74.5t-109 -27.5h-23v161z" />
    <glyph glyph-name="uni0645.medi.001" horiz-adv-x="182" 
d="M48.5 61q-48.5 61 -48.5 161h94q0 -26 25.5 -43.5t67.5 -17.5l9 -81l-9 -80q-90 0 -138.5 61z" />
    <glyph glyph-name="uni06BA.fina.001" horiz-adv-x="233" 
d="M78.5 80.5q-56.5 80.5 -77.5 236.5l140 22q8 -51 22 -132q4 -26 15 -36t33 -10h27l9 -81l-9 -80h-22q-81 0 -137.5 80.5z" />
    <glyph glyph-name="uni06BA.fina.002" horiz-adv-x="737" 
d="M690 3q-2 -99 -67.5 -153t-200.5 -86q-45 -11 -95 -11q-85 0 -147.5 38.5t-95.5 109t-33 163.5q0 103 39 214l136 -54q-33 -96 -33 -164q0 -71 34.5 -109t98.5 -38q26 0 63 8q67 15 98.5 25.5t45.5 26.5t14 44q0 7 -2 25l-41 275l141 23l16 -110l5 -29q4 -23 12 -31.5
t28 -8.5h34l9 -81l-9 -80h-21q-15 0 -29 3z" />
    <glyph glyph-name="uni0649.fina.alt" horiz-adv-x="724" 
d="M327 -247q-85 0 -147.5 38.5t-95.5 109t-33 163.5q0 103 39 214l136 -54q-33 -94 -33 -163q0 -71 34.5 -109t99.5 -38q31 0 62 7q71 16 104 28t44 28t8 43q-1 6 -18 14l-110 35l44 153q147 -41 190 -51t78 -10l9 -81l-9 -80q-29 0 -41 1q0 -93 -63.5 -149t-202.5 -88
q-45 -11 -95 -11z" />
    <glyph glyph-name="uni064A.fina.alt" horiz-adv-x="724" 
d="M327 -247q-85 0 -147.5 38.5t-95.5 109t-33 163.5q0 103 39 214l136 -54q-33 -94 -33 -163q0 -71 34.5 -109t99.5 -38q31 0 62 7q71 16 104 28t44 28t8 43q-1 6 -18 14l-110 35l44 153q147 -41 190 -51t78 -10l9 -81l-9 -80q-29 0 -41 1q0 -93 -63.5 -149t-202.5 -88
q-45 -11 -95 -11zM495 -425h-260v126h260v-126z" />
    <glyph glyph-name="uni064A.medi.alt" horiz-adv-x="430" 
d="M-5 161h184q36 0 47.5 7.5t9.5 27.5l-11 123l143 15l11 -123l1 -8q2 -27 12.5 -34.5t42.5 -7.5l9 -81l-9 -80q-77 0 -126 38q-54 -38 -130 -38h-184v161zM65 -87h260v-126h-260v126z" />
    <glyph glyph-name="uni064A.init.alt" horiz-adv-x="464" 
d="M-5 161h199q40 0 57.5 9.5t17.5 34.5q0 14 -6 35l-39 149l138 41l42 -157q10 -36 10 -72q0 -59 -28 -105t-78 -71t-114 -25h-199v161zM63 -85h259v-126h-259v126z" />
    <glyph glyph-name="uni06CE.medi.alt" horiz-adv-x="430" 
d="M-5 161h184q36 0 47.5 7.5t9.5 27.5l-11 123l143 15l11 -123l1 -8q2 -27 12.5 -34.5t42.5 -7.5l9 -81l-9 -80q-77 0 -126 38q-54 -38 -130 -38h-184v161zM139 621l27 -128l29 128h80l-73 -209h-72l-71 209h80zM65 -87h260v-126h-260v126z" />
    <glyph glyph-name="uni06CE.init.alt" horiz-adv-x="464" 
d="M144 717l28 -127l28 127h80l-72 -208h-72l-72 208h80zM-5 161h199q40 0 57.5 9.5t17.5 34.5q0 14 -6 35l-39 149l138 41l42 -157q10 -36 10 -72q0 -59 -28 -105t-78 -71t-114 -25h-199v161zM63 -85h259v-126h-259v126z" />
    <glyph glyph-name="uni06CC.medi.alt" horiz-adv-x="430" 
d="M-5 161h184q36 0 47.5 7.5t9.5 27.5l-11 123l143 15l11 -123l1 -8q2 -27 12.5 -34.5t42.5 -7.5l9 -81l-9 -80q-77 0 -126 38q-54 -38 -130 -38h-184v161zM65 -87h260v-126h-260v126z" />
    <glyph glyph-name="uni06CC.init.alt" horiz-adv-x="464" 
d="M-5 161h199q40 0 57.5 9.5t17.5 34.5q0 14 -6 35l-39 149l138 41l42 -157q10 -36 10 -72q0 -59 -28 -105t-78 -71t-114 -25h-199v161zM63 -85h259v-126h-259v126z" />
    <glyph glyph-name="uni06D2.fina.alt" horiz-adv-x="480" 
d="M155 -258q-49 31 -77 82.5t-28 109.5q0 59 28.5 111t77.5 84t109 32h221v-161h-229q-27 0 -46 -18.5t-19 -46.5q0 -26 19 -44.5t46 -18.5h225v-161h-218q-60 0 -109 31z" />
    <glyph glyph-name="uni06D2.fina.alt2" horiz-adv-x="514" 
d="M257 0q-27 0 -46 -18.5t-19 -46.5q0 -26 19 -44.5t46 -18.5h379v-161h-372q-60 0 -109 31t-77 82.5t-28 109.5q0 59 28.5 111t77.5 84t109 32h257v-161h-265z" />
    <glyph glyph-name="uni06D2.fina.alt3" horiz-adv-x="438" 
d="M325 0q-26 0 -45 -19t-19 -46q0 -26 18.5 -44.5t45.5 -18.5h511v-161h-504q-60 0 -109 31t-77 82.5t-28 109.5q0 59 28.5 111t77.5 84t109 32h109v-161h-117z" />
    <glyph glyph-name="uni06D2.fina.alt4" horiz-adv-x="363" 
d="M257 0q-27 0 -46 -18.5t-19 -46.5q0 -26 19 -44.5t46 -18.5h621v-161h-614q-60 0 -109 31t-77 82.5t-28 109.5q0 59 28.5 111t77.5 84t109 32h108v-161h-116z" />
    <glyph glyph-name="uni06D3.fina.alt" horiz-adv-x="480" 
d="M155 -258q-49 31 -77 82.5t-28 109.5q0 59 28.5 111t77.5 84t109 32h221v-161h-229q-27 0 -46 -18.5t-19 -46.5q0 -26 19 -44.5t46 -18.5h225v-161h-218q-60 0 -109 31zM162 291q-8 13 -13 34q-4 20 -4 29q0 47 33 80.5t80 33.5q23 0 88 -12l-13 -77q-47 8 -72 8
q-19 0 -32 -10t-13 -25q0 -7 1 -10q2 -11 14 -19t26 -8q6 0 9 1l110 26l17 -78l-111 -27l-14 -2l-156 -37l-17 77z" />
    <glyph glyph-name="uni06D3.fina.alt2" horiz-adv-x="514" 
d="M257 0q-27 0 -46 -18.5t-19 -46.5q0 -26 19 -44.5t46 -18.5h379v-161h-372q-60 0 -109 31t-77 82.5t-28 109.5q0 59 28.5 111t77.5 84t109 32h257v-161h-265zM162 291q-8 13 -13 34q-4 20 -4 29q0 47 33 80.5t80 33.5q23 0 88 -12l-13 -77q-47 8 -72 8q-19 0 -32 -10
t-13 -25q0 -7 1 -10q2 -11 14 -19t26 -8q6 0 9 1l110 26l17 -78l-111 -27l-14 -2l-156 -37l-17 77z" />
    <glyph glyph-name="uni0640.001" horiz-adv-x="160" 
d="M0 161h160l9 -81l-9 -80h-160v161z" />
    <glyph glyph-name="uni0640.002" horiz-adv-x="65" 
d="M0 161h70l9 -81l-9 -80h-70v161z" />
    <glyph glyph-name="uni0640.004" horiz-adv-x="44" 
d="M-5 161h54v-161h-54v161z" />
    <glyph glyph-name="uni06B50627" horiz-adv-x="606" 
d="M105 161h251q34 0 45.5 10t10.5 30l-19 495l144 8l19 -496q3 -59 -21 -106t-70 -74.5t-109 -27.5h-251v161zM190 663l84 -430l-140 -29l-84 431zM437 986l28 -127l28 127h81l-73 -208h-72l-72 208h80z" />
    <glyph glyph-name="uni06B50627.fina" horiz-adv-x="627" 
d="M486 41q-54 -41 -130 -41h-251v161h251q34 0 45.5 10t10.5 30l-19 495l144 8l19 -496v-1q4 -27 17 -36.5t39 -9.5h20l9 -81l-9 -80h-20q-84 0 -126 41zM190 663l84 -430l-140 -29l-84 431zM438 986l27 -127l28 127h81l-73 -208h-72l-72 208h81z" />
    <glyph glyph-name="uni0664.ss03" horiz-adv-x="737" 
d="M261 290l27 -282l-143 -16l-46 483l-1 6v0l-16 167l143 16l17 -177q3 -20 11.5 -28.5t25.5 -10.5q-8 32 -8 61q0 60 29 111t78.5 80.5t107.5 29.5q50 0 110.5 -26.5t62.5 -27.5l-64 -144q-25 10 -60 22.5t-47 15.5q-5 1 -13 1q-26 0 -43.5 -19t-17.5 -43q0 -25 15.5 -43
t38.5 -18h189v-160h-367q-11 0 -29 2z" />
    <glyph glyph-name="uni0665.ss03" horiz-adv-x="737" 
d="M367 43q-51 -43 -117 -43h-11q-52 0 -95 26.5t-68 71.5t-25 98q0 89 13.5 140.5t56 111.5t145.5 175l-22 24l105 107q171 -189 232.5 -266.5t81 -135t19.5 -156.5q0 -53 -24.5 -98t-67.5 -71.5t-95 -26.5h-11q-66 0 -117 43zM206.5 171q12.5 -10 32.5 -10h11
q19 0 32 10.5t13 24.5v61h143v-53q5 -43 46 -43h11q20 0 32 10t12 25q0 59 -10 93.5t-43.5 79.5t-118.5 141q-89 -98 -121.5 -141t-42 -76.5t-9.5 -96.5q0 -15 12.5 -25z" />
    <glyph glyph-name="uni0666.ss03" horiz-adv-x="737" 
d="M622 494l-98 -145h1l-10 -14l-257 -380l-118 90l147 218q-30 10 -53 25q-47 30 -73 80t-26 106q0 70 38 126q13 19 52.5 50.5t88.5 64.5l72 -140q-83 -47 -95 -66q-13 -19 -13 -37q0 -26 28 -45q17 -14 43 -14q18 0 33.5 7.5t24.5 20.5l97 143z" />
    <glyph glyph-name="uni06F0.ss03" horiz-adv-x="737" 
d="M541 127.5q-27 -47.5 -72.5 -76t-99.5 -28.5t-100 28.5t-73 76t-27 103.5t27 103.5t73 76t100 28.5t99.5 -28.5t72.5 -76t27 -103.5t-27 -103.5zM323 190.5q19 -16.5 46 -16.5q26 0 45.5 16.5t19.5 40.5t-19.5 40.5t-45.5 16.5q-27 0 -46 -16.5t-19 -40.5t19 -40.5z" />
    <glyph glyph-name="uni06F1.ss03" horiz-adv-x="737" 
d="M269 647l143 16l64 -655l-143 -16z" />
    <glyph glyph-name="uni06F2.ss03" horiz-adv-x="737" 
d="M575 668l17 -168q1 -6 1 -18q0 -51 -26 -95t-70.5 -70t-96.5 -26h-21q-26 0 -53 8l28 -287l-143 -16l-64 656l143 16l17 -178q4 -22 15 -30t33 -8h45q25 0 37.5 8.5t11.5 25.5l-17 165z" />
    <glyph glyph-name="uni06F3.ss03" horiz-adv-x="737" 
d="M386 333q-53 -45 -122 -45h-19q-20 0 -36 4l28 -284l-143 -16l-64 655l143 16l16 -165q6 -50 50 -50h25q20 0 34.5 10t13.5 25v2l-14 139l143 16l14 -147q2 -22 15 -33.5t34 -11.5h11q20 0 34.5 11t13.5 26l-16 162l143 16l16 -171q1 -6 1 -18q0 -50 -26.5 -93t-71 -68
t-94.5 -25h-11q-67 0 -118 45z" />
    <glyph glyph-name="uni06F4.ss03" horiz-adv-x="737" 
d="M258 290l27 -282l-143 -16l-46 480l-1 9l-16 167l143 16l17 -177q3 -21 11 -29t25 -10q-8 32 -8 61q0 60 29 111t78.5 80.5t107.5 29.5q52 0 111.5 -26.5t61.5 -27.5l-63 -144q-82 32 -108 38q-5 1 -13 1q-25 0 -42.5 -19t-17.5 -43q0 -25 15.5 -43t37.5 -18h190v-160
h-368q-10 0 -28 2z" />
    <glyph glyph-name="uni06F5.ss03" horiz-adv-x="737" 
d="M367 43q-51 -43 -117 -43h-11q-52 0 -95 26.5t-68 71.5t-25 98q0 89 13.5 140.5t56 111.5t145.5 175l-22 24l105 107q171 -189 232.5 -266.5t81 -135t19.5 -156.5q0 -53 -24.5 -98t-67.5 -71.5t-95 -26.5h-11q-66 0 -117 43zM206.5 171q12.5 -10 32.5 -10h11
q19 0 32 10.5t13 24.5v61h143v-53q5 -43 46 -43h11q20 0 32 10t12 25q0 59 -10 93.5t-43.5 79.5t-118.5 141q-89 -98 -121.5 -141t-42 -76.5t-9.5 -96.5q0 -15 12.5 -25z" />
    <glyph glyph-name="uni06F6.ss03" horiz-adv-x="737" 
d="M622 494l-98 -145h1l-10 -14l-257 -380l-118 90l147 218q-30 10 -53 25q-47 30 -73 80t-26 106q0 70 38 126q13 19 52.5 50.5t88.5 64.5l72 -140q-83 -47 -95 -66q-13 -19 -13 -37q0 -26 28 -45q17 -14 43 -14q18 0 33.5 7.5t24.5 20.5l97 143z" />
    <glyph glyph-name="uni06F7.ss03" horiz-adv-x="737" 
d="M659 609l-224 -616h-135l-222 616l134 54l156 -434l156 434z" />
    <glyph glyph-name="uni06F8.ss03" horiz-adv-x="737" 
d="M80 40l224 620h134l223 -620l-134 -53l-156 434l-157 -434z" />
    <glyph glyph-name="uni06F9.ss03" horiz-adv-x="737" 
d="M153.5 566.5q28.5 50.5 78 80.5t108.5 30q56 0 103 -27.5t76.5 -76t36.5 -109.5l50 -455l-143 -16l-27 243h-96q-59 0 -108.5 29t-78 79t-28.5 111t28.5 111.5zM289 410q21 -19 51 -19h79l-6 57q-4 31 -24 51.5t-49 20.5q-31 0 -51.5 -19.5t-20.5 -45.5t21 -45z" />
    <glyph glyph-name="uni06F4.urdu" horiz-adv-x="744" 
d="M41 434q0 59 31 107t82 71q8 3 33 14q41 19 83 19q55 0 99 -31.5t64 -88.5l16 -46l139 195l115 -82l-201 -262l-117 -21l-71 156q-11 23 -33 23q-11 0 -25 -6l-36 -18q-32 -14 -32 -40q0 -10 5 -23l139 -355l-125 -70l-148 372q-18 44 -18 86z" />
    <glyph glyph-name="uni06F7.urdu" horiz-adv-x="534" 
d="M310 466.5q-61 -64.5 -98 -141.5t-37 -144q59 -9 123 -9q83 0 170 15l16 -159q-95 -19 -191 -19q-110 0 -239 27q-4 32 -4 72q0 129 47.5 245.5t131 206t188.5 139.5l23 -136q-69 -32 -130 -96.5z" />
    <glyph glyph-name="zero.ss02" horiz-adv-x="528" 
d="M426.5 127.5q-26.5 -47.5 -72.5 -76t-100 -28.5t-100 28.5t-72.5 76t-26.5 103.5t26.5 103.5t72.5 76t100 28.5t100 -28.5t72.5 -76t26.5 -103.5t-26.5 -103.5zM208 190.5q19 -16.5 46 -16.5t46 16.5t19 40.5t-19 40.5t-46 16.5t-46 -16.5t-19 -40.5t19 -40.5z" />
    <glyph glyph-name="one.ss02" horiz-adv-x="339" 
d="M48 647l143 16l64 -655l-143 -16z" />
    <glyph glyph-name="two.ss02" horiz-adv-x="526" 
d="M474 668l17 -168q1 -7 1 -20q0 -50 -26 -93.5t-70.5 -69.5t-95.5 -26h-22q-24 0 -53 8l28 -287l-143 -16l-64 656l143 16l17 -175q4 -24 15 -32.5t34 -8.5h45q24 0 37 8.5t11 25.5l-17 165z" />
    <glyph glyph-name="three.ss02" horiz-adv-x="745" 
d="M402 333q-53 -45 -122 -45h-19q-20 0 -36 4l28 -284l-143 -16l-64 655l143 16l16 -165q6 -50 50 -50h25q21 0 35 10t13 25v2l-14 139l144 16l14 -147q1 -22 14 -33.5t34 -11.5h11q20 0 34.5 11t13.5 26l-16 162l143 16l16 -171q1 -6 1 -18q0 -50 -26.5 -93t-71 -68
t-94.5 -25h-11q-67 0 -118 45z" />
    <glyph glyph-name="four.ss02" horiz-adv-x="660" 
d="M225 290l27 -282l-143 -16l-46 483l-1 6v0l-16 167l143 16l17 -174q3 -22 11 -31t26 -11q-8 32 -8 61q0 60 29 111t78.5 80.5t107.5 29.5q50 0 110.5 -26.5t62.5 -27.5l-64 -144q-25 10 -60 22.5t-47 15.5q-5 1 -13 1q-26 0 -43.5 -19t-17.5 -43q0 -25 16 -43t38 -18h190
v-160h-368q-11 0 -29 2z" />
    <glyph glyph-name="five.ss02" horiz-adv-x="710" 
d="M355 43q-51 -43 -117 -43h-11q-52 0 -95 26.5t-68 71.5t-25 98q0 89 13.5 140.5t56 111.5t145.5 175l-22 24l105 107q172 -190 233.5 -267t81 -134.5t19.5 -156.5q0 -53 -25 -98t-68 -71.5t-95 -26.5h-11q-66 0 -117 43zM195 171q12 -10 32 -10h11q19 0 32 10.5t13 24.5
v61h144v-53q1 -21 13 -32t32 -11h11q20 0 32 10t12 25q0 59 -10 93.5t-43.5 79.5t-118.5 141q-89 -98 -121.5 -141t-41.5 -76t-9 -97q0 -15 12 -25z" />
    <glyph glyph-name="six.ss02" horiz-adv-x="571" 
d="M529 494l-98 -145h1l-10 -14l-257 -380l-118 90l147 218q-28 9 -52 25q-48 30 -73.5 80.5t-25.5 106.5q0 69 37 125q13 19 53 50.5t89 64.5l71 -140q-82 -47 -95 -66q-13 -21 -13 -37q0 -25 29 -45q17 -14 42 -14q18 0 33.5 7.5t24.5 20.5l97 143z" />
    <glyph glyph-name="seven.ss02" horiz-adv-x="616" 
d="M599 609l-224 -616h-134l-223 616l134 54l156 -434l156 434z" />
    <glyph glyph-name="eight.ss02" horiz-adv-x="616" 
d="M18 40l224 620h134l223 -620l-135 -53l-155 434l-157 -434z" />
    <glyph glyph-name="nine.ss02" horiz-adv-x="588" 
d="M72.5 566.5q28.5 50.5 78 80.5t108.5 30q56 0 103 -27.5t77 -76.5t36 -109l50 -455l-143 -16l-27 243h-96q-59 0 -108.5 29t-78 79t-28.5 111t28.5 111.5zM208 410q21 -19 51 -19h79l-6 57q-4 31 -24 51.5t-49 20.5q-31 0 -51.5 -19.5t-20.5 -45.5t21 -45z" />
    <glyph glyph-name="zero.ss03" horiz-adv-x="737" 
d="M541 127.5q-27 -47.5 -72.5 -76t-99.5 -28.5t-100 28.5t-73 76t-27 103.5t27 103.5t73 76t100 28.5t99.5 -28.5t72.5 -76t27 -103.5t-27 -103.5zM323 190.5q19 -16.5 46 -16.5q26 0 45.5 16.5t19.5 40.5t-19.5 40.5t-45.5 16.5q-27 0 -46 -16.5t-19 -40.5t19 -40.5z" />
    <glyph glyph-name="one.ss03" horiz-adv-x="737" 
d="M269 647l143 16l64 -655l-143 -16z" />
    <glyph glyph-name="two.ss03" horiz-adv-x="737" 
d="M575 668l17 -168q1 -6 1 -18q0 -51 -26 -95t-70.5 -70t-96.5 -26h-21q-26 0 -53 8l28 -287l-143 -16l-64 656l143 16l17 -178q4 -22 15 -30t33 -8h45q25 0 37.5 8.5t11.5 25.5l-17 165z" />
    <glyph glyph-name="three.ss03" horiz-adv-x="737" 
d="M386 333q-53 -45 -122 -45h-19q-20 0 -36 4l28 -284l-143 -16l-64 655l143 16l16 -165q6 -50 50 -50h25q20 0 34.5 10t13.5 25v2l-14 139l143 16l14 -147q2 -22 15 -33.5t34 -11.5h11q20 0 34.5 11t13.5 26l-16 162l143 16l16 -171q1 -6 1 -18q0 -50 -26.5 -93t-71 -68
t-94.5 -25h-11q-67 0 -118 45z" />
    <glyph glyph-name="four.ss03" horiz-adv-x="737" 
d="M258 290l27 -282l-143 -16l-46 480l-1 9l-16 167l143 16l17 -177q3 -21 11 -29t25 -10q-8 32 -8 61q0 60 29 111t78.5 80.5t107.5 29.5q52 0 111.5 -26.5t61.5 -27.5l-63 -144q-82 32 -108 38q-5 1 -13 1q-25 0 -42.5 -19t-17.5 -43q0 -25 15.5 -43t37.5 -18h190v-160
h-368q-10 0 -28 2z" />
    <glyph glyph-name="five.ss03" horiz-adv-x="737" 
d="M367 43q-51 -43 -117 -43h-11q-52 0 -95 26.5t-68 71.5t-25 98q0 89 13.5 140.5t56 111.5t145.5 175l-22 24l105 107q171 -189 232.5 -266.5t81 -135t19.5 -156.5q0 -53 -24.5 -98t-67.5 -71.5t-95 -26.5h-11q-66 0 -117 43zM206.5 171q12.5 -10 32.5 -10h11
q19 0 32 10.5t13 24.5v61h143v-53q5 -43 46 -43h11q20 0 32 10t12 25q0 59 -10 93.5t-43.5 79.5t-118.5 141q-89 -98 -121.5 -141t-42 -76.5t-9.5 -96.5q0 -15 12.5 -25z" />
    <glyph glyph-name="six.ss03" horiz-adv-x="737" 
d="M622 494l-98 -145h1l-10 -14l-257 -380l-118 90l147 218q-30 10 -53 25q-47 30 -73 80t-26 106q0 70 38 126q13 19 52.5 50.5t88.5 64.5l72 -140q-83 -47 -95 -66q-13 -19 -13 -37q0 -26 28 -45q17 -14 43 -14q18 0 33.5 7.5t24.5 20.5l97 143z" />
    <glyph glyph-name="seven.ss03" horiz-adv-x="737" 
d="M659 609l-224 -616h-135l-222 616l134 54l156 -434l156 434z" />
    <glyph glyph-name="eight.ss03" horiz-adv-x="737" 
d="M80 40l224 620h134l223 -620l-134 -53l-156 434l-157 -434z" />
    <glyph glyph-name="nine.ss03" horiz-adv-x="737" 
d="M153.5 566.5q28.5 50.5 78 80.5t108.5 30q56 0 103 -27.5t76.5 -76t36.5 -109.5l50 -455l-143 -16l-27 243h-96q-59 0 -108.5 29t-78 79t-28.5 111t28.5 111.5zM289 410q21 -19 51 -19h79l-6 57q-4 31 -24 51.5t-49 20.5q-31 0 -51.5 -19.5t-20.5 -45.5t21 -45z" />
    <glyph glyph-name="zero.dnom" horiz-adv-x="373" 
d="M298 35.5q-39 -40.5 -111 -40.5t-111.5 40t-40.5 113v85q0 76 40 117t111 41q70 0 110.5 -41.5t40.5 -116.5v-83q0 -74 -39 -114.5zM146.5 90.5q12.5 -17.5 40.5 -17.5q49 0 51 68v95q0 77 -52 77q-25 0 -38 -18.5t-14 -53.5v-94q0 -39 12.5 -56.5z" />
    <glyph glyph-name="one.dnom" horiz-adv-x="373" 
d="M258 0h-98v272l-91 -20v74l180 58h9v-384z" />
    <glyph glyph-name="two.dnom" horiz-adv-x="373" 
d="M337 0h-301v66l140 125q25 24 38.5 45t13.5 34q0 43 -49 43q-24 0 -38 -15.5t-14 -40.5l-95 5q0 58 39 93.5t104 35.5q73 0 112.5 -31.5t39.5 -89.5q0 -36 -25 -72q-23 -31 -84 -76l-51 -45h170v-77z" />
    <glyph glyph-name="three.dnom" horiz-adv-x="373" 
d="M135 228h42q28 0 42.5 11.5t14.5 33.5q0 19 -14 29.5t-39 10.5q-22 0 -37 -9t-15 -24h-99q0 50 41 80.5t106 30.5q72 0 114 -30t42 -81q0 -58 -69 -82q77 -20 77 -91q0 -50 -45 -81t-119 -31q-70 0 -112.5 33.5t-42.5 88.5h101q0 -18 17 -31t44 -13q28 0 42 12.5t14 32.5
q0 47 -61 47h-44v63z" />
    <glyph glyph-name="four.dnom" horiz-adv-x="373" 
d="M301 159h43v-79h-43v-80h-100v80h-167l-7 63l174 242h100v-226zM201 159v110l-9 -14l-71 -96h80z" />
    <glyph glyph-name="five.dnom" horiz-adv-x="373" 
d="M41 188l27 197h247v-76h-167l-11 -70q42 14 67 14q64 0 97.5 -32t33.5 -91q0 -60 -41 -97.5t-109 -37.5q-41 0 -76 15t-55.5 41t-20.5 58h100q0 -17 13.5 -26.5t38.5 -9.5q52 0 52 57t-59 57q-17 0 -32.5 -5t-25.5 -14z" />
    <glyph glyph-name="six.dnom" horiz-adv-x="373" 
d="M176 291.5q-33 -22.5 -40 -65.5q34 31 87 31q57 0 90 -34.5t33 -93.5q0 -58 -43 -96t-109 -38q-75 0 -117.5 39.5t-42.5 111.5v31q0 103 63 160t182 57v-80q-70 0 -103 -22.5zM192 72q23 0 39 17t16 41t-14.5 37t-42.5 13q-39 0 -57 -26v-21q0 -61 59 -61z" />
    <glyph glyph-name="seven.dnom" horiz-adv-x="373" 
d="M336 332l-161 -332h-105l163 307h-209v78h312v-53z" />
    <glyph glyph-name="eight.dnom" horiz-adv-x="373" 
d="M74.5 24.5q-40.5 29.5 -40.5 81.5q0 65 66 92q-57 29 -57 84q0 50 38.5 79.5t104.5 29.5t104.5 -29t38.5 -80q0 -58 -56 -84q65 -29 65 -92q0 -52 -40 -81.5t-111 -29.5q-72 0 -112.5 29.5zM148 85q15 -12 39 -12t38 11.5t14 31.5t-14 30.5t-39 10.5t-39 -10.5t-14 -30.5
q0 -19 15 -31zM153.5 245.5q11.5 -10.5 33.5 -10.5q43 0 43 40q0 18 -11.5 28t-32.5 10q-22 0 -33 -10t-11 -28q0 -19 11.5 -29.5z" />
    <glyph glyph-name="nine.dnom" horiz-adv-x="373" 
d="M197.5 86q29.5 15 37.5 64q-33 -28 -74 -28q-62 0 -95 33.5t-33 94.5q0 39 20 71.5t55 51t76 18.5q71 0 110.5 -40.5t40.5 -113.5v-32q0 -107 -56 -159.5t-173 -52.5v78q62 0 91.5 15zM146.5 208.5q14.5 -14.5 42.5 -14.5q32 0 48 22v37q0 32 -13 46t-40 14
q-23 0 -37.5 -19t-14.5 -45t14.5 -40.5z" />
    <glyph glyph-name="zero.numr" horiz-adv-x="373" 
d="M298 320.5q-39 -40.5 -111 -40.5t-111.5 40t-40.5 113v85q0 76 40 117t111 41q70 0 110.5 -41.5t40.5 -116.5v-83q0 -74 -39 -114.5zM146.5 375.5q12.5 -17.5 40.5 -17.5q49 0 51 68v95q0 77 -52 77q-25 0 -38 -18.5t-14 -53.5v-94q0 -39 12.5 -56.5z" />
    <glyph glyph-name="one.numr" horiz-adv-x="373" 
d="M258 285h-98v272l-91 -20v74l180 58h9v-384z" />
    <glyph glyph-name="two.numr" horiz-adv-x="373" 
d="M337 285h-301v66l140 125q25 24 38.5 45t13.5 34q0 43 -49 43q-24 0 -38 -15.5t-14 -40.5l-95 5q0 58 39 93.5t104 35.5q73 0 112.5 -31.5t39.5 -89.5q0 -36 -25 -72q-23 -31 -84 -76l-51 -45h170v-77z" />
    <glyph glyph-name="three.numr" horiz-adv-x="373" 
d="M135 513h42q28 0 42.5 11.5t14.5 33.5q0 19 -14 29.5t-39 10.5q-22 0 -37 -9t-15 -24h-99q0 50 41 80.5t106 30.5q72 0 114 -30t42 -81q0 -58 -69 -82q77 -20 77 -91q0 -50 -45 -81t-119 -31q-70 0 -112.5 33.5t-42.5 88.5h101q0 -18 17 -31t44 -13q28 0 42 12.5t14 32.5
q0 47 -61 47h-44v63z" />
    <glyph glyph-name="four.numr" horiz-adv-x="373" 
d="M301 444h43v-79h-43v-80h-100v80h-167l-7 63l174 242h100v-226zM201 444v110l-9 -14l-71 -96h80z" />
    <glyph glyph-name="five.numr" horiz-adv-x="373" 
d="M41 473l27 197h247v-76h-167l-11 -70q42 14 67 14q64 0 97.5 -32t33.5 -91q0 -60 -41 -97.5t-109 -37.5q-41 0 -76 15t-55.5 41t-20.5 58h100q0 -17 13.5 -26.5t38.5 -9.5q52 0 52 57t-59 57q-17 0 -32.5 -5t-25.5 -14z" />
    <glyph glyph-name="six.numr" horiz-adv-x="373" 
d="M176 576.5q-33 -22.5 -40 -65.5q34 31 87 31q57 0 90 -34.5t33 -93.5q0 -58 -43 -96t-109 -38q-75 0 -117.5 39.5t-42.5 111.5v31q0 103 63 160t182 57v-80q-70 0 -103 -22.5zM192 357q23 0 39 17t16 41t-14.5 37t-42.5 13q-39 0 -57 -26v-21q0 -61 59 -61z" />
    <glyph glyph-name="seven.numr" horiz-adv-x="373" 
d="M336 617l-161 -332h-105l163 307h-209v78h312v-53z" />
    <glyph glyph-name="eight.numr" horiz-adv-x="373" 
d="M74.5 309.5q-40.5 29.5 -40.5 81.5q0 65 66 92q-57 29 -57 84q0 50 38.5 79.5t104.5 29.5t104.5 -29t38.5 -80q0 -58 -56 -84q65 -29 65 -92q0 -52 -40 -81.5t-111 -29.5q-72 0 -112.5 29.5zM148 370q15 -12 39 -12t38 11.5t14 31.5t-14 30.5t-39 10.5t-39 -10.5
t-14 -30.5q0 -19 15 -31zM153.5 530.5q11.5 -10.5 33.5 -10.5q43 0 43 40q0 18 -11.5 28t-32.5 10q-22 0 -33 -10t-11 -28q0 -19 11.5 -29.5z" />
    <glyph glyph-name="nine.numr" horiz-adv-x="373" 
d="M197.5 371q29.5 15 37.5 64q-33 -28 -74 -28q-62 0 -95 33.5t-33 94.5q0 39 20 71.5t55 51t76 18.5q71 0 110.5 -40.5t40.5 -113.5v-32q0 -107 -56 -159.5t-173 -52.5v78q62 0 91.5 15zM146.5 493.5q14.5 -14.5 42.5 -14.5q32 0 48 22v37q0 32 -13 46t-40 14
q-23 0 -37.5 -19t-14.5 -45t14.5 -40.5z" />
    <glyph glyph-name="period.001" horiz-adv-x="356" 
d="M116.5 25q-25.5 26 -25.5 62q0 35 25 60t62 25q35 0 60.5 -25t25.5 -60q0 -36 -25.5 -62t-60.5 -26q-36 0 -61.5 26z" />
    <glyph glyph-name="uniFDFC.001" horiz-adv-x="1609" 
d="M1154 -239h-260v126h260v-126zM225 223q-33 -94 -33 -163q0 -72 34 -111t97 -39q30 0 64 9q76 20 105.5 31.5t41 33t9.5 66.5l-25 646l143 8l25 -646q3 -89 -23.5 -145.5t-84.5 -90.5t-157 -58q-55 -13 -97 -13q-84 0 -146 39t-95 109.5t-33 163.5q0 103 39 213zM914 695
l18 -467q2 -41 5 -54.5t15.5 -17.5t46.5 -4h75q40 0 58 9.5t18 34.5q0 14 -6 35l-40 149l138 42l40 -149q11 -38 11 -79q0 -60 -27 -106t-77 -71t-115 -25h-79q-73 0 -116.5 23.5t-64.5 74.5t-25 138l-18 460zM1301 -66q65 18 90 36t25 52q0 7 -2 23l-40 287l142 21l29 -208
l11 -81q4 -25 4 -53q0 -93 -53.5 -147t-167.5 -86l-69 -19l-38 155z" />
    <glyph glyph-name="uniFDFC.002" horiz-adv-x="1532" 
d="M182.5 -41.5q-63.5 33.5 -95 92t-31.5 134.5q0 118 74 246l119 -73q-49 -105 -49 -168q0 -111 154 -106q56 2 83 8.5t38 27t9 62.5l-21 488l93 155l164 42q20 5 34 5q39 0 62 -27t24 -79l16 -431q1 -34 6.5 -49t20 -20.5t48.5 -5.5h70q40 0 58 9.5t18 34.5q0 14 -6 35
l-39 146l138 41l39 -146q11 -44 11 -78q0 -60 -27 -106t-77 -71.5t-115 -25.5h-70q-79 0 -125 23t-68 74.5t-25 138.5l-15 396l-96 -28l25 -513q6 -133 -70 -199t-219 -66q-92 0 -155.5 33.5zM697 -3l362 28l30 -145l-395 -20zM1264.5 84.5q35.5 12.5 52 29t16.5 44.5
q0 7 -2 23l-42 288l141 21l42 -290q4 -25 4 -53q0 -69 -32.5 -115.5t-94.5 -77.5t-162 -58l-38 155q80 21 115.5 33.5z" />
    <glyph glyph-name="dotcenter-ar" 
d="M29 33h142v-141h-142v141z" />
    <glyph glyph-name="threedotsdownbelow-ar.002" 
d="M108 -220h-69v116h113h12h114v-116h-68v-81h-102v81z" />
    <glyph glyph-name="wasla-ar" 
d="M43 560q19 16 42 20l32 44q24 32 39 49.5t37.5 31t50.5 13.5q44 0 74 -32.5t30 -80.5q0 -42 -31.5 -73.5t-72.5 -31.5h-139q-12 0 -20 -6.5t-25 -29.5l-60 46q24 34 43 50zM244 581q13 0 23.5 7.5t10.5 21.5q0 13 -9.5 21.5t-24.5 8.5q-16 0 -29 -10t-34 -38l-8 -11h71z
" />
    <glyph glyph-name="miniKeheh-ar" 
d="M0 63h52q7 0 7 3t-5 8l-46 45l13 52l98 33l20 -59l-50 -17l35 -37q16 -15 16 -38q0 -21 -14 -37t-37 -16h-89v63z" />
    <glyph glyph-name="gafsarkashabove-ar" 
d="M-7 610l244 88l35 -98l-244 -88z" />
    <glyph glyph-name="uni0654064F" 
d="M4 574l67 16q-8 13 -13 34q-4 20 -4 29q0 47 33 80.5t80 33.5q23 0 88 -12l-13 -78q-50 9 -75 9q-18 0 -30 -10t-12 -25q0 -7 1 -10q3 -12 15.5 -20t27.5 -8l116 28l17 -79l-281 -66zM84 894l-13 51q-3 14 -3 27q0 36 23 63t62 37q15 3 31 3q44 0 77.5 -25.5t40.5 -66.5
q2 -16 2 -23q0 -43 -30 -75.5t-83 -46.5l-175 -42l-17 78zM157 912l16 4q54 12 54 46q0 16 -11 27t-30 11q-3 0 -15 -2q-28 -7 -28 -27q0 -4 2 -10z" />
    <glyph glyph-name="uni0654064C" 
d="M56 574l67 16q-9 16 -14 34q-3 15 -3 28q0 48 32.5 81.5t79.5 33.5q25 0 89 -12l-14 -78q-49 9 -74 9q-19 0 -31 -10.5t-12 -25.5q0 -16 13.5 -26.5t30.5 -10.5l116 28l18 -79l-281 -66zM57 1022q42 0 70.5 -25t34.5 -61q2 -12 2 -19q0 -13 -3 -25l36 10l-13 53
q-3 15 -3 29q0 35 21 61t59 36q20 4 30 4q49 0 81 -33.5t32 -84.5q0 -43 -28.5 -75t-79.5 -45l-224 -54l-16 69l8 2q19 7 29.5 20t10.5 29q0 18 -13.5 31t-34.5 13q-12 0 -18 -2l-14 63q16 4 33 4zM265 921l13 4q56 16 56 46q0 16 -10.5 27t-29.5 11q-3 0 -15 -2
q-28 -7 -28 -26q0 -2 2 -10z" />
    <glyph glyph-name="uni0654064E" 
d="M0 574l67 16q-8 13 -13 34q-4 20 -4 29q0 47 33 80.5t79 33.5q25 0 89 -12l-14 -78q-49 9 -74 9q-19 0 -31 -10.5t-12 -25.5q0 -16 13.5 -27t31.5 -10l116 28l17 -79l-281 -66zM253 933l17 -79l-239 -57l-17 78z" />
    <glyph glyph-name="uni0654064B" 
d="M0 574l67 16q-8 13 -13 34q-4 20 -4 29q0 47 33 80.5t79 33.5q25 0 89 -12l-14 -78q-49 9 -74 9q-19 0 -31 -10.5t-12 -25.5q0 -16 13.5 -27t31.5 -10l116 28l17 -79l-281 -66zM260 922l17 -78l-239 -58l-17 79zM260 1057l17 -78l-239 -58l-17 79z" />
    <glyph glyph-name="uni06540652" 
d="M0 574l67 16q-8 13 -13 34q-4 20 -4 29q0 47 33 80.5t79 33.5q25 0 89 -12l-14 -78q-49 9 -74 9q-19 0 -31 -10.5t-12 -25.5q0 -16 13.5 -27t31.5 -10l116 28l17 -79l-281 -66zM42 1010q17 29 45.5 46.5t61.5 17.5t61 -17.5t45 -46.5t17 -62t-17 -62t-45 -46.5t-61 -17.5
t-61.5 17.5t-45.5 46.5t-17 62t17 62zM111.5 912q15.5 -15 37.5 -15t37 15t15 36t-15 36t-37 15t-37.5 -15t-15.5 -36t15.5 -36z" />
    <glyph glyph-name="uni06550650" 
d="M172 -393l-155 -37l-17 77l67 16q-9 16 -14 34q-4 20 -4 29q0 47 33 80.5t80 33.5q25 0 89 -12l-14 -78q-49 9 -74 9q-19 0 -31 -10.5t-12 -25.5t12.5 -25.5t28.5 -10.5q7 0 10 1l109 26l17 -78l-110 -27q-10 -2 -15 -2zM267 -438l17 -78l-239 -58l-17 79z" />
    <glyph glyph-name="uni0655064D" 
d="M172 -393l-155 -37l-17 77l67 16q-9 16 -14 34q-4 20 -4 29q0 47 33 80.5t80 33.5q25 0 89 -12l-14 -78q-49 9 -74 9q-19 0 -31 -10.5t-12 -25.5t12.5 -25.5t28.5 -10.5q7 0 10 1l109 26l17 -78l-110 -27q-10 -2 -15 -2zM267 -557l17 -78l-239 -58l-17 79zM267 -421
l17 -78l-239 -58l-17 79z" />
    <glyph glyph-name="uni0651064B" 
d="M18 675l61 -17l-11 -51q-6 -26 25 -26q12 0 18 4.5t6 7.5l2 68h59l3 -68q0 -4 6 -8t18 -4q32 0 26 22l-17 72l62 18l22 -75q4 -12 4 -28q0 -38 -27.5 -64t-69.5 -26q-16 0 -31.5 5.5t-24.5 14.5q-10 -9 -25 -14.5t-31 -5.5q-40 0 -66.5 25.5t-26.5 63.5q0 15 4 28z
M259 854l17 -79l-238 -57l-17 78zM259 989l17 -78l-238 -58l-17 79z" />
    <glyph glyph-name="uni0651064C" 
d="M69 675l60 -17l-11 -51q-4 -26 25 -26q12 0 18 4t6 8l3 68h59l2 -68q0 -3 6 -7.5t18 -4.5q32 0 26 22l-17 72l63 18l21 -75q4 -13 4 -28q0 -38 -27.5 -64t-69.5 -26q-16 0 -31.5 5.5t-23.5 14.5q-23 -20 -57 -20q-40 0 -66.5 25.5t-26.5 63.5q0 15 4 28zM31 937
q41 0 69.5 -25t34.5 -60q2 -12 2 -18q0 -9 -4 -27l37 11l-13 52q-3 15 -3 29q0 36 21 62t59 35q20 4 30 4q49 0 81 -33.5t32 -83.5q0 -43 -28.5 -75t-79.5 -45l-225 -55l-15 70l8 2q18 6 28.5 19t10.5 29q0 19 -13.5 32t-35.5 13q-11 0 -17 -2l-13 62q16 4 34 4zM239 837
l12 3q56 17 56 46q0 17 -10 27.5t-28 10.5q-11 0 -17 -2q-28 -6 -28 -25q0 -4 2 -10z" />
    <glyph glyph-name="uni0651064D" 
d="M19 961l61 -17l-11 -52q-6 -25 25 -25q12 0 18 4.5t6 7.5l2 68h59l3 -68q0 -4 6 -8t18 -4q32 0 26 22l-17 72l62 18l22 -75q4 -12 4 -28q0 -38 -27.5 -64t-69.5 -26q-16 0 -31.5 5.5t-24.5 14.5q-10 -9 -25 -14.5t-31 -5.5q-40 0 -66.5 25.5t-26.5 63.5q0 15 4 28z
M262 635l17 -78l-238 -58l-18 79zM262 770l17 -78l-238 -57l-18 78z" />
    <glyph glyph-name="uni0651064E" 
d="M18 675l61 -17l-11 -51q-6 -26 25 -26q12 0 18 4.5t6 7.5l2 68h59l3 -68q0 -4 6 -8t18 -4q32 0 26 22l-17 72l62 18l22 -75q4 -12 4 -28q0 -38 -27.5 -64t-69.5 -26q-16 0 -31.5 5.5t-24.5 14.5q-10 -9 -25 -14.5t-31 -5.5q-40 0 -66.5 25.5t-26.5 63.5q0 15 4 28z
M252 864l17 -78l-238 -57l-18 78z" />
    <glyph glyph-name="uni0651064F" 
d="M19 675l61 -17l-11 -51q-6 -26 25 -26q12 0 18 4.5t6 7.5l2 68h59l3 -68q0 -4 6 -8t18 -4q32 0 26 22l-17 72l62 18l22 -75q4 -12 4 -28q0 -38 -27.5 -64t-69.5 -26q-16 0 -31.5 5.5t-24.5 14.5q-10 -9 -25 -14.5t-31 -5.5q-40 0 -66.5 25.5t-26.5 63.5q0 15 4 28z
M80 826l-13 50q-3 14 -3 27q0 36 23.5 63.5t62.5 36.5q20 4 31 4q43 0 76.5 -26t40.5 -67q2 -16 2 -23q0 -43 -30 -75.5t-82 -45.5l-176 -43l-17 79zM153 843l17 4q29 7 42 20.5t11 30.5q-2 15 -12.5 24t-26.5 9q-4 0 -16 -2q-29 -6 -29 -27q0 -2 2 -10z" />
    <glyph glyph-name="uni06510650" 
d="M24 579l239 57l17 -78l-238 -58zM20 829l61 -17l-11 -52q-6 -25 25 -25q12 0 18 4.5t6 7.5l3 68h58l3 -68q0 -3 6 -7.5t18 -4.5q32 0 26 22l-17 72l62 18l22 -75q4 -12 4 -28q0 -38 -27.5 -64t-69.5 -26q-17 0 -32 5t-24 15q-20 -20 -56 -20q-40 0 -66.5 25.5t-26.5 63.5
q0 15 4 28z" />
    <glyph glyph-name="uni06510670" 
d="M18 675l61 -17l-11 -51q-6 -26 25 -26q12 0 18 4.5t6 7.5l2 68h59l3 -68q0 -4 6 -8t18 -4q32 0 26 22l-17 72l62 18l22 -75q4 -12 4 -28q0 -38 -27.5 -64t-69.5 -26q-16 0 -31.5 5.5t-24.5 14.5q-10 -9 -25 -14.5t-31 -5.5q-40 0 -66.5 25.5t-26.5 63.5q0 15 4 28z
M117 863h67v-162h-67v162z" />
    <glyph glyph-name="uni0653.001" 
d="M27 682.5q27 27.5 69 27.5q7 0 23 -2l101 -19q5 -1 13 -1q22 0 22 19v4l72 5v-25q0 -45 -27 -72.5t-69 -27.5q-7 0 -23 2l-101 19q-5 1 -13 1q-11 0 -16.5 -5t-5.5 -14v-4l-72 -5v25q0 45 27 72.5z" />
    <glyph glyph-name="sareya-ar" 
d="M43 565q17 1 31 2q80 4 80 7q0 2 -10.5 4.5t-24.5 4.5t-23 4q-50 8 -72 24.5t-22 46.5q0 25 13 58q16 43 46 65.5t68 22.5q21 0 47 -8l38 -11l-21 -78l-38 12q-15 5 -27 5q-36 0 -49 -39q-4 -9 2.5 -12.5t31.5 -9.5q43 -8 65 -17t33 -25t11 -46q0 -38 -19 -56.5
t-59.5 -25.5t-126.5 -12l-7 81q16 2 33 3z" />
    </font>
</defs>
</svg>
